Gelasio Italic.ufo
<glyph name="exclam" format="1">
  <advance width="678"/>
  <unicode hex="0021"/>
  <outline>
    <contour>
      <point x="286" y="432" type="curve" name="hr00"/>
      <point x="366" y="432" type="line"/>
      <point x="486" y="1013"/>
      <point x="598" y="1322"/>
      <point x="609" y="1389" type="curve" smooth="yes"/>
      <point x="621" y="1467"/>
      <point x="572" y="1528"/>
      <point x="499" y="1528" type="curve" smooth="yes"/>
      <point x="425" y="1528"/>
      <point x="359" y="1467"/>
      <point x="347" y="1389" type="curve" smooth="yes"/>
      <point x="336" y="1322"/>
      <point x="334" y="1013"/>
    </contour>
    <contour>
      <point x="141" y="104" type="curve" smooth="yes"/>
      <point x="140" y="32"/>
      <point x="183" y="-28"/>
      <point x="261" y="-28" type="curve" smooth="yes"/>
      <point x="340" y="-28"/>
      <point x="404" y="35"/>
      <point x="406" y="122" type="curve" smooth="yes"/>
      <point x="407" y="194"/>
      <point x="363" y="249"/>
      <point x="285" y="249" type="curve" smooth="yes"/>
      <point x="200" y="249"/>
      <point x="143" y="186"/>
    </contour>
  </outline>
</glyph>
<glyph name="numbersign" format="1">
  <advance width="1317"/>
  <unicode hex="0023"/>
  <outline>
    <contour>
      <point x="177" y="0" type="line" name="hr00"/>
      <point x="302" y="0" type="line"/>
      <point x="431" y="420" type="line"/>
      <point x="723" y="420" type="line"/>
      <point x="594" y="0" type="line"/>
      <point x="719" y="0" type="line"/>
      <point x="848" y="420" type="line"/>
      <point x="1122" y="420" type="line"/>
      <point x="1133" y="526" type="line"/>
      <point x="879" y="526" type="line"/>
      <point x="998" y="900" type="line"/>
      <point x="1251" y="900" type="line"/>
      <point x="1263" y="1006" type="line"/>
      <point x="1030" y="1006" type="line"/>
      <point x="1161" y="1419" type="line"/>
      <point x="1034" y="1419" type="line"/>
      <point x="904" y="1006" type="line"/>
      <point x="613" y="1006" type="line"/>
      <point x="744" y="1419" type="line"/>
      <point x="617" y="1419" type="line"/>
      <point x="487" y="1006" type="line"/>
      <point x="193" y="1006" type="line"/>
      <point x="181" y="900" type="line"/>
      <point x="455" y="900" type="line"/>
      <point x="337" y="526" type="line"/>
      <point x="83" y="526" type="line"/>
      <point x="72" y="420" type="line"/>
      <point x="306" y="420" type="line"/>
    </contour>
    <contour>
      <point x="462" y="526" type="line"/>
      <point x="581" y="900" type="line"/>
      <point x="872" y="900" type="line"/>
      <point x="754" y="526" type="line"/>
    </contour>
  </outline>
</glyph>
<glyph name="dollar" format="1">
  <advance width="1249"/>
  <unicode hex="0024"/>
  <outline>
    <contour>
      <point x="702" y="1347" type="line" name="hr01"/>
      <point x="808" y="1342" type="line"/>
      <point x="848" y="1574" type="line"/>
      <point x="742" y="1574" type="line"/>
    </contour>
    <contour>
      <point x="442" y="-245" type="line"/>
      <point x="548" y="-245" type="line"/>
      <point x="580" y="-16" type="line" name="hr02"/>
      <point x="475" y="-13" type="line" name="hr03"/>
    </contour>
    <contour>
      <point x="94" y="72" type="curve" smooth="yes"/>
      <point x="90" y="48"/>
      <point x="108" y="20"/>
      <point x="135" y="20" type="curve" smooth="yes"/>
      <point x="155" y="20"/>
      <point x="187" y="32"/>
      <point x="209" y="61" type="curve" smooth="yes"/>
      <point x="221" y="76"/>
      <point x="235" y="83"/>
      <point x="242" y="78" type="curve" smooth="yes"/>
      <point x="303" y="38"/>
      <point x="428" y="-30"/>
      <point x="595" y="-30" type="curve" smooth="yes"/>
      <point x="890" y="-30"/>
      <point x="1093" y="140"/>
      <point x="1092" y="358" type="curve" smooth="yes"/>
      <point x="1091" y="538"/>
      <point x="901" y="658"/>
      <point x="731" y="763" type="curve" smooth="yes"/>
      <point x="625" y="829"/>
      <point x="480" y="944"/>
      <point x="474" y="1071" type="curve" smooth="yes"/>
      <point x="465" y="1231"/>
      <point x="594" y="1290"/>
      <point x="744" y="1290" type="curve" smooth="yes"/>
      <point x="890" y="1290"/>
      <point x="1020" y="1185"/>
      <point x="1032" y="970" type="curve" smooth="yes"/>
      <point x="1032" y="957"/>
      <point x="1053" y="948"/>
      <point x="1074" y="948" type="curve" smooth="yes"/>
      <point x="1102" y="948"/>
      <point x="1126" y="952"/>
      <point x="1127" y="1007" type="curve" smooth="yes"/>
      <point x="1129" y="1128"/>
      <point x="1150" y="1280"/>
      <point x="1149" y="1318" type="curve" smooth="yes"/>
      <point x="1149" y="1336"/>
      <point x="1126" y="1352"/>
      <point x="1101" y="1352" type="curve" smooth="yes"/>
      <point x="1063" y="1352"/>
      <point x="1054" y="1308"/>
      <point x="1013" y="1308" type="curve" smooth="yes"/>
      <point x="1006" y="1308"/>
      <point x="997" y="1306"/>
      <point x="988" y="1311" type="curve" smooth="yes"/>
      <point x="960" y="1325"/>
      <point x="844" y="1369"/>
      <point x="747" y="1369" type="curve" smooth="yes"/>
      <point x="421" y="1369"/>
      <point x="261" y="1214"/>
      <point x="273" y="1018" type="curve" smooth="yes"/>
      <point x="284" y="818"/>
      <point x="438" y="702"/>
      <point x="592" y="598" type="curve" smooth="yes"/>
      <point x="730" y="505"/>
      <point x="882" y="429"/>
      <point x="891" y="296" type="curve" smooth="yes"/>
      <point x="900" y="142"/>
      <point x="763" y="59"/>
      <point x="588" y="59" type="curve" name="hr04" smooth="yes"/>
      <point x="454" y="59"/>
      <point x="333" y="134"/>
      <point x="283" y="257" type="curve" smooth="yes"/>
      <point x="237" y="369"/>
      <point x="247" y="444"/>
      <point x="244" y="478" type="curve"/>
      <point x="244" y="505"/>
      <point x="217" y="520"/>
      <point x="194" y="520" type="curve" smooth="yes"/>
      <point x="167" y="520"/>
      <point x="147" y="513"/>
      <point x="146" y="471" type="curve"/>
      <point x="144" y="391"/>
      <point x="124" y="214"/>
    </contour>
  </outline>
</glyph>
<glyph name="percent" format="1">
  <advance width="1674"/>
  <unicode hex="0025"/>
  <outline>
    <contour>
      <point x="418" y="711" type="curve" smooth="yes" name="hr01"/>
      <point x="625" y="711"/>
      <point x="779" y="852"/>
      <point x="811" y="1076" type="curve" smooth="yes"/>
      <point x="843" y="1305"/>
      <point x="733" y="1449"/>
      <point x="526" y="1449" type="curve" smooth="yes" name="hr02"/>
      <point x="325" y="1449"/>
      <point x="173" y="1305"/>
      <point x="141" y="1076" type="curve" smooth="yes"/>
      <point x="109" y="852"/>
      <point x="217" y="711"/>
    </contour>
    <contour>
      <point x="431" y="788" type="curve" smooth="yes"/>
      <point x="305" y="788"/>
      <point x="272" y="882"/>
      <point x="300" y="1076" type="curve" smooth="yes"/>
      <point x="328" y="1274"/>
      <point x="385" y="1372"/>
      <point x="510" y="1372" type="curve" smooth="yes"/>
      <point x="635" y="1372"/>
      <point x="669" y="1274"/>
      <point x="641" y="1076" type="curve" smooth="yes" name="hr04"/>
      <point x="613" y="882"/>
      <point x="556" y="788"/>
    </contour>
    <contour>
      <point x="823" y="336" type="curve" smooth="yes" name="hr06"/>
      <point x="791" y="112"/>
      <point x="899" y="-29"/>
      <point x="1100" y="-29" type="curve" smooth="yes"/>
      <point x="1307" y="-29"/>
      <point x="1461" y="112"/>
      <point x="1493" y="336" type="curve" smooth="yes"/>
      <point x="1525" y="565"/>
      <point x="1415" y="709"/>
      <point x="1208" y="709" type="curve" smooth="yes"/>
      <point x="1007" y="709"/>
      <point x="855" y="565"/>
    </contour>
    <contour>
      <point x="982" y="336" type="curve" smooth="yes"/>
      <point x="1010" y="534"/>
      <point x="1067" y="632"/>
      <point x="1192" y="632" type="curve" smooth="yes"/>
      <point x="1317" y="632"/>
      <point x="1351" y="534"/>
      <point x="1323" y="336" type="curve" smooth="yes"/>
      <point x="1295" y="142"/>
      <point x="1238" y="48"/>
      <point x="1113" y="48" type="curve" smooth="yes"/>
      <point x="987" y="48"/>
      <point x="954" y="142"/>
    </contour>
    <component base="fraction" xOffset="520"/>
  </outline>
</glyph>
<glyph name="ampersand" format="1">
  <advance width="1455"/>
  <unicode hex="0026"/>
  <outline>
    <contour>
      <point x="616" y="838" type="line" name="hr00"/>
      <point x="562" y="915"/>
      <point x="525" y="1000"/>
      <point x="525" y="1094" type="curve" smooth="yes"/>
      <point x="525" y="1219"/>
      <point x="594" y="1371"/>
      <point x="734" y="1371" type="curve" smooth="yes"/>
      <point x="837" y="1371"/>
      <point x="880" y="1270"/>
      <point x="880" y="1195" type="curve" smooth="yes"/>
      <point x="880" y="1110"/>
      <point x="866" y="957"/>
      <point x="638" y="849" type="curve" smooth="yes"/>
    </contour>
    <contour>
      <point x="975" y="292" type="curve"/>
      <point x="964" y="278"/>
      <point x="959" y="260"/>
      <point x="959" y="244" type="curve" smooth="yes"/>
      <point x="959" y="221"/>
      <point x="969" y="202"/>
      <point x="989" y="202" type="curve" smooth="yes"/>
      <point x="999" y="202"/>
      <point x="1010" y="205"/>
      <point x="1024" y="216" type="curve"/>
      <point x="1231" y="452"/>
      <point x="1236" y="642"/>
      <point x="1300" y="741" type="curve"/>
      <point x="1341" y="792"/>
      <point x="1378" y="818"/>
      <point x="1446" y="818" type="curve" smooth="yes"/>
      <point x="1468" y="818"/>
      <point x="1482" y="831"/>
      <point x="1487" y="855" type="curve"/>
      <point x="1490" y="875"/>
      <point x="1483" y="896"/>
      <point x="1460" y="896" type="curve" smooth="yes"/>
      <point x="1067" y="896" type="line" smooth="yes"/>
      <point x="1044" y="896"/>
      <point x="1029" y="875"/>
      <point x="1026" y="855" type="curve" smooth="yes"/>
      <point x="1022" y="834"/>
      <point x="1025" y="821"/>
      <point x="1049" y="818" type="curve" smooth="yes"/>
      <point x="1091" y="814"/>
      <point x="1162" y="802"/>
      <point x="1155" y="748" type="curve" smooth="yes"/>
      <point x="1153" y="733"/>
      <point x="1150" y="499"/>
    </contour>
    <contour>
      <point x="877" y="198" type="curve"/>
      <point x="737" y="99"/>
      <point x="626" y="91"/>
      <point x="527" y="91" type="curve" smooth="yes"/>
      <point x="324" y="91"/>
      <point x="237" y="226"/>
      <point x="237" y="350" type="curve" smooth="yes"/>
      <point x="237" y="519"/>
      <point x="337" y="595"/>
      <point x="474" y="688" type="curve"/>
      <point x="967" y="0" type="line"/>
      <point x="1283" y="0" type="line" smooth="yes"/>
      <point x="1305" y="0"/>
      <point x="1320" y="21"/>
      <point x="1324" y="41" type="curve" smooth="yes"/>
      <point x="1329" y="71"/>
      <point x="1322" y="75"/>
      <point x="1295" y="78" type="curve" smooth="yes"/>
      <point x="1234" y="86"/>
      <point x="1135" y="111"/>
      <point x="1096" y="162" type="curve" smooth="yes"/>
      <point x="869" y="458"/>
      <point x="727" y="674"/>
      <point x="655" y="780" type="curve"/>
      <point x="667" y="787"/>
      <point x="681" y="795"/>
      <point x="695" y="802" type="curve" smooth="yes"/>
      <point x="844" y="874"/>
      <point x="1052" y="978"/>
      <point x="1052" y="1209" type="curve" smooth="yes"/>
      <point x="1052" y="1350"/>
      <point x="952" y="1448"/>
      <point x="764" y="1448" type="curve" smooth="yes"/>
      <point x="460" y="1448"/>
      <point x="327" y="1268"/>
      <point x="327" y="1070" type="curve" smooth="yes"/>
      <point x="327" y="963"/>
      <point x="375" y="854"/>
      <point x="429" y="758" type="curve"/>
      <point x="219" y="647"/>
      <point x="36" y="519"/>
      <point x="36" y="304" type="curve" smooth="yes"/>
      <point x="36" y="108"/>
      <point x="201" y="-29"/>
      <point x="496" y="-29" type="curve" smooth="yes"/>
      <point x="659" y="-29"/>
      <point x="827" y="41"/>
      <point x="925" y="127" type="curve"/>
      <point x="934" y="133"/>
      <point x="938" y="142"/>
      <point x="938" y="153" type="curve" smooth="yes"/>
      <point x="938" y="185"/>
      <point x="903" y="227"/>
    </contour>
  </outline>
</glyph>
<glyph name="quotesingle" format="1">
  <advance width="441"/>
  <unicode hex="0027"/>
  <outline>
    <contour>
      <point x="217" y="967" type="curve" name="hr00"/>
      <point x="277" y="967" type="line"/>
      <point x="330" y="1154"/>
      <point x="443" y="1475"/>
      <point x="452" y="1542" type="curve" smooth="yes"/>
      <point x="463" y="1620"/>
      <point x="434" y="1681"/>
      <point x="361" y="1681" type="curve" smooth="yes"/>
      <point x="287" y="1681"/>
      <point x="241" y="1620"/>
      <point x="230" y="1542" type="curve" smooth="yes"/>
      <point x="221" y="1475"/>
      <point x="218" y="1154"/>
    </contour>
  </outline>
</glyph>
<glyph name="parenleft" format="1">
  <advance width="768"/>
  <unicode hex="0028"/>
  <outline>
    <contour>
      <point x="97" y="522" type="curve" smooth="yes" name="hr01"/>
      <point x="64" y="-19"/>
      <point x="299" y="-299"/>
      <point x="518" y="-340" type="curve"/>
      <point x="533" y="-257" type="line"/>
      <point x="422" y="-199"/>
      <point x="262" y="-75"/>
      <point x="297" y="538" type="curve" smooth="yes"/>
      <point x="329" y="1051"/>
      <point x="581" y="1498"/>
      <point x="863" y="1463" type="curve"/>
      <point x="899" y="1550" type="line" name="hr02"/>
      <point x="445" y="1601"/>
      <point x="132" y="1048"/>
    </contour>
  </outline>
</glyph>
<glyph name="asterisk" format="1">
  <advance width="967"/>
  <unicode hex="002A"/>
  <outline>
    <contour>
      <point x="293" y="620" type="curve" name="hr00" smooth="yes"/>
      <point x="325" y="620"/>
      <point x="361" y="640"/>
      <point x="389" y="673" type="curve" smooth="yes"/>
      <point x="413" y="702"/>
      <point x="506" y="904"/>
      <point x="537" y="951" type="curve"/>
      <point x="554" y="902"/>
      <point x="596" y="698"/>
      <point x="610" y="673" type="curve" smooth="yes"/>
      <point x="628" y="642"/>
      <point x="657" y="621"/>
      <point x="690" y="621" type="curve" smooth="yes"/>
      <point x="742" y="621"/>
      <point x="778" y="653"/>
      <point x="785" y="701" type="curve" smooth="yes"/>
      <point x="788" y="725"/>
      <point x="783" y="752"/>
      <point x="768" y="775" type="curve" smooth="yes"/>
      <point x="723" y="847"/>
      <point x="626" y="938"/>
      <point x="588" y="984" type="curve"/>
      <point x="629" y="994"/>
      <point x="817" y="1013"/>
      <point x="862" y="1026" type="curve" smooth="yes"/>
      <point x="913" y="1040"/>
      <point x="951" y="1071"/>
      <point x="958" y="1116" type="curve" smooth="yes"/>
      <point x="967" y="1181"/>
      <point x="923" y="1211"/>
      <point x="874" y="1211" type="curve" smooth="yes"/>
      <point x="862" y="1211"/>
      <point x="844" y="1208"/>
      <point x="830" y="1204" type="curve" smooth="yes"/>
      <point x="805" y="1196"/>
      <point x="639" y="1069"/>
      <point x="578" y="1039" type="curve"/>
      <point x="582" y="1057"/>
      <point x="592" y="1062"/>
      <point x="599" y="1084" type="curve" smooth="yes"/>
      <point x="614" y="1134"/>
      <point x="682" y="1308"/>
      <point x="686" y="1336" type="curve" smooth="yes"/>
      <point x="695" y="1400"/>
      <point x="671" y="1449"/>
      <point x="608" y="1449" type="curve" smooth="yes"/>
      <point x="543" y="1449"/>
      <point x="506" y="1400"/>
      <point x="497" y="1336" type="curve" smooth="yes"/>
      <point x="493" y="1308"/>
      <point x="520" y="1099"/>
      <point x="520" y="1040" type="curve"/>
      <point x="464" y="1069"/>
      <point x="338" y="1195"/>
      <point x="310" y="1204" type="curve" smooth="yes"/>
      <point x="295" y="1209"/>
      <point x="282" y="1211"/>
      <point x="268" y="1211" type="curve" smooth="yes"/>
      <point x="219" y="1211"/>
      <point x="166" y="1181"/>
      <point x="157" y="1118" type="curve" smooth="yes"/>
      <point x="150" y="1072"/>
      <point x="181" y="1041"/>
      <point x="225" y="1026" type="curve" smooth="yes"/>
      <point x="265" y="1013"/>
      <point x="459" y="994"/>
      <point x="494" y="984" type="curve"/>
      <point x="438" y="935"/>
      <point x="268" y="811"/>
      <point x="247" y="786" type="curve" smooth="yes"/>
      <point x="229" y="765"/>
      <point x="216" y="738"/>
      <point x="213" y="714" type="curve" smooth="yes"/>
      <point x="206" y="662"/>
      <point x="244" y="620"/>
    </contour>
  </outline>
</glyph>
<glyph name="plus" format="1">
  <advance width="1317"/>
  <unicode hex="002B"/>
  <outline>
    <contour>
      <point x="728" y="40" type="line" name="hr00"/>
      <point x="728" y="1027" type="line"/>
      <point x="582" y="1027" type="line"/>
      <point x="582" y="40" type="line"/>
    </contour>
    <contour>
      <point x="190" y="492" type="line"/>
      <point x="1117" y="492" type="line"/>
      <point x="1117" y="618" type="line"/>
      <point x="190" y="618" type="line"/>
    </contour>
  </outline>
</glyph>
<glyph name="comma" format="1">
  <advance width="552"/>
  <unicode hex="002C"/>
  <outline>
    <contour>
      <point x="90" y="107" type="curve" smooth="yes" name="hr00"/>
      <point x="90" y="0"/>
      <point x="170" y="-15"/>
      <point x="198" y="-15" type="curve" smooth="yes"/>
      <point x="198" y="-15"/>
      <point x="198" y="-24"/>
      <point x="197" y="-28" type="curve" smooth="yes"/>
      <point x="189" y="-84"/>
      <point x="148" y="-190"/>
      <point x="68" y="-271" type="curve" smooth="yes"/>
      <point x="48" y="-292"/>
      <point x="38" y="-307"/>
      <point x="38" y="-320" type="curve" smooth="yes"/>
      <point x="38" y="-339"/>
      <point x="65" y="-360"/>
      <point x="85" y="-360" type="curve" smooth="yes"/>
      <point x="95" y="-360"/>
      <point x="105" y="-357"/>
      <point x="113" y="-352" type="curve" smooth="yes"/>
      <point x="220" y="-282"/>
      <point x="372" y="-60"/>
      <point x="372" y="103" type="curve" smooth="yes"/>
      <point x="372" y="209"/>
      <point x="310" y="257"/>
      <point x="251" y="257" type="curve" smooth="yes"/>
      <point x="173" y="257"/>
      <point x="90" y="206"/>
    </contour>
  </outline>
</glyph>
<glyph name="hyphen" format="1">
  <advance width="766"/>
  <unicode hex="002D"/>
  <outline>
    <contour>
      <point x="84" y="496" type="line" name="hr00"/>
      <point x="640" y="496" type="line"/>
      <point x="658" y="622" type="line"/>
      <point x="102" y="622" type="line"/>
    </contour>
  </outline>
</glyph>
<glyph name="period" format="1">
  <advance width="552"/>
  <unicode hex="002E"/>
  <outline>
    <contour>
      <point x="103" y="112" type="curve" smooth="yes" name="hr00"/>
      <point x="103" y="40"/>
      <point x="137" y="-20"/>
      <point x="225" y="-20" type="curve" smooth="yes"/>
      <point x="304" y="-20"/>
      <point x="367" y="43"/>
      <point x="367" y="130" type="curve" smooth="yes"/>
      <point x="367" y="202"/>
      <point x="326" y="261"/>
      <point x="248" y="261" type="curve" smooth="yes"/>
      <point x="163" y="261"/>
      <point x="103" y="194"/>
    </contour>
  </outline>
</glyph>
<glyph name="slash" format="1">
  <advance width="960"/>
  <unicode hex="002F"/>
  <outline>
    <contour>
      <point x="-45" y="-340" type="line" name="hr00"/>
      <point x="90" y="-340" type="line"/>
      <point x="963" y="1547" type="line"/>
      <point x="826" y="1547" type="line"/>
    </contour>
  </outline>
</glyph>
<glyph name="zero" format="1">
  <advance width="1257"/>
  <unicode hex="0030"/>
  <outline>
    <contour>
      <point x="127" y="582" type="curve" name="hr00" smooth="yes"/>
      <point x="80" y="206"/>
      <point x="229" y="-29"/>
      <point x="535" y="-29" type="curve" smooth="yes"/>
      <point x="841" y="-29"/>
      <point x="1050" y="206"/>
      <point x="1097" y="582" type="curve" smooth="yes"/>
      <point x="1144" y="965"/>
      <point x="1000" y="1205"/>
      <point x="694" y="1205" type="curve" smooth="yes"/>
      <point x="388" y="1205"/>
      <point x="174" y="965"/>
    </contour>
    <contour>
      <point x="550" y="66" type="curve" smooth="yes"/>
      <point x="340" y="66"/>
      <point x="299" y="234"/>
      <point x="342" y="582" type="curve" smooth="yes"/>
      <point x="386" y="936"/>
      <point x="465" y="1110"/>
      <point x="675" y="1110" type="curve" smooth="yes"/>
      <point x="884" y="1110"/>
      <point x="924" y="936"/>
      <point x="880" y="582" type="curve" smooth="yes"/>
      <point x="837" y="234"/>
      <point x="759" y="66"/>
    </contour>
  </outline>
</glyph>
<glyph name="one" format="1">
  <advance width="880"/>
  <unicode hex="0031"/>
  <outline>
    <contour>
      <point x="77" y="41" type="curve" smooth="yes" name="hr00"/>
      <point x="76" y="26"/>
      <point x="86" y="0"/>
      <point x="109" y="0" type="curve" smooth="yes"/>
      <point x="685" y="0" type="line" smooth="yes"/>
      <point x="708" y="0"/>
      <point x="720" y="26"/>
      <point x="721" y="41" type="curve" smooth="yes"/>
      <point x="723" y="71"/>
      <point x="716" y="75"/>
      <point x="688" y="78" type="curve" smooth="yes"/>
      <point x="628" y="83"/>
      <point x="507" y="89"/>
      <point x="515" y="165" type="curve" smooth="yes"/>
      <point x="621" y="1189" type="line"/>
      <point x="552" y="1189" type="line"/>
      <point x="453" y="1116"/>
      <point x="245" y="1067"/>
      <point x="183" y="1062" type="curve" smooth="yes"/>
      <point x="155" y="1059"/>
      <point x="144" y="1035"/>
      <point x="142" y="1005" type="curve" smooth="yes"/>
      <point x="141" y="990"/>
      <point x="150" y="974"/>
      <point x="173" y="974" type="curve" smooth="yes"/>
      <point x="218" y="974"/>
      <point x="343" y="985"/>
      <point x="401" y="994" type="curve"/>
      <point x="310" y="152" type="line" smooth="yes"/>
      <point x="306" y="108"/>
      <point x="178" y="83"/>
      <point x="113" y="78" type="curve"/>
      <point x="87" y="75"/>
      <point x="78" y="62"/>
    </contour>
  </outline>
</glyph>
<glyph name="two" format="1">
  <advance width="1144"/>
  <unicode hex="0032"/>
  <outline>
    <contour>
      <point x="81" y="0" type="line" name="hr00"/>
      <point x="988" y="0" type="line"/>
      <point x="1012" y="165" type="line"/>
      <point x="378" y="165" type="line"/>
      <point x="658" y="350"/>
      <point x="983" y="594"/>
      <point x="1006" y="851" type="curve" smooth="yes"/>
      <point x="1026" y="1079"/>
      <point x="870" y="1205"/>
      <point x="604" y="1205" type="curve" smooth="yes"/>
      <point x="380" y="1205"/>
      <point x="213" y="1077"/>
      <point x="162" y="957" type="curve" smooth="yes"/>
      <point x="96" y="803"/>
      <point x="224" y="774"/>
      <point x="269" y="774" type="curve" smooth="yes"/>
      <point x="309" y="774"/>
      <point x="326" y="798"/>
      <point x="338" y="838" type="curve" smooth="yes"/>
      <point x="401" y="1033" type="line"/>
      <point x="422" y="1055"/>
      <point x="444" y="1104"/>
      <point x="593" y="1104" type="curve" smooth="yes"/>
      <point x="783" y="1104"/>
      <point x="805" y="951"/>
      <point x="797" y="850" type="curve" smooth="yes"/>
      <point x="773" y="587"/>
      <point x="419" y="285"/>
      <point x="87" y="75" type="curve"/>
    </contour>
  </outline>
</glyph>
<glyph name="three" format="1">
  <advance width="1130"/>
  <unicode hex="0033"/>
  <outline>
    <contour>
      <point x="-66" y="-169" type="curve" smooth="yes" name="hr01"/>
      <point x="-66" y="-386"/>
      <point x="161" y="-495"/>
      <point x="352" y="-495" type="curve" smooth="yes"/>
      <point x="745" y="-495"/>
      <point x="966" y="-265"/>
      <point x="961" y="6" type="curve" smooth="yes"/>
      <point x="957" y="227"/>
      <point x="728" y="343"/>
      <point x="610" y="355" type="curve"/>
      <point x="829" y="413"/>
      <point x="1009" y="587"/>
      <point x="997" y="807" type="curve" smooth="yes" name="hr02"/>
      <point x="988" y="988"/>
      <point x="843" y="1104"/>
      <point x="630" y="1104" type="curve" smooth="yes"/>
      <point x="401" y="1104"/>
      <point x="221" y="976"/>
      <point x="165" y="856" type="curve" smooth="yes"/>
      <point x="146" y="817"/>
      <point x="140" y="786"/>
      <point x="141" y="762" type="curve" smooth="yes"/>
      <point x="144" y="689"/>
      <point x="218" y="673"/>
      <point x="252" y="673" type="curve" smooth="yes"/>
      <point x="292" y="673"/>
      <point x="309" y="697"/>
      <point x="325" y="737" type="curve" smooth="yes"/>
      <point x="398" y="932" type="line"/>
      <point x="418" y="954"/>
      <point x="473" y="1006"/>
      <point x="595" y="1006" type="curve" smooth="yes"/>
      <point x="744" y="1006"/>
      <point x="787" y="903"/>
      <point x="787" y="815" type="curve" smooth="yes"/>
      <point x="787" y="525"/>
      <point x="609" y="398"/>
      <point x="449" y="398" type="curve" smooth="yes"/>
      <point x="386" y="398" type="line"/>
      <point x="370" y="290" type="line"/>
      <point x="433" y="290" type="line" smooth="yes"/>
      <point x="582" y="290"/>
      <point x="741" y="235"/>
      <point x="752" y="16" type="curve" smooth="yes" name="hr03"/>
      <point x="764" y="-216"/>
      <point x="589" y="-400"/>
      <point x="349" y="-400" type="curve" smooth="yes"/>
      <point x="200" y="-400"/>
      <point x="116" y="-302"/>
      <point x="99" y="-243" type="curve"/>
      <point x="162" y="-30" type="line"/>
      <point x="161" y="15"/>
      <point x="114" y="41"/>
      <point x="79" y="41" type="curve" smooth="yes"/>
      <point x="-18" y="41"/>
      <point x="-66" y="-54"/>
    </contour>
  </outline>
</glyph>
<glyph name="four" format="1">
  <advance width="1157"/>
  <unicode hex="0034"/>
  <outline>
    <contour>
      <point x="604" y="-384" type="line" name="hr00"/>
      <point x="777" y="-384" type="line"/>
      <point x="891" y="576" type="line"/>
      <point x="771" y="576" type="line"/>
      <point x="715" y="536" type="line"/>
    </contour>
    <contour>
      <point x="1069" y="164" type="line"/>
      <point x="198" y="164" type="line"/>
      <point x="888" y="1151" type="line"/>
      <point x="890" y="1159"/>
      <point x="892" y="1170"/>
      <point x="892" y="1181" type="curve"/>
      <point x="889" y="1222"/>
      <point x="829" y="1260"/>
      <point x="756" y="1260" type="curve" smooth="yes"/>
      <point x="727" y="1260"/>
      <point x="700" y="1241"/>
      <point x="694" y="1229" type="curve"/>
      <point x="29" y="87" type="line"/>
      <point x="67" y="0" type="line"/>
      <point x="1052" y="0" type="line"/>
    </contour>
  </outline>
</glyph>
<glyph name="five" format="1">
  <advance width="1082"/>
  <unicode hex="0035"/>
  <outline>
    <contour>
      <point x="58" y="31" type="curve" smooth="yes" name="hr00"/>
      <point x="11" y="31"/>
      <point x="-66" y="-20"/>
      <point x="-58" y="-133" type="curve" smooth="yes"/>
      <point x="-46" y="-309"/>
      <point x="160" y="-392"/>
      <point x="318" y="-392" type="curve" smooth="yes"/>
      <point x="693" y="-392"/>
      <point x="946" y="-71"/>
      <point x="934" y="273" type="curve" smooth="yes"/>
      <point x="926" y="485"/>
      <point x="783" y="627"/>
      <point x="540" y="627" type="curve" smooth="yes"/>
      <point x="461" y="627"/>
      <point x="336" y="602"/>
      <point x="262" y="554" type="curve"/>
      <point x="374" y="1020" type="line"/>
      <point x="976" y="1020" type="line"/>
      <point x="997" y="1189" type="line"/>
      <point x="269" y="1189" type="line"/>
      <point x="101" y="413" type="line"/>
      <point x="165" y="380" type="line"/>
      <point x="239" y="477"/>
      <point x="378" y="516"/>
      <point x="482" y="516" type="curve" smooth="yes"/>
      <point x="601" y="516"/>
      <point x="707" y="423"/>
      <point x="713" y="262" type="curve" smooth="yes"/>
      <point x="723" y="-31"/>
      <point x="598" y="-300"/>
      <point x="313" y="-297" type="curve" smooth="yes"/>
      <point x="162" y="-295"/>
      <point x="154" y="-222"/>
      <point x="154" y="-222" type="curve"/>
      <point x="143" y="-189"/>
      <point x="130" y="-92"/>
      <point x="125" y="-44" type="curve" smooth="yes"/>
      <point x="124" y="4"/>
      <point x="110" y="31"/>
    </contour>
  </outline>
</glyph>
<glyph name="six" format="1">
  <advance width="1159"/>
  <unicode hex="0036"/>
  <outline>
    <contour>
      <point x="83" y="399" type="curve" name="hr00" smooth="yes"/>
      <point x="99" y="169"/>
      <point x="229" y="-29"/>
      <point x="504" y="-29" type="curve" smooth="yes"/>
      <point x="843" y="-29"/>
      <point x="1073" y="269"/>
      <point x="1049" y="602" type="curve" smooth="yes"/>
      <point x="1037" y="794"/>
      <point x="925" y="933"/>
      <point x="675" y="933" type="curve" smooth="yes"/>
      <point x="537" y="933"/>
      <point x="423" y="862"/>
      <point x="360" y="799" type="curve"/>
      <point x="433" y="1055"/>
      <point x="622" y="1340"/>
      <point x="1036" y="1437" type="curve"/>
      <point x="1048" y="1529" type="line"/>
      <point x="407" y="1413"/>
      <point x="47" y="891"/>
    </contour>
    <contour>
      <point x="325" y="670" type="curve" smooth="yes"/>
      <point x="393" y="743"/>
      <point x="506" y="815"/>
      <point x="634" y="815" type="curve" smooth="yes"/>
      <point x="761" y="815"/>
      <point x="824" y="731"/>
      <point x="833" y="598" type="curve" smooth="yes"/>
      <point x="852" y="327"/>
      <point x="750" y="66"/>
      <point x="521" y="66" type="curve" smooth="yes"/>
      <point x="359" y="66"/>
      <point x="293" y="151"/>
      <point x="282" y="297" type="curve" smooth="yes"/>
      <point x="274" y="424"/>
      <point x="297" y="553"/>
    </contour>
  </outline>
</glyph>
<glyph name="seven" format="1">
  <advance width="1017"/>
  <unicode hex="0037"/>
  <outline>
    <contour>
      <point x="103" y="-382" type="line" name="hr00"/>
      <point x="325" y="-383" type="line"/>
      <point x="1048" y="1122" type="line"/>
      <point x="1006" y="1189" type="line"/>
      <point x="169" y="1190" type="line"/>
      <point x="77" y="786" type="line"/>
      <point x="73" y="763"/>
      <point x="97" y="752"/>
      <point x="112" y="752" type="curve" smooth="yes"/>
      <point x="133" y="752"/>
      <point x="157" y="759"/>
      <point x="165" y="785" type="curve" smooth="yes"/>
      <point x="175" y="824"/>
      <point x="261" y="1028"/>
      <point x="383" y="1028" type="curve"/>
      <point x="879" y="1028" type="line"/>
    </contour>
  </outline>
</glyph>
<glyph name="eight" format="1">
  <advance width="1221"/>
  <unicode hex="0038"/>
  <outline>
    <contour>
      <point x="93" y="311" type="curve" smooth="yes" name="hr01"/>
      <point x="102" y="118"/>
      <point x="251" y="-29"/>
      <point x="558" y="-29" type="curve" smooth="yes"/>
      <point x="882" y="-29"/>
      <point x="1055" y="199"/>
      <point x="1043" y="412" type="curve" smooth="yes" name="hr02"/>
      <point x="1036" y="562"/>
      <point x="934" y="666"/>
      <point x="812" y="745" type="curve"/>
      <point x="956" y="816"/>
      <point x="1105" y="961"/>
      <point x="1094" y="1153" type="curve" smooth="yes" name="hr03"/>
      <point x="1085" y="1321"/>
      <point x="973" y="1449"/>
      <point x="705" y="1449" type="curve" smooth="yes"/>
      <point x="471" y="1449"/>
      <point x="252" y="1297"/>
      <point x="265" y="1055" type="curve" smooth="yes"/>
      <point x="271" y="922"/>
      <point x="334" y="833"/>
      <point x="420" y="751" type="curve"/>
      <point x="231" y="676"/>
      <point x="83" y="509"/>
    </contour>
    <contour>
      <point x="687" y="830" type="line" smooth="yes"/>
      <point x="555" y="905"/>
      <point x="470" y="989"/>
      <point x="466" y="1079" type="curve" smooth="yes" name="hr05"/>
      <point x="456" y="1260"/>
      <point x="563" y="1354"/>
      <point x="699" y="1354" type="curve" smooth="yes"/>
      <point x="844" y="1354"/>
      <point x="903" y="1267"/>
      <point x="909" y="1155" type="curve" smooth="yes"/>
      <point x="917" y="1021"/>
      <point x="857" y="858"/>
      <point x="735" y="793" type="curve"/>
    </contour>
    <contour>
      <point x="493" y="695" type="curve" smooth="yes" name="hr06"/>
      <point x="527" y="672"/>
      <point x="562" y="641"/>
      <point x="598" y="621" type="curve" smooth="yes"/>
      <point x="705" y="558"/>
      <point x="833" y="480"/>
      <point x="841" y="343" type="curve" smooth="yes"/>
      <point x="850" y="159"/>
      <point x="716" y="66"/>
      <point x="544" y="66" type="curve" smooth="yes"/>
      <point x="346" y="66"/>
      <point x="287" y="205"/>
      <point x="281" y="322" type="curve" smooth="yes"/>
      <point x="273" y="470"/>
      <point x="358" y="634"/>
    </contour>
  </outline>
</glyph>
<glyph name="nine" format="1">
  <advance width="1159"/>
  <unicode hex="0039"/>
  <outline>
    <contour>
      <point x="1050" y="777" type="curve" name="hr00"/>
      <point x="1034" y="1007"/>
      <point x="902" y="1205"/>
      <point x="627" y="1205" type="curve" smooth="yes"/>
      <point x="288" y="1205"/>
      <point x="60" y="907"/>
      <point x="81" y="574" type="curve" smooth="yes"/>
      <point x="96" y="382"/>
      <point x="206" y="243"/>
      <point x="456" y="243" type="curve" smooth="yes"/>
      <point x="594" y="243"/>
      <point x="708" y="314"/>
      <point x="773" y="377" type="curve"/>
      <point x="698" y="121"/>
      <point x="509" y="-164"/>
      <point x="95" y="-261" type="curve"/>
      <point x="85" y="-353" type="line"/>
      <point x="726" y="-237"/>
      <point x="1086" y="285"/>
    </contour>
    <contour>
      <point x="808" y="506" type="curve"/>
      <point x="740" y="433"/>
      <point x="625" y="361"/>
      <point x="497" y="361" type="curve" smooth="yes"/>
      <point x="370" y="361"/>
      <point x="309" y="445"/>
      <point x="298" y="578" type="curve" smooth="yes"/>
      <point x="281" y="849"/>
      <point x="381" y="1110"/>
      <point x="610" y="1110" type="curve" smooth="yes"/>
      <point x="772" y="1110"/>
      <point x="840" y="1025"/>
      <point x="849" y="879" type="curve" smooth="yes"/>
      <point x="857" y="752"/>
      <point x="836" y="623"/>
    </contour>
  </outline>
</glyph>
<glyph name="less" format="1">
  <advance width="1317"/>
  <unicode hex="003C"/>
  <outline>
    <contour>
      <point x="1105" y="1091" type="line" name="hr00"/>
      <point x="187" y="614" type="line"/>
      <point x="187" y="495" type="line"/>
      <point x="1105" y="20" type="line"/>
      <point x="1105" y="164" type="line"/>
      <point x="335" y="554" type="line"/>
      <point x="1105" y="945" type="line"/>
    </contour>
  </outline>
</glyph>
<glyph name="equal" format="1">
  <advance width="1317"/>
  <unicode hex="003D"/>
  <outline>
    <contour>
      <point x="190" y="693" type="line" name="hr00"/>
      <point x="1117" y="693" type="line"/>
      <point x="1117" y="839" type="line"/>
      <point x="190" y="839" type="line"/>
    </contour>
    <contour>
      <point x="190" y="269" type="line"/>
      <point x="1117" y="269" type="line"/>
      <point x="1117" y="415" type="line"/>
      <point x="190" y="415" type="line"/>
    </contour>
  </outline>
</glyph>
<glyph name="question" format="1">
  <advance width="980"/>
  <unicode hex="003F"/>
  <outline>
    <contour>
      <point x="365" y="377" type="line" name="hr00"/>
      <point x="477" y="377" type="line"/>
      <point x="495" y="492" type="line"/>
      <point x="520" y="740"/>
      <point x="939" y="856"/>
      <point x="981" y="1130" type="curve" smooth="yes"/>
      <point x="1013" y="1341"/>
      <point x="910" y="1528"/>
      <point x="607" y="1528" type="curve" smooth="yes"/>
      <point x="404" y="1528"/>
      <point x="248" y="1402"/>
      <point x="188" y="1284" type="curve" smooth="yes"/>
      <point x="110" y="1135"/>
      <point x="196" y="1049"/>
      <point x="251" y="1049" type="curve" smooth="yes"/>
      <point x="294" y="1049"/>
      <point x="320" y="1057"/>
      <point x="331" y="1087" type="curve"/>
      <point x="405" y="1347" type="line"/>
      <point x="405" y="1347"/>
      <point x="469" y="1443"/>
      <point x="597" y="1443" type="curve" smooth="yes"/>
      <point x="776" y="1443"/>
      <point x="781" y="1262"/>
      <point x="765" y="1137" type="curve" smooth="yes"/>
      <point x="731" y="888"/>
      <point x="430" y="847"/>
      <point x="384" y="502" type="curve"/>
    </contour>
    <contour>
      <point x="252" y="122" type="curve" smooth="yes"/>
      <point x="241" y="47"/>
      <point x="293" y="-20"/>
      <point x="372" y="-20" type="curve" smooth="yes"/>
      <point x="451" y="-20"/>
      <point x="522" y="47"/>
      <point x="533" y="122" type="curve" smooth="yes"/>
      <point x="543" y="197"/>
      <point x="490" y="257"/>
      <point x="411" y="257" type="curve" smooth="yes"/>
      <point x="332" y="257"/>
      <point x="262" y="197"/>
    </contour>
  </outline>
</glyph>
<glyph name="at" format="1">
  <advance width="1902"/>
  <unicode hex="0040"/>
  <outline>
    <contour>
      <point x="127" y="351" type="curve" name="hr00" smooth="yes"/>
      <point x="127" y="-148"/>
      <point x="531" y="-318"/>
      <point x="849" y="-318" type="curve" smooth="yes"/>
      <point x="1131" y="-318"/>
      <point x="1354" y="-190"/>
      <point x="1451" y="-92" type="curve"/>
      <point x="1410" y="-40" type="line"/>
      <point x="1410" y="-40"/>
      <point x="1238" y="-227"/>
      <point x="884" y="-227" type="curve" smooth="yes"/>
      <point x="685" y="-227"/>
      <point x="255" y="-147"/>
      <point x="255" y="351" type="curve" smooth="yes"/>
      <point x="255" y="860"/>
      <point x="619" y="1280"/>
      <point x="1141" y="1280" type="curve" smooth="yes"/>
      <point x="1411" y="1280"/>
      <point x="1677" y="1132"/>
      <point x="1677" y="807" type="curve" smooth="yes"/>
      <point x="1677" y="430"/>
      <point x="1375" y="201"/>
      <point x="1244" y="201" type="curve" smooth="yes"/>
      <point x="1185" y="201"/>
      <point x="1168" y="238"/>
      <point x="1168" y="279" type="curve" smooth="yes"/>
      <point x="1168" y="314"/>
      <point x="1181" y="352"/>
      <point x="1188" y="369" type="curve" smooth="yes"/>
      <point x="1431" y="956" type="line"/>
      <point x="1259" y="956" type="line"/>
      <point x="1216" y="838" type="line"/>
      <point x="1218" y="892"/>
      <point x="1160" y="983"/>
      <point x="1045" y="983" type="curve" smooth="yes"/>
      <point x="733" y="983"/>
      <point x="532" y="648"/>
      <point x="532" y="369" type="curve" smooth="yes"/>
      <point x="532" y="189"/>
      <point x="657" y="120"/>
      <point x="775" y="120" type="curve" smooth="yes"/>
      <point x="854" y="120"/>
      <point x="972" y="187"/>
      <point x="1011" y="259" type="curve"/>
      <point x="1013" y="190"/>
      <point x="1070" y="112"/>
      <point x="1213" y="112" type="curve" smooth="yes"/>
      <point x="1400" y="112"/>
      <point x="1780" y="360"/>
      <point x="1780" y="822" type="curve" smooth="yes"/>
      <point x="1780" y="1227"/>
      <point x="1458" y="1378"/>
      <point x="1161" y="1378" type="curve" smooth="yes"/>
      <point x="676" y="1378"/>
      <point x="127" y="1015"/>
    </contour>
    <contour>
      <point x="731" y="383" type="curve" smooth="yes"/>
      <point x="731" y="504"/>
      <point x="855" y="894"/>
      <point x="1059" y="894" type="curve" smooth="yes"/>
      <point x="1167" y="894"/>
      <point x="1162" y="787"/>
      <point x="1155" y="726" type="curve"/>
      <point x="1026" y="386" type="line" smooth="yes"/>
      <point x="1002" y="323"/>
      <point x="905" y="211"/>
      <point x="814" y="211" type="curve" smooth="yes"/>
      <point x="738" y="211"/>
      <point x="731" y="294"/>
    </contour>
  </outline>
</glyph>
<glyph name="A" format="1">
  <advance width="1374"/>
  <unicode hex="0041"/>
  <outline>
    <contour>
      <point x="973" y="132" type="line" name="hr00"/>
      <point x="987" y="85"/>
      <point x="919" y="93"/>
      <point x="827" y="88" type="curve"/>
      <point x="800" y="85"/>
      <point x="792" y="72"/>
      <point x="793" y="51" type="curve"/>
      <point x="791" y="36"/>
      <point x="801" y="0"/>
      <point x="824" y="0" type="curve" smooth="yes"/>
      <point x="1340" y="0" type="line" smooth="yes"/>
      <point x="1362" y="0"/>
      <point x="1375" y="36"/>
      <point x="1377" y="51" type="curve"/>
      <point x="1377" y="81"/>
      <point x="1369" y="85"/>
      <point x="1342" y="88" type="curve" smooth="yes"/>
      <point x="1294" y="93"/>
      <point x="1222" y="77"/>
      <point x="1198" y="165" type="curve"/>
      <point x="833" y="1472" type="line"/>
      <point x="797" y="1472" type="line"/>
      <point x="125" y="165" type="line"/>
      <point x="83" y="77"/>
      <point x="-11" y="93"/>
      <point x="-61" y="88" type="curve" smooth="yes"/>
      <point x="-89" y="85"/>
      <point x="-97" y="81"/>
      <point x="-97" y="51" type="curve"/>
      <point x="-99" y="36"/>
      <point x="-93" y="0"/>
      <point x="-71" y="0" type="curve" smooth="yes"/>
      <point x="382" y="0" type="line" smooth="yes"/>
      <point x="405" y="0"/>
      <point x="417" y="36"/>
      <point x="419" y="51" type="curve"/>
      <point x="418" y="72"/>
      <point x="412" y="85"/>
      <point x="387" y="88" type="curve"/>
      <point x="297" y="93"/>
      <point x="226" y="85"/>
      <point x="245" y="132" type="curve" smooth="yes"/>
      <point x="745" y="1126" type="line"/>
    </contour>
    <contour>
      <point x="357" y="447" type="line"/>
      <point x="933" y="447" type="line"/>
      <point x="929" y="535" type="line"/>
      <point x="383" y="535" type="line"/>
    </contour>
    <contour>
      <point x="655" y="-170" type="move" name="btm"/>
    </contour>
    <contour>
      <point x="826" y="1700" type="move" name="top"/>
    </contour>
  </outline>
</glyph>
<glyph name="B" format="1">
  <advance width="1339"/>
  <unicode hex="0042"/>
  <outline>
    <contour>
      <point x="26" y="51" type="curve" name="hr00"/>
      <point x="25" y="35"/>
      <point x="31" y="0"/>
      <point x="55" y="0" type="curve" smooth="yes"/>
      <point x="663" y="0" type="line" smooth="yes"/>
      <point x="1021" y="0"/>
      <point x="1244" y="178"/>
      <point x="1239" y="460" type="curve" smooth="yes"/>
      <point x="1236" y="678"/>
      <point x="1049" y="745"/>
      <point x="898" y="765" type="curve"/>
      <point x="1086" y="791"/>
      <point x="1257" y="963"/>
      <point x="1253" y="1134" type="curve" smooth="yes"/>
      <point x="1248" y="1355"/>
      <point x="1050" y="1419"/>
      <point x="760" y="1419" type="curve" smooth="yes"/>
      <point x="227" y="1419" type="line" smooth="yes"/>
      <point x="204" y="1419"/>
      <point x="187" y="1383"/>
      <point x="187" y="1368" type="curve"/>
      <point x="186" y="1363"/>
      <point x="186" y="1359"/>
      <point x="186" y="1355" type="curve" smooth="yes"/>
      <point x="185" y="1337"/>
      <point x="194" y="1333"/>
      <point x="217" y="1331" type="curve" smooth="yes"/>
      <point x="281" y="1326"/>
      <point x="366" y="1321"/>
      <point x="369" y="1248" type="curve" smooth="yes"/>
      <point x="369" y="1243"/>
      <point x="369" y="1239"/>
      <point x="368" y="1234" type="curve" smooth="yes"/>
      <point x="219" y="152" type="line" smooth="yes"/>
      <point x="214" y="107"/>
      <point x="137" y="94"/>
      <point x="62" y="88" type="curve" smooth="yes"/>
      <point x="35" y="86"/>
      <point x="26" y="71"/>
    </contour>
    <contour>
      <point x="433" y="715" type="line"/>
      <point x="677" y="715" type="line" smooth="yes"/>
      <point x="781" y="715"/>
      <point x="1015" y="696"/>
      <point x="1020" y="458" type="curve" smooth="yes"/>
      <point x="1027" y="131"/>
      <point x="811" y="96"/>
      <point x="623" y="96" type="curve" smooth="yes"/>
      <point x="574" y="96"/>
      <point x="415" y="100"/>
      <point x="413" y="133" type="curve"/>
      <point x="576" y="1331" type="line"/>
      <point x="697" y="1331" type="line" smooth="yes"/>
      <point x="905" y="1331"/>
      <point x="1033" y="1287"/>
      <point x="1037" y="1128" type="curve" smooth="yes"/>
      <point x="1043" y="854"/>
      <point x="816" y="801"/>
      <point x="686" y="801" type="curve" smooth="yes"/>
      <point x="439" y="801" type="line"/>
    </contour>
    <contour>
      <point x="642" y="-170" type="move" name="btm"/>
    </contour>
    <contour>
      <point x="822" y="1700" type="move" name="top"/>
    </contour>
  </outline>
</glyph>
<glyph name="C" format="1">
  <advance width="1315"/>
  <unicode hex="0043"/>
  <outline>
    <contour>
      <point x="754" y="-30" type="curve" smooth="yes" name="hr00"/>
      <point x="983" y="-30"/>
      <point x="1167" y="80"/>
      <point x="1176" y="108" type="curve"/>
      <point x="1203" y="372" type="line"/>
      <point x="1203" y="375" type="line" smooth="yes"/>
      <point x="1203" y="396"/>
      <point x="1150" y="406"/>
      <point x="1135" y="406" type="curve" smooth="yes"/>
      <point x="1113" y="406"/>
      <point x="1105" y="399"/>
      <point x="1095" y="373" type="curve"/>
      <point x="1046" y="200"/>
      <point x="952" y="65"/>
      <point x="734" y="65" type="curve" smooth="yes"/>
      <point x="432" y="65"/>
      <point x="368" y="372"/>
      <point x="360" y="597" type="curve" smooth="yes"/>
      <point x="340" y="1175"/>
      <point x="670" y="1353"/>
      <point x="892" y="1353" type="curve" smooth="yes"/>
      <point x="1092" y="1353"/>
      <point x="1178" y="1256"/>
      <point x="1175" y="1039" type="curve"/>
      <point x="1179" y="1017"/>
      <point x="1200" y="1010"/>
      <point x="1218" y="1010" type="curve" smooth="yes"/>
      <point x="1233" y="1010"/>
      <point x="1280" y="1020"/>
      <point x="1279" y="1051" type="curve"/>
      <point x="1307" y="1361" type="line"/>
      <point x="1245" y="1392"/>
      <point x="1137" y="1449"/>
      <point x="902" y="1449" type="curve" smooth="yes"/>
      <point x="551" y="1449"/>
      <point x="95" y="1173"/>
      <point x="113" y="609" type="curve" smooth="yes"/>
      <point x="126" y="189"/>
      <point x="354" y="-30"/>
    </contour>
    <contour>
      <point x="912" y="1700" type="move" name="top"/>
    </contour>
    <contour>
      <point x="681" y="-170" type="move" name="btm"/>
    </contour>
  </outline>
</glyph>
<glyph name="D" format="1">
  <advance width="1534"/>
  <unicode hex="0044"/>
  <outline>
    <contour>
      <point x="11" y="51" type="curve" name="hr00"/>
      <point x="8" y="36"/>
      <point x="17" y="0"/>
      <point x="40" y="0" type="curve" smooth="yes"/>
      <point x="613" y="0" type="line" smooth="yes"/>
      <point x="1173" y="0"/>
      <point x="1475" y="322"/>
      <point x="1475" y="824" type="curve" smooth="yes"/>
      <point x="1475" y="1095"/>
      <point x="1343" y="1419"/>
      <point x="732" y="1419" type="curve" smooth="yes"/>
      <point x="212" y="1419" type="line" smooth="yes"/>
      <point x="189" y="1419"/>
      <point x="171" y="1383"/>
      <point x="172" y="1368" type="curve"/>
      <point x="167" y="1338"/>
      <point x="173" y="1334"/>
      <point x="201" y="1331" type="curve" smooth="yes"/>
      <point x="261" y="1326"/>
      <point x="371" y="1320"/>
      <point x="362" y="1234" type="curve"/>
      <point x="220" y="152" type="line"/>
      <point x="216" y="108"/>
      <point x="112" y="93"/>
      <point x="47" y="88" type="curve"/>
      <point x="20" y="85"/>
      <point x="11" y="72"/>
    </contour>
    <contour>
      <point x="427" y="153" type="curve"/>
      <point x="580" y="1331" type="line"/>
      <point x="717" y="1331" type="line" smooth="yes"/>
      <point x="1072" y="1331"/>
      <point x="1245" y="1192"/>
      <point x="1245" y="827" type="curve" smooth="yes"/>
      <point x="1245" y="318"/>
      <point x="1025" y="101"/>
      <point x="655" y="101" type="curve" smooth="yes"/>
      <point x="506" y="101"/>
      <point x="439" y="115"/>
    </contour>
    <contour>
      <point x="784" y="-170" type="move" name="btm"/>
    </contour>
    <contour>
      <point x="891" y="1700" type="move" name="top"/>
    </contour>
  </outline>
</glyph>
<glyph name="E" format="1">
  <advance width="1338"/>
  <unicode hex="0045"/>
  <outline>
    <contour>
      <point x="408" y="687" type="line" name="hr00"/>
      <point x="773" y="687" type="line" smooth="yes"/>
      <point x="829" y="687"/>
      <point x="844" y="546"/>
      <point x="845" y="503" type="curve"/>
      <point x="843" y="477"/>
      <point x="874" y="470"/>
      <point x="895" y="470" type="curve" smooth="yes"/>
      <point x="910" y="470"/>
      <point x="938" y="481"/>
      <point x="942" y="504" type="curve"/>
      <point x="992" y="947" type="line"/>
      <point x="996" y="970"/>
      <point x="968" y="981"/>
      <point x="953" y="981" type="curve" smooth="yes"/>
      <point x="932" y="981"/>
      <point x="903" y="974"/>
      <point x="899" y="948" type="curve"/>
      <point x="890" y="908"/>
      <point x="840" y="780"/>
      <point x="787" y="773" type="curve"/>
      <point x="408" y="773" type="line"/>
    </contour>
    <contour>
      <point x="588" y="1331" type="line"/>
      <point x="991" y="1331" type="line" smooth="yes"/>
      <point x="1129" y="1331"/>
      <point x="1161" y="1136"/>
      <point x="1159" y="1095" type="curve"/>
      <point x="1161" y="1069"/>
      <point x="1181" y="1062"/>
      <point x="1202" y="1062" type="curve" smooth="yes"/>
      <point x="1217" y="1062"/>
      <point x="1244" y="1073"/>
      <point x="1245" y="1096" type="curve" smooth="yes"/>
      <point x="1259" y="1419" type="line"/>
      <point x="220" y="1419" type="line" smooth="yes"/>
      <point x="197" y="1419"/>
      <point x="179" y="1383"/>
      <point x="180" y="1368" type="curve"/>
      <point x="175" y="1338"/>
      <point x="181" y="1334"/>
      <point x="209" y="1331" type="curve" smooth="yes"/>
      <point x="269" y="1326"/>
      <point x="379" y="1320"/>
      <point x="370" y="1234" type="curve"/>
      <point x="220" y="152" type="line"/>
      <point x="216" y="108"/>
      <point x="112" y="93"/>
      <point x="47" y="88" type="curve"/>
      <point x="22" y="85"/>
      <point x="13" y="72"/>
      <point x="13" y="51" type="curve"/>
      <point x="10" y="36"/>
      <point x="17" y="0"/>
      <point x="40" y="0" type="curve" smooth="yes"/>
      <point x="1169" y="0" type="line"/>
      <point x="1264" y="372" type="line"/>
      <point x="1265" y="395"/>
      <point x="1248" y="406"/>
      <point x="1223" y="406" type="curve" smooth="yes"/>
      <point x="1202" y="406"/>
      <point x="1183" y="398"/>
      <point x="1174" y="373" type="curve"/>
      <point x="1161" y="332"/>
      <point x="1056" y="97"/>
      <point x="892" y="97" type="curve" smooth="yes"/>
      <point x="511" y="97" type="line"/>
      <point x="467" y="101"/>
      <point x="422" y="120"/>
      <point x="432" y="193" type="curve"/>
    </contour>
    <contour>
      <point x="845" y="1700" type="move" name="top"/>
    </contour>
    <contour>
      <point x="652" y="-170" type="move" name="btm"/>
    </contour>
  </outline>
</glyph>
<glyph name="F" format="1">
  <advance width="1227"/>
  <unicode hex="0046"/>
  <outline>
    <contour>
      <point x="384" y="655" type="line" name="hr00"/>
      <point x="750" y="655" type="line" smooth="yes"/>
      <point x="806" y="655"/>
      <point x="823" y="514"/>
      <point x="820" y="471" type="curve"/>
      <point x="822" y="445"/>
      <point x="848" y="438"/>
      <point x="869" y="438" type="curve" smooth="yes"/>
      <point x="884" y="438"/>
      <point x="919" y="449"/>
      <point x="919" y="472" type="curve"/>
      <point x="969" y="915" type="line"/>
      <point x="970" y="938"/>
      <point x="946" y="949"/>
      <point x="931" y="949" type="curve" smooth="yes"/>
      <point x="910" y="949"/>
      <point x="881" y="942"/>
      <point x="877" y="916" type="curve"/>
      <point x="864" y="876"/>
      <point x="818" y="748"/>
      <point x="768" y="741" type="curve"/>
      <point x="386" y="741" type="line"/>
    </contour>
    <contour>
      <point x="595" y="1332" type="line"/>
      <point x="974" y="1332" type="line" smooth="yes"/>
      <point x="1112" y="1332"/>
      <point x="1150" y="1108"/>
      <point x="1152" y="1069" type="curve"/>
      <point x="1149" y="1043"/>
      <point x="1167" y="1036"/>
      <point x="1188" y="1036" type="curve" smooth="yes"/>
      <point x="1203" y="1036"/>
      <point x="1231" y="1047"/>
      <point x="1236" y="1070" type="curve"/>
      <point x="1242" y="1419" type="line"/>
      <point x="228" y="1419" type="line" smooth="yes"/>
      <point x="205" y="1419"/>
      <point x="187" y="1383"/>
      <point x="188" y="1368" type="curve"/>
      <point x="183" y="1338"/>
      <point x="189" y="1334"/>
      <point x="217" y="1331" type="curve"/>
      <point x="289" y="1326"/>
      <point x="387" y="1320"/>
      <point x="378" y="1234" type="curve"/>
      <point x="220" y="152" type="line"/>
      <point x="216" y="108"/>
      <point x="127" y="93"/>
      <point x="47" y="88" type="curve"/>
      <point x="22" y="85"/>
      <point x="13" y="72"/>
      <point x="13" y="51" type="curve"/>
      <point x="10" y="36"/>
      <point x="17" y="0"/>
      <point x="40" y="0" type="curve" smooth="yes"/>
      <point x="672" y="0" type="line" smooth="yes"/>
      <point x="695" y="0"/>
      <point x="701" y="36"/>
      <point x="704" y="51" type="curve"/>
      <point x="706" y="81"/>
      <point x="693" y="88"/>
      <point x="671" y="88" type="curve" smooth="yes"/>
      <point x="586" y="88"/>
      <point x="423" y="111"/>
      <point x="432" y="197" type="curve"/>
    </contour>
    <contour>
      <point x="824" y="1700" type="move" name="top"/>
    </contour>
    <contour>
      <point x="640" y="-170" type="move" name="btm"/>
    </contour>
  </outline>
</glyph>
<glyph name="G" format="1">
  <advance width="1485"/>
  <unicode hex="0047"/>
  <outline>
    <contour>
      <point x="732" y="-30" type="curve" name="hr00" smooth="yes"/>
      <point x="1008" y="-30"/>
      <point x="1206" y="79"/>
      <point x="1235" y="123" type="curve"/>
      <point x="1280" y="489" type="line"/>
      <point x="1284" y="533"/>
      <point x="1345" y="548"/>
      <point x="1404" y="553" type="curve" smooth="yes"/>
      <point x="1435" y="556"/>
      <point x="1443" y="576"/>
      <point x="1442" y="603" type="curve" smooth="yes"/>
      <point x="1442" y="620"/>
      <point x="1432" y="641"/>
      <point x="1415" y="641" type="curve" smooth="yes"/>
      <point x="903" y="641" type="line" smooth="yes"/>
      <point x="861" y="641"/>
      <point x="865" y="569"/>
      <point x="860" y="574" type="curve"/>
      <point x="863" y="559"/>
      <point x="872" y="554"/>
      <point x="893" y="553" type="curve"/>
      <point x="964" y="547"/>
      <point x="1066" y="543"/>
      <point x="1071" y="475" type="curve"/>
      <point x="1027" y="170" type="line"/>
      <point x="1007" y="129"/>
      <point x="919" y="65"/>
      <point x="711" y="65" type="curve" smooth="yes"/>
      <point x="517" y="65"/>
      <point x="336" y="260"/>
      <point x="336" y="648" type="curve" smooth="yes"/>
      <point x="339" y="973"/>
      <point x="515" y="1353"/>
      <point x="911" y="1353" type="curve" smooth="yes"/>
      <point x="1138" y="1353"/>
      <point x="1235" y="1216"/>
      <point x="1248" y="1039" type="curve" smooth="yes"/>
      <point x="1248" y="1035" type="line"/>
      <point x="1252" y="1016"/>
      <point x="1265" y="1010"/>
      <point x="1282" y="1010" type="curve" smooth="yes"/>
      <point x="1298" y="1010"/>
      <point x="1339" y="1020"/>
      <point x="1338" y="1051" type="curve"/>
      <point x="1377" y="1361" type="line"/>
      <point x="1309" y="1392"/>
      <point x="1166" y="1449"/>
      <point x="913" y="1449" type="curve" smooth="yes"/>
      <point x="549" y="1449"/>
      <point x="97" y="1178"/>
      <point x="96" y="651" type="curve" smooth="yes"/>
      <point x="96" y="177"/>
      <point x="400" y="-30"/>
    </contour>
    <contour>
      <point x="814" y="-170" type="move" name="btm"/>
    </contour>
    <contour>
      <point x="957" y="1700" type="move" name="top"/>
    </contour>
  </outline>
</glyph>
<glyph name="H" format="1">
  <advance width="1669"/>
  <unicode hex="0048"/>
  <outline>
    <contour>
      <point x="1147" y="152" type="line" name="hr00"/>
      <point x="1142" y="108"/>
      <point x="1059" y="93"/>
      <point x="994" y="88" type="curve"/>
      <point x="967" y="85"/>
      <point x="959" y="72"/>
      <point x="957" y="51" type="curve" smooth="yes"/>
      <point x="955" y="36"/>
      <point x="966" y="0"/>
      <point x="989" y="0" type="curve" smooth="yes"/>
      <point x="1494" y="0" type="line" smooth="yes"/>
      <point x="1517" y="0"/>
      <point x="1528" y="36"/>
      <point x="1530" y="51" type="curve" smooth="yes"/>
      <point x="1533" y="81"/>
      <point x="1525" y="85"/>
      <point x="1498" y="88" type="curve" smooth="yes"/>
      <point x="1438" y="93"/>
      <point x="1347" y="99"/>
      <point x="1358" y="185" type="curve" smooth="yes"/>
      <point x="1516" y="1267" type="line"/>
      <point x="1521" y="1311"/>
      <point x="1604" y="1326"/>
      <point x="1668" y="1331" type="curve"/>
      <point x="1694" y="1334"/>
      <point x="1703" y="1347"/>
      <point x="1706" y="1368" type="curve"/>
      <point x="1707" y="1383"/>
      <point x="1701" y="1419"/>
      <point x="1678" y="1419" type="curve" smooth="yes"/>
      <point x="1173" y="1419" type="line" smooth="yes"/>
      <point x="1150" y="1419"/>
      <point x="1134" y="1383"/>
      <point x="1133" y="1368" type="curve"/>
      <point x="1129" y="1338"/>
      <point x="1136" y="1334"/>
      <point x="1164" y="1331" type="curve" smooth="yes"/>
      <point x="1225" y="1326"/>
      <point x="1315" y="1320"/>
      <point x="1304" y="1234" type="curve"/>
    </contour>
    <contour>
      <point x="1341" y="773" type="line"/>
      <point x="403" y="773" type="line"/>
      <point x="397" y="687" type="line"/>
      <point x="1319" y="687" type="line"/>
    </contour>
    <contour>
      <point x="591" y="1267" type="line"/>
      <point x="596" y="1311"/>
      <point x="679" y="1326"/>
      <point x="743" y="1331" type="curve"/>
      <point x="769" y="1334"/>
      <point x="778" y="1347"/>
      <point x="781" y="1368" type="curve"/>
      <point x="782" y="1383"/>
      <point x="776" y="1419"/>
      <point x="753" y="1419" type="curve" smooth="yes"/>
      <point x="258" y="1419" type="line" smooth="yes"/>
      <point x="235" y="1419"/>
      <point x="219" y="1383"/>
      <point x="218" y="1368" type="curve"/>
      <point x="214" y="1338"/>
      <point x="221" y="1334"/>
      <point x="249" y="1331" type="curve" smooth="yes"/>
      <point x="310" y="1326"/>
      <point x="390" y="1320"/>
      <point x="379" y="1234" type="curve" smooth="yes"/>
      <point x="222" y="152" type="line"/>
      <point x="217" y="108"/>
      <point x="144" y="93"/>
      <point x="79" y="88" type="curve"/>
      <point x="52" y="85"/>
      <point x="44" y="72"/>
      <point x="42" y="51" type="curve" smooth="yes"/>
      <point x="40" y="36"/>
      <point x="51" y="0"/>
      <point x="74" y="0" type="curve" smooth="yes"/>
      <point x="569" y="0" type="line" smooth="yes"/>
      <point x="592" y="0"/>
      <point x="603" y="36"/>
      <point x="605" y="51" type="curve" smooth="yes"/>
      <point x="608" y="81"/>
      <point x="600" y="85"/>
      <point x="573" y="88" type="curve" smooth="yes"/>
      <point x="513" y="93"/>
      <point x="422" y="99"/>
      <point x="433" y="185" type="curve" smooth="yes"/>
    </contour>
    <contour>
      <point x="888" y="-170" type="move" name="btm"/>
    </contour>
    <contour>
      <point x="1005" y="1700" type="move" name="top"/>
    </contour>
  </outline>
</glyph>
<glyph name="I" format="1">
  <advance width="798"/>
  <unicode hex="0049"/>
  <outline>
    <contour>
      <point x="65" y="51" type="curve" smooth="yes" name="hr00"/>
      <point x="63" y="36"/>
      <point x="67" y="0"/>
      <point x="90" y="0" type="curve" smooth="yes"/>
      <point x="595" y="0" type="line" smooth="yes"/>
      <point x="618" y="0"/>
      <point x="634" y="36"/>
      <point x="636" y="51" type="curve" smooth="yes"/>
      <point x="640" y="81"/>
      <point x="632" y="85"/>
      <point x="605" y="88" type="curve" smooth="yes"/>
      <point x="545" y="93"/>
      <point x="454" y="99"/>
      <point x="467" y="185" type="curve" smooth="yes"/>
      <point x="614" y="1267" type="line" smooth="yes"/>
      <point x="624" y="1311"/>
      <point x="705" y="1326"/>
      <point x="770" y="1331" type="curve" smooth="yes"/>
      <point x="796" y="1334"/>
      <point x="807" y="1347"/>
      <point x="810" y="1368" type="curve" smooth="yes"/>
      <point x="810" y="1383"/>
      <point x="808" y="1419"/>
      <point x="785" y="1419" type="curve" smooth="yes"/>
      <point x="280" y="1419" type="line" smooth="yes"/>
      <point x="257" y="1419"/>
      <point x="237" y="1383"/>
      <point x="237" y="1368" type="curve" smooth="yes"/>
      <point x="231" y="1338"/>
      <point x="238" y="1334"/>
      <point x="266" y="1331" type="curve" smooth="yes"/>
      <point x="326" y="1326"/>
      <point x="416" y="1320"/>
      <point x="404" y="1234" type="curve" smooth="yes"/>
      <point x="255" y="152" type="line" smooth="yes"/>
      <point x="251" y="108"/>
      <point x="166" y="93"/>
      <point x="101" y="88" type="curve" smooth="yes"/>
      <point x="75" y="85"/>
      <point x="66" y="72"/>
    </contour>
    <contour>
      <point x="569" y="1700" type="move" name="top"/>
    </contour>
    <contour>
      <point x="466" y="-170" type="move" name="btm"/>
    </contour>
  </outline>
</glyph>
<glyph name="J" format="1">
  <advance width="1060"/>
  <unicode hex="004A"/>
  <outline>
    <contour>
      <point x="399" y="-30" type="curve" smooth="yes" name="hr01"/>
      <point x="599" y="-30"/>
      <point x="832" y="48"/>
      <point x="880" y="439" type="curve" smooth="yes"/>
      <point x="988" y="1267" type="line" smooth="yes"/>
      <point x="995" y="1311"/>
      <point x="1092" y="1325"/>
      <point x="1152" y="1331" type="curve" smooth="yes"/>
      <point x="1178" y="1333"/>
      <point x="1192" y="1350"/>
      <point x="1192" y="1372" type="curve" smooth="yes"/>
      <point x="1190" y="1389"/>
      <point x="1185" y="1419"/>
      <point x="1164" y="1419" type="curve" smooth="yes"/>
      <point x="619" y="1419" type="line" smooth="yes"/>
      <point x="596" y="1419"/>
      <point x="578" y="1383"/>
      <point x="579" y="1368" type="curve" smooth="yes"/>
      <point x="578" y="1362"/>
      <point x="577" y="1357"/>
      <point x="577" y="1352" type="curve" smooth="yes"/>
      <point x="577" y="1337"/>
      <point x="586" y="1333"/>
      <point x="608" y="1331" type="curve" smooth="yes"/>
      <point x="676" y="1326"/>
      <point x="787" y="1320"/>
      <point x="780" y="1248" type="curve" smooth="yes"/>
      <point x="667" y="406" type="line" smooth="yes"/>
      <point x="638" y="161"/>
      <point x="541" y="59"/>
      <point x="400" y="59" type="curve" smooth="yes"/>
      <point x="331" y="59"/>
      <point x="279" y="82"/>
      <point x="245" y="113" type="curve"/>
      <point x="282" y="378" type="line"/>
      <point x="282" y="418"/>
      <point x="237" y="433"/>
      <point x="213" y="433" type="curve" smooth="yes"/>
      <point x="152" y="433"/>
      <point x="45" y="397"/>
      <point x="45" y="260" type="curve" smooth="yes"/>
      <point x="45" y="69"/>
      <point x="217" y="-30"/>
    </contour>
    <contour>
      <point x="915" y="1700" type="move" name="top"/>
    </contour>
    <contour>
      <point x="639" y="-170" type="move" name="btm"/>
    </contour>
  </outline>
</glyph>
<glyph name="K" format="1">
  <advance width="1422"/>
  <unicode hex="004B"/>
  <outline>
    <contour>
      <point x="45" y="51" type="curve" name="hr00" smooth="yes"/>
      <point x="42" y="36"/>
      <point x="51" y="0"/>
      <point x="74" y="0" type="curve" smooth="yes"/>
      <point x="569" y="0" type="line" smooth="yes"/>
      <point x="592" y="0"/>
      <point x="605" y="36"/>
      <point x="608" y="51" type="curve" smooth="yes"/>
      <point x="610" y="81"/>
      <point x="602" y="85"/>
      <point x="575" y="88" type="curve" smooth="yes"/>
      <point x="515" y="93"/>
      <point x="421" y="99"/>
      <point x="430" y="185" type="curve" smooth="yes"/>
      <point x="580" y="1267" type="line" smooth="yes"/>
      <point x="588" y="1311"/>
      <point x="658" y="1326"/>
      <point x="723" y="1331" type="curve"/>
      <point x="749" y="1334"/>
      <point x="759" y="1347"/>
      <point x="763" y="1368" type="curve" smooth="yes"/>
      <point x="762" y="1383"/>
      <point x="758" y="1419"/>
      <point x="735" y="1419" type="curve" smooth="yes"/>
      <point x="240" y="1419" type="line" smooth="yes"/>
      <point x="217" y="1419"/>
      <point x="199" y="1383"/>
      <point x="200" y="1368" type="curve" smooth="yes"/>
      <point x="195" y="1338"/>
      <point x="201" y="1334"/>
      <point x="229" y="1331" type="curve" smooth="yes"/>
      <point x="289" y="1326"/>
      <point x="379" y="1320"/>
      <point x="370" y="1234" type="curve" smooth="yes"/>
      <point x="220" y="152" type="line" smooth="yes"/>
      <point x="216" y="108"/>
      <point x="146" y="94"/>
      <point x="81" y="88" type="curve" smooth="yes"/>
      <point x="54" y="85"/>
      <point x="45" y="72"/>
    </contour>
    <contour>
      <point x="540" y="692" type="line"/>
      <point x="683" y="674"/>
      <point x="885" y="237"/>
      <point x="1021" y="70" type="curve" smooth="yes"/>
      <point x="1050" y="37"/>
      <point x="1084" y="0"/>
      <point x="1155" y="0" type="curve" smooth="yes"/>
      <point x="1387" y="0" type="line" smooth="yes"/>
      <point x="1409" y="0"/>
      <point x="1419" y="17"/>
      <point x="1422" y="32" type="curve" smooth="yes"/>
      <point x="1424" y="62"/>
      <point x="1421" y="86"/>
      <point x="1393" y="89" type="curve" smooth="yes"/>
      <point x="1302" y="99"/>
      <point x="1179" y="245"/>
      <point x="1124" y="317" type="curve" smooth="yes"/>
      <point x="1015" y="464"/>
      <point x="870" y="684"/>
      <point x="755" y="767" type="curve"/>
      <point x="1262" y="1263" type="line" smooth="yes"/>
      <point x="1314" y="1313"/>
      <point x="1389" y="1330"/>
      <point x="1457" y="1330" type="curve" smooth="yes"/>
      <point x="1479" y="1330"/>
      <point x="1493" y="1343"/>
      <point x="1498" y="1367" type="curve" smooth="yes"/>
      <point x="1497" y="1382"/>
      <point x="1493" y="1418"/>
      <point x="1470" y="1418" type="curve" smooth="yes"/>
      <point x="1038" y="1418" type="line" smooth="yes"/>
      <point x="1015" y="1418"/>
      <point x="997" y="1382"/>
      <point x="998" y="1367" type="curve" smooth="yes"/>
      <point x="994" y="1346"/>
      <point x="996" y="1333"/>
      <point x="1021" y="1330" type="curve" smooth="yes"/>
      <point x="1063" y="1326"/>
      <point x="1163" y="1320"/>
      <point x="1121" y="1276" type="curve" smooth="yes"/>
    </contour>
    <contour>
      <point x="705" y="-170" type="move" name="btm"/>
    </contour>
    <contour>
      <point x="972" y="1700" type="move" name="top"/>
    </contour>
  </outline>
</glyph>
<glyph name="L" format="1">
  <advance width="1236"/>
  <unicode hex="004C"/>
  <outline>
    <contour>
      <point x="31" y="51" type="curve" name="hr00" smooth="yes"/>
      <point x="28" y="36"/>
      <point x="37" y="0"/>
      <point x="60" y="0" type="curve" smooth="yes"/>
      <point x="1071" y="0" type="line"/>
      <point x="1172" y="439" type="line" smooth="yes"/>
      <point x="1175" y="462"/>
      <point x="1149" y="473"/>
      <point x="1124" y="473" type="curve" smooth="yes"/>
      <point x="1103" y="473"/>
      <point x="1083" y="464"/>
      <point x="1074" y="440" type="curve" smooth="yes"/>
      <point x="1004" y="296"/>
      <point x="956" y="101"/>
      <point x="773" y="101" type="curve" smooth="yes"/>
      <point x="503" y="101" type="line" smooth="yes"/>
      <point x="458" y="102"/>
      <point x="421" y="116"/>
      <point x="428" y="177" type="curve" smooth="yes"/>
      <point x="569" y="1237" type="line" smooth="yes"/>
      <point x="582" y="1311"/>
      <point x="681" y="1331"/>
      <point x="755" y="1331" type="curve" smooth="yes"/>
      <point x="780" y="1331"/>
      <point x="791" y="1347"/>
      <point x="795" y="1368" type="curve" smooth="yes"/>
      <point x="794" y="1383"/>
      <point x="790" y="1419"/>
      <point x="767" y="1419" type="curve" smooth="yes"/>
      <point x="232" y="1419" type="line" smooth="yes"/>
      <point x="209" y="1419"/>
      <point x="191" y="1383"/>
      <point x="192" y="1368" type="curve" smooth="yes"/>
      <point x="187" y="1338"/>
      <point x="193" y="1334"/>
      <point x="221" y="1331" type="curve" smooth="yes"/>
      <point x="281" y="1326"/>
      <point x="371" y="1320"/>
      <point x="362" y="1234" type="curve" smooth="yes"/>
      <point x="220" y="152" type="line" smooth="yes"/>
      <point x="216" y="108"/>
      <point x="132" y="94"/>
      <point x="67" y="88" type="curve" smooth="yes"/>
      <point x="40" y="85"/>
      <point x="31" y="72"/>
    </contour>
    <contour>
      <point x="570" y="-170" type="move" name="btm"/>
    </contour>
    <contour>
      <point x="580" y="1700" type="move" name="top"/>
    </contour>
  </outline>
</glyph>
<glyph name="M" format="1">
  <advance width="1899"/>
  <unicode hex="004D"/>
  <outline>
    <contour>
      <point x="832" y="0" type="line" name="hr00"/>
      <point x="829" y="1" type="line"/>
      <point x="833" y="0" type="line"/>
      <point x="883" y="0" type="line"/>
      <point x="1484" y="1281" type="line"/>
      <point x="1513" y="1281" type="line"/>
      <point x="1436" y="152" type="line" smooth="yes"/>
      <point x="1433" y="108"/>
      <point x="1309" y="93"/>
      <point x="1244" y="88" type="curve"/>
      <point x="1217" y="85"/>
      <point x="1209" y="72"/>
      <point x="1208" y="51" type="curve" smooth="yes"/>
      <point x="1206" y="36"/>
      <point x="1214" y="0"/>
      <point x="1237" y="0" type="curve" smooth="yes"/>
      <point x="1812" y="0" type="line" smooth="yes"/>
      <point x="1835" y="0"/>
      <point x="1849" y="36"/>
      <point x="1851" y="51" type="curve" smooth="yes"/>
      <point x="1853" y="81"/>
      <point x="1845" y="85"/>
      <point x="1818" y="88" type="curve" smooth="yes"/>
      <point x="1758" y="93"/>
      <point x="1641" y="99"/>
      <point x="1646" y="175" type="curve" smooth="yes"/>
      <point x="1716" y="1267" type="line" smooth="yes"/>
      <point x="1721" y="1311"/>
      <point x="1825" y="1326"/>
      <point x="1890" y="1331" type="curve"/>
      <point x="1916" y="1334"/>
      <point x="1925" y="1347"/>
      <point x="1928" y="1368" type="curve" smooth="yes"/>
      <point x="1928" y="1383"/>
      <point x="1924" y="1419"/>
      <point x="1901" y="1419" type="curve" smooth="yes"/>
      <point x="1443" y="1419" type="line"/>
      <point x="1428" y="1373"/>
      <point x="1403" y="1326"/>
      <point x="1370" y="1246" type="curve"/>
      <point x="959" y="376" type="line"/>
      <point x="947" y="376" type="line"/>
      <point x="734" y="1419" type="line"/>
      <point x="220" y="1419" type="line"/>
      <point x="195" y="1418"/>
      <point x="179" y="1383"/>
      <point x="179" y="1368" type="curve" smooth="yes"/>
      <point x="175" y="1338"/>
      <point x="182" y="1334"/>
      <point x="210" y="1331" type="curve"/>
      <point x="282" y="1326"/>
      <point x="414" y="1319"/>
      <point x="401" y="1234" type="curve" smooth="yes"/>
      <point x="197" y="184" type="line" smooth="yes"/>
      <point x="184" y="101"/>
      <point x="71" y="93"/>
      <point x="-5" y="88" type="curve"/>
      <point x="-32" y="85"/>
      <point x="-39" y="72"/>
      <point x="-40" y="51" type="curve" smooth="yes"/>
      <point x="-42" y="36"/>
      <point x="-38" y="0"/>
      <point x="-16" y="0" type="curve" smooth="yes"/>
      <point x="479" y="0" type="line" smooth="yes"/>
      <point x="502" y="0"/>
      <point x="516" y="36"/>
      <point x="518" y="51" type="curve" smooth="yes"/>
      <point x="520" y="81"/>
      <point x="512" y="85"/>
      <point x="485" y="88" type="curve"/>
      <point x="413" y="93"/>
      <point x="290" y="100"/>
      <point x="303" y="185" type="curve" smooth="yes"/>
      <point x="503" y="1281" type="line"/>
      <point x="534" y="1281" type="line"/>
      <point x="829" y="2" type="line"/>
    </contour>
    <contour>
      <point x="825" y="-170" type="move" name="btm"/>
    </contour>
    <contour>
      <point x="1126" y="1700" type="move" name="top"/>
    </contour>
  </outline>
</glyph>
<glyph name="N" format="1">
  <advance width="1571"/>
  <unicode hex="004E"/>
  <outline>
    <contour>
      <point x="15" y="51" type="curve" smooth="yes" name="hr01"/>
      <point x="12" y="36"/>
      <point x="17" y="0"/>
      <point x="40" y="0" type="curve" smooth="yes"/>
      <point x="515" y="0" type="line" smooth="yes"/>
      <point x="538" y="0"/>
      <point x="551" y="36"/>
      <point x="554" y="51" type="curve" smooth="yes"/>
      <point x="558" y="81"/>
      <point x="550" y="85"/>
      <point x="523" y="88" type="curve" smooth="yes"/>
      <point x="463" y="93"/>
      <point x="326" y="99"/>
      <point x="336" y="165" type="curve" smooth="yes"/>
      <point x="501" y="1188" type="line" name="hr02"/>
      <point x="518" y="1188" type="line"/>
      <point x="1143" y="-8" type="line"/>
      <point x="1151" y="-20"/>
      <point x="1182" y="-30"/>
      <point x="1203" y="-30" type="curve" smooth="yes"/>
      <point x="1231" y="-30"/>
      <point x="1271" y="-16"/>
      <point x="1275" y="40" type="curve" smooth="yes"/>
      <point x="1277" y="78"/>
      <point x="1276" y="88"/>
      <point x="1280" y="113" type="curve" smooth="yes"/>
      <point x="1454" y="1234" type="line" smooth="yes"/>
      <point x="1467" y="1320"/>
      <point x="1582" y="1325"/>
      <point x="1644" y="1331" type="curve" smooth="yes"/>
      <point x="1670" y="1334"/>
      <point x="1680" y="1347"/>
      <point x="1684" y="1368" type="curve" smooth="yes"/>
      <point x="1685" y="1383"/>
      <point x="1681" y="1419"/>
      <point x="1658" y="1419" type="curve" smooth="yes"/>
      <point x="1183" y="1419" type="line" smooth="yes"/>
      <point x="1160" y="1419"/>
      <point x="1142" y="1383"/>
      <point x="1141" y="1368" type="curve" smooth="yes"/>
      <point x="1136" y="1338"/>
      <point x="1142" y="1334"/>
      <point x="1170" y="1331" type="curve" smooth="yes"/>
      <point x="1230" y="1326"/>
      <point x="1363" y="1320"/>
      <point x="1350" y="1234" type="curve" smooth="yes"/>
      <point x="1214" y="318" type="line"/>
      <point x="1202" y="318" type="line"/>
      <point x="616" y="1419" type="line"/>
      <point x="257" y="1419" type="line" smooth="yes"/>
      <point x="234" y="1419"/>
      <point x="216" y="1383"/>
      <point x="215" y="1368" type="curve" smooth="yes"/>
      <point x="210" y="1338"/>
      <point x="216" y="1334"/>
      <point x="244" y="1331" type="curve" smooth="yes"/>
      <point x="304" y="1326"/>
      <point x="420" y="1290"/>
      <point x="405" y="1204" type="curve" smooth="yes"/>
      <point x="227" y="172" type="line" smooth="yes"/>
      <point x="218" y="108"/>
      <point x="114" y="93"/>
      <point x="51" y="88" type="curve" name="hr03"/>
      <point x="26" y="85"/>
      <point x="17" y="72"/>
    </contour>
    <contour>
      <point x="1037" y="1700" type="move" name="top"/>
    </contour>
    <contour>
      <point x="710" y="-170" type="move" name="btm"/>
    </contour>
  </outline>
</glyph>
<glyph name="O" format="1">
  <advance width="1496"/>
  <unicode hex="004F"/>
  <outline>
    <contour>
      <point x="124" y="586" type="curve" name="hr00" smooth="yes"/>
      <point x="136" y="245"/>
      <point x="338" y="-29"/>
      <point x="717" y="-29" type="curve" smooth="yes"/>
      <point x="1155" y="-29"/>
      <point x="1445" y="395"/>
      <point x="1429" y="848" type="curve" smooth="yes"/>
      <point x="1417" y="1186"/>
      <point x="1224" y="1449"/>
      <point x="845" y="1449" type="curve" smooth="yes"/>
      <point x="407" y="1449"/>
      <point x="108" y="1040"/>
    </contour>
    <contour>
      <point x="719" y="65" type="curve" smooth="yes"/>
      <point x="469" y="65"/>
      <point x="374" y="231"/>
      <point x="366" y="499" type="curve" smooth="yes"/>
      <point x="352" y="905"/>
      <point x="454" y="1356"/>
      <point x="837" y="1356" type="curve" smooth="yes"/>
      <point x="1087" y="1356"/>
      <point x="1175" y="1194"/>
      <point x="1183" y="925" type="curve" smooth="yes"/>
      <point x="1197" y="520"/>
      <point x="1100" y="65"/>
    </contour>
    <contour>
      <point x="618" y="-170" type="move" name="btm"/>
    </contour>
    <contour>
      <point x="922" y="1700" type="move" name="top"/>
    </contour>
  </outline>
</glyph>
<glyph name="P" format="1">
  <advance width="1249"/>
  <unicode hex="0050"/>
  <outline>
    <contour>
      <point x="587" y="1331" type="line" name="hr00"/>
      <point x="710" y="1331" type="line" smooth="yes"/>
      <point x="983" y="1331"/>
      <point x="1044" y="1229"/>
      <point x="1049" y="1071" type="curve" smooth="yes"/>
      <point x="1059" y="767"/>
      <point x="888" y="635"/>
      <point x="642" y="635" type="curve" smooth="yes"/>
      <point x="372" y="635" type="line"/>
      <point x="353" y="555" type="line"/>
      <point x="637" y="555" type="line" smooth="yes"/>
      <point x="970" y="555"/>
      <point x="1288" y="721"/>
      <point x="1276" y="1063" type="curve" smooth="yes"/>
      <point x="1268" y="1285"/>
      <point x="1134" y="1419"/>
      <point x="751" y="1419" type="curve" smooth="yes"/>
      <point x="240" y="1419" type="line" smooth="yes"/>
      <point x="217" y="1419"/>
      <point x="199" y="1383"/>
      <point x="200" y="1368" type="curve"/>
      <point x="195" y="1338"/>
      <point x="201" y="1334"/>
      <point x="229" y="1331" type="curve" smooth="yes"/>
      <point x="289" y="1326"/>
      <point x="380" y="1320"/>
      <point x="370" y="1234" type="curve"/>
      <point x="220" y="152" type="line"/>
      <point x="215" y="108"/>
      <point x="132" y="93"/>
      <point x="67" y="88" type="curve"/>
      <point x="40" y="85"/>
      <point x="31" y="72"/>
      <point x="31" y="51" type="curve"/>
      <point x="28" y="36"/>
      <point x="37" y="0"/>
      <point x="60" y="0" type="curve" smooth="yes"/>
      <point x="625" y="0" type="line" smooth="yes"/>
      <point x="648" y="0"/>
      <point x="661" y="36"/>
      <point x="664" y="51" type="curve"/>
      <point x="666" y="81"/>
      <point x="658" y="85"/>
      <point x="631" y="88" type="curve"/>
      <point x="555" y="93"/>
      <point x="420" y="99"/>
      <point x="430" y="185" type="curve"/>
    </contour>
    <contour>
      <point x="811" y="1700" type="move" name="top"/>
    </contour>
    <contour>
      <point x="684" y="-170" type="move" name="btm"/>
    </contour>
  </outline>
</glyph>
<glyph name="Q" format="1">
  <advance width="1496"/>
  <unicode hex="0051"/>
  <outline>
    <contour>
      <point x="663" y="0" type="curve" name="hr00"/>
      <point x="723" y="-369"/>
      <point x="970" y="-419"/>
      <point x="1192" y="-419" type="curve" smooth="yes"/>
      <point x="1301" y="-419"/>
      <point x="1355" y="-393"/>
      <point x="1355" y="-393" type="curve"/>
      <point x="1355" y="-393"/>
      <point x="1355" y="-323"/>
      <point x="1355" y="-323" type="curve"/>
      <point x="983" y="-330"/>
      <point x="898" y="-76"/>
      <point x="895" y="29" type="curve"/>
      <point x="895" y="29"/>
      <point x="663" y="0"/>
    </contour>
    <contour>
      <point x="795" y="1700" type="move" name="top"/>
    </contour>
    <contour>
      <point x="795" y="-170" type="move" name="btm"/>
    </contour>
    <component base="O" xOffset="25"/>
  </outline>
</glyph>
<glyph name="R" format="1">
  <advance width="1437"/>
  <unicode hex="0052"/>
  <outline>
    <contour>
      <point x="572" y="1332" type="line" name="hr00"/>
      <point x="698" y="1332" type="line" smooth="yes"/>
      <point x="966" y="1332"/>
      <point x="1057" y="1265"/>
      <point x="1057" y="1054" type="curve" smooth="yes"/>
      <point x="1057" y="833"/>
      <point x="924" y="701"/>
      <point x="682" y="701" type="curve" smooth="yes"/>
      <point x="423" y="701" type="line"/>
      <point x="423" y="625" type="line"/>
      <point x="685" y="625" type="line" smooth="yes"/>
      <point x="942" y="625"/>
      <point x="814" y="0"/>
      <point x="1118" y="0" type="curve" smooth="yes"/>
      <point x="1330" y="0" type="line" smooth="yes"/>
      <point x="1369" y="0"/>
      <point x="1366" y="63"/>
      <point x="1366" y="63" type="curve"/>
      <point x="1366" y="80"/>
      <point x="1358" y="88"/>
      <point x="1336" y="89" type="curve" smooth="yes"/>
      <point x="1253" y="94"/>
      <point x="1187" y="125"/>
      <point x="1150" y="209" type="curve" smooth="yes"/>
      <point x="1072" y="376"/>
      <point x="1026" y="578"/>
      <point x="882" y="636" type="curve"/>
      <point x="1072" y="659"/>
      <point x="1272" y="838"/>
      <point x="1272" y="1057" type="curve" smooth="yes"/>
      <point x="1272" y="1281"/>
      <point x="1140" y="1419"/>
      <point x="738" y="1419" type="curve" smooth="yes"/>
      <point x="224" y="1419" type="line" smooth="yes"/>
      <point x="201" y="1419"/>
      <point x="183" y="1383"/>
      <point x="184" y="1368" type="curve"/>
      <point x="183" y="1362"/>
      <point x="182" y="1357"/>
      <point x="182" y="1352" type="curve" smooth="yes"/>
      <point x="186" y="1309"/>
      <point x="367" y="1348"/>
      <point x="356" y="1251" type="curve"/>
      <point x="220" y="152" type="line" smooth="yes"/>
      <point x="215" y="107"/>
      <point x="142" y="94"/>
      <point x="77" y="88" type="curve" smooth="yes"/>
      <point x="54" y="86"/>
      <point x="45" y="71"/>
      <point x="45" y="51" type="curve"/>
      <point x="44" y="48"/>
      <point x="44" y="45"/>
      <point x="44" y="42" type="curve" smooth="yes"/>
      <point x="44" y="25"/>
      <point x="51" y="0"/>
      <point x="70" y="0" type="curve" smooth="yes"/>
      <point x="575" y="0" type="line" smooth="yes"/>
      <point x="612" y="0"/>
      <point x="611" y="60"/>
      <point x="612" y="66" type="curve"/>
      <point x="612" y="82"/>
      <point x="602" y="86"/>
      <point x="581" y="88" type="curve" smooth="yes"/>
      <point x="519" y="93"/>
      <point x="419" y="98"/>
      <point x="430" y="185" type="curve" smooth="yes"/>
    </contour>
    <contour>
      <point x="894" y="1700" type="move" name="top"/>
    </contour>
    <contour>
      <point x="665" y="-170" type="move" name="btm"/>
    </contour>
  </outline>
</glyph>
<glyph name="S" format="1">
  <advance width="1149"/>
  <unicode hex="0053"/>
  <outline>
    <contour>
      <point x="70" y="72" type="curve" name="hr00"/>
      <point x="67" y="48"/>
      <point x="85" y="20"/>
      <point x="112" y="20" type="curve" smooth="yes"/>
      <point x="132" y="20"/>
      <point x="164" y="32"/>
      <point x="185" y="61" type="curve" smooth="yes"/>
      <point x="196" y="76"/>
      <point x="211" y="83"/>
      <point x="218" y="78" type="curve" smooth="yes"/>
      <point x="278" y="38"/>
      <point x="389" y="-30"/>
      <point x="571" y="-30" type="curve" smooth="yes"/>
      <point x="854" y="-30"/>
      <point x="1041" y="123"/>
      <point x="1041" y="371" type="curve" smooth="yes"/>
      <point x="1041" y="606"/>
      <point x="859" y="714"/>
      <point x="701" y="816" type="curve" smooth="yes"/>
      <point x="570" y="901"/>
      <point x="434" y="993"/>
      <point x="434" y="1145" type="curve" smooth="yes"/>
      <point x="434" y="1302"/>
      <point x="555" y="1366"/>
      <point x="693" y="1366" type="curve" smooth="yes"/>
      <point x="834" y="1366"/>
      <point x="963" y="1265"/>
      <point x="979" y="1050" type="curve"/>
      <point x="979" y="1038"/>
      <point x="1002" y="1028"/>
      <point x="1023" y="1028" type="curve" smooth="yes"/>
      <point x="1051" y="1028"/>
      <point x="1073" y="1032"/>
      <point x="1075" y="1087" type="curve"/>
      <point x="1072" y="1208"/>
      <point x="1094" y="1360"/>
      <point x="1091" y="1398" type="curve"/>
      <point x="1091" y="1416"/>
      <point x="1068" y="1432"/>
      <point x="1043" y="1432" type="curve" smooth="yes"/>
      <point x="1005" y="1432"/>
      <point x="995" y="1388"/>
      <point x="954" y="1388" type="curve" smooth="yes"/>
      <point x="947" y="1388"/>
      <point x="937" y="1386"/>
      <point x="929" y="1391" type="curve"/>
      <point x="875" y="1417"/>
      <point x="788" y="1449"/>
      <point x="687" y="1449" type="curve" smooth="yes"/>
      <point x="409" y="1449"/>
      <point x="241" y="1295"/>
      <point x="241" y="1092" type="curve" smooth="yes"/>
      <point x="241" y="863"/>
      <point x="373" y="774"/>
      <point x="556" y="655" type="curve" smooth="yes"/>
      <point x="696" y="564"/>
      <point x="839" y="462"/>
      <point x="839" y="301" type="curve" smooth="yes"/>
      <point x="843" y="127"/>
      <point x="724" y="54"/>
      <point x="566" y="54" type="curve" smooth="yes"/>
      <point x="436" y="54"/>
      <point x="307" y="114"/>
      <point x="256" y="257" type="curve"/>
      <point x="214" y="371"/>
      <point x="217" y="444"/>
      <point x="213" y="478" type="curve"/>
      <point x="213" y="505"/>
      <point x="185" y="520"/>
      <point x="162" y="520" type="curve" smooth="yes"/>
      <point x="135" y="520"/>
      <point x="116" y="513"/>
      <point x="115" y="471" type="curve"/>
      <point x="115" y="391"/>
      <point x="98" y="214"/>
    </contour>
    <contour>
      <point x="783" y="1700" type="move" name="top"/>
    </contour>
    <contour>
      <point x="501" y="-170" type="move" name="btm"/>
    </contour>
  </outline>
</glyph>
<glyph name="T" format="1">
  <advance width="1267"/>
  <unicode hex="0054"/>
  <outline>
    <contour>
      <point x="243" y="51" type="curve" name="hr00" smooth="yes"/>
      <point x="240" y="36"/>
      <point x="249" y="0"/>
      <point x="272" y="0" type="curve" smooth="yes"/>
      <point x="887" y="0" type="line" smooth="yes"/>
      <point x="910" y="0"/>
      <point x="923" y="36"/>
      <point x="926" y="51" type="curve" smooth="yes"/>
      <point x="928" y="81"/>
      <point x="920" y="85"/>
      <point x="893" y="88" type="curve"/>
      <point x="813" y="93"/>
      <point x="678" y="99"/>
      <point x="687" y="185" type="curve" smooth="yes"/>
      <point x="855" y="1331" type="line"/>
      <point x="1072" y="1331" type="line" smooth="yes"/>
      <point x="1186" y="1331"/>
      <point x="1207" y="1084"/>
      <point x="1204" y="1019" type="curve"/>
      <point x="1202" y="993"/>
      <point x="1218" y="986"/>
      <point x="1239" y="986" type="curve" smooth="yes"/>
      <point x="1254" y="986"/>
      <point x="1298" y="997"/>
      <point x="1302" y="1020" type="curve"/>
      <point x="1303" y="1419" type="line"/>
      <point x="186" y="1419" type="line" smooth="yes"/>
      <point x="171" y="1419"/>
      <point x="134" y="1151"/>
      <point x="117" y="1020" type="curve"/>
      <point x="113" y="997"/>
      <point x="146" y="986"/>
      <point x="161" y="986" type="curve" smooth="yes"/>
      <point x="182" y="986"/>
      <point x="207" y="993"/>
      <point x="215" y="1019" type="curve"/>
      <point x="228" y="1084"/>
      <point x="295" y="1331"/>
      <point x="409" y="1331" type="curve" smooth="yes"/>
      <point x="648" y="1331" type="line"/>
      <point x="479" y="182" type="line" smooth="yes"/>
      <point x="473" y="108"/>
      <point x="374" y="93"/>
      <point x="279" y="88" type="curve"/>
      <point x="252" y="85"/>
      <point x="243" y="72"/>
    </contour>
    <contour>
      <point x="535" y="-170" type="move" name="btm"/>
    </contour>
    <contour>
      <point x="811" y="1700" type="move" name="top"/>
    </contour>
  </outline>
</glyph>
<glyph name="U" format="1">
  <advance width="1549"/>
  <unicode hex="0055"/>
  <outline>
    <contour>
      <point x="265" y="523" type="line" name="hr01" smooth="yes"/>
      <point x="260" y="478"/>
      <point x="257" y="419"/>
      <point x="261" y="361" type="curve" smooth="yes"/>
      <point x="278" y="83"/>
      <point x="493" y="-29"/>
      <point x="764" y="-29" type="curve" smooth="yes"/>
      <point x="1087" y="-29"/>
      <point x="1280" y="123"/>
      <point x="1323" y="523" type="curve" smooth="yes"/>
      <point x="1422" y="1230" type="line" smooth="yes"/>
      <point x="1429" y="1294"/>
      <point x="1493" y="1326"/>
      <point x="1580" y="1331" type="curve" smooth="yes"/>
      <point x="1608" y="1332"/>
      <point x="1620" y="1352"/>
      <point x="1617" y="1378" type="curve" smooth="yes"/>
      <point x="1617" y="1395"/>
      <point x="1610" y="1419"/>
      <point x="1592" y="1419" type="curve" smooth="yes"/>
      <point x="1196" y="1419" type="line" smooth="yes"/>
      <point x="1173" y="1419"/>
      <point x="1155" y="1383"/>
      <point x="1156" y="1368" type="curve" smooth="yes"/>
      <point x="1155" y="1362"/>
      <point x="1154" y="1357"/>
      <point x="1154" y="1352" type="curve" name="hr02" smooth="yes"/>
      <point x="1154" y="1336"/>
      <point x="1163" y="1331"/>
      <point x="1185" y="1331" type="curve" smooth="yes"/>
      <point x="1275" y="1331"/>
      <point x="1331" y="1290"/>
      <point x="1324" y="1233" type="curve" smooth="yes"/>
      <point x="1222" y="521" type="line" smooth="yes"/>
      <point x="1189" y="257"/>
      <point x="1085" y="65"/>
      <point x="776" y="65" type="curve" smooth="yes"/>
      <point x="623" y="65"/>
      <point x="488" y="147"/>
      <point x="472" y="364" type="curve" smooth="yes"/>
      <point x="470" y="416"/>
      <point x="472" y="476"/>
      <point x="479" y="543" type="curve" smooth="yes"/>
      <point x="580" y="1267" type="line" smooth="yes"/>
      <point x="588" y="1311"/>
      <point x="682" y="1325"/>
      <point x="753" y="1331" type="curve" name="hr03" smooth="yes"/>
      <point x="781" y="1333"/>
      <point x="794" y="1352"/>
      <point x="790" y="1378" type="curve" smooth="yes"/>
      <point x="790" y="1395"/>
      <point x="783" y="1419"/>
      <point x="765" y="1419" type="curve" smooth="yes"/>
      <point x="240" y="1419" type="line" smooth="yes"/>
      <point x="216" y="1419"/>
      <point x="199" y="1383"/>
      <point x="200" y="1368" type="curve" smooth="yes"/>
      <point x="199" y="1362"/>
      <point x="198" y="1357"/>
      <point x="198" y="1352" type="curve" smooth="yes"/>
      <point x="202" y="1309"/>
      <point x="380" y="1352"/>
      <point x="369" y="1256" type="curve" smooth="yes"/>
    </contour>
    <contour>
      <point x="701" y="-170" type="move" name="btm"/>
    </contour>
    <contour>
      <point x="1002" y="1700" type="move" name="top"/>
    </contour>
  </outline>
</glyph>
<glyph name="V" format="1">
  <advance width="1365"/>
  <unicode hex="0056"/>
  <outline>
    <contour>
      <point x="471" y="-18" type="line" name="hr00"/>
      <point x="584" y="-18" type="line"/>
      <point x="1354" y="1254" type="line" smooth="yes"/>
      <point x="1405" y="1339"/>
      <point x="1476" y="1326"/>
      <point x="1526" y="1331" type="curve" smooth="yes"/>
      <point x="1554" y="1334"/>
      <point x="1564" y="1338"/>
      <point x="1569" y="1368" type="curve" smooth="yes"/>
      <point x="1570" y="1383"/>
      <point x="1565" y="1419"/>
      <point x="1543" y="1419" type="curve" smooth="yes"/>
      <point x="1088" y="1419" type="line" smooth="yes"/>
      <point x="1065" y="1419"/>
      <point x="1047" y="1383"/>
      <point x="1046" y="1368" type="curve" smooth="yes"/>
      <point x="1042" y="1347"/>
      <point x="1046" y="1334"/>
      <point x="1072" y="1331" type="curve"/>
      <point x="1206" y="1331"/>
      <point x="1243" y="1304"/>
      <point x="1219" y="1257" type="curve" smooth="yes"/>
      <point x="623" y="222" type="line"/>
      <point x="475" y="1271" type="line" smooth="yes"/>
      <point x="467" y="1318"/>
      <point x="502" y="1327"/>
      <point x="615" y="1331" type="curve"/>
      <point x="641" y="1334"/>
      <point x="651" y="1347"/>
      <point x="655" y="1368" type="curve" smooth="yes"/>
      <point x="656" y="1383"/>
      <point x="651" y="1419"/>
      <point x="629" y="1419" type="curve" smooth="yes"/>
      <point x="104" y="1419" type="line" smooth="yes"/>
      <point x="82" y="1419"/>
      <point x="63" y="1383"/>
      <point x="63" y="1368" type="curve" smooth="yes"/>
      <point x="58" y="1338"/>
      <point x="63" y="1334"/>
      <point x="91" y="1331" type="curve" smooth="yes"/>
      <point x="139" y="1326"/>
      <point x="221" y="1342"/>
      <point x="241" y="1254" type="curve" smooth="yes"/>
    </contour>
    <contour>
      <point x="929" y="1700" type="move" name="top"/>
    </contour>
    <contour>
      <point x="855" y="-170" type="move" name="btm"/>
    </contour>
  </outline>
</glyph>
<glyph name="W" format="1">
  <advance width="1998"/>
  <unicode hex="0057"/>
  <outline>
    <contour>
      <point x="394" y="-18" type="line" name="hr00"/>
      <point x="517" y="-18" type="line"/>
      <point x="1067" y="1053" type="line"/>
      <point x="1207" y="-18" type="line"/>
      <point x="1330" y="-18" type="line"/>
      <point x="1952" y="1254" type="line" smooth="yes"/>
      <point x="1992" y="1344"/>
      <point x="2064" y="1326"/>
      <point x="2114" y="1331" type="curve" smooth="yes"/>
      <point x="2142" y="1334"/>
      <point x="2152" y="1338"/>
      <point x="2157" y="1368" type="curve" smooth="yes"/>
      <point x="2158" y="1383"/>
      <point x="2153" y="1419"/>
      <point x="2131" y="1419" type="curve" smooth="yes"/>
      <point x="1686" y="1419" type="line" smooth="yes"/>
      <point x="1663" y="1419"/>
      <point x="1645" y="1383"/>
      <point x="1644" y="1368" type="curve" smooth="yes"/>
      <point x="1640" y="1347"/>
      <point x="1644" y="1331"/>
      <point x="1670" y="1331" type="curve" smooth="yes"/>
      <point x="1773" y="1331"/>
      <point x="1832" y="1315"/>
      <point x="1811" y="1267" type="curve" smooth="yes"/>
      <point x="1363" y="281" type="line"/>
      <point x="1228" y="1399" type="line"/>
      <point x="1120" y="1399" type="line"/>
      <point x="554" y="286" type="line"/>
      <point x="466" y="1261" type="line" smooth="yes"/>
      <point x="461" y="1309"/>
      <point x="515" y="1331"/>
      <point x="628" y="1331" type="curve" smooth="yes"/>
      <point x="654" y="1331"/>
      <point x="664" y="1347"/>
      <point x="668" y="1368" type="curve" smooth="yes"/>
      <point x="669" y="1383"/>
      <point x="665" y="1419"/>
      <point x="642" y="1419" type="curve" smooth="yes"/>
      <point x="127" y="1419" type="line" smooth="yes"/>
      <point x="105" y="1419"/>
      <point x="86" y="1383"/>
      <point x="85" y="1368" type="curve" smooth="yes"/>
      <point x="80" y="1338"/>
      <point x="86" y="1334"/>
      <point x="114" y="1331" type="curve" smooth="yes"/>
      <point x="162" y="1326"/>
      <point x="243" y="1343"/>
      <point x="254" y="1254" type="curve" smooth="yes"/>
    </contour>
    <contour>
      <point x="938" y="-170" type="move" name="btm"/>
    </contour>
    <contour>
      <point x="1226" y="1700" type="move" name="top"/>
    </contour>
  </outline>
</glyph>
<glyph name="X" format="1">
  <advance width="1455"/>
  <unicode hex="0058"/>
  <outline>
    <contour>
      <point x="-23" y="51" type="curve" smooth="yes" name="hr00"/>
      <point x="-26" y="36"/>
      <point x="-20" y="0"/>
      <point x="2" y="0" type="curve" smooth="yes"/>
      <point x="527" y="0" type="line" smooth="yes"/>
      <point x="549" y="0"/>
      <point x="565" y="36"/>
      <point x="568" y="51" type="curve" smooth="yes"/>
      <point x="573" y="72"/>
      <point x="568" y="85"/>
      <point x="543" y="88" type="curve"/>
      <point x="354" y="93"/>
      <point x="341" y="121"/>
      <point x="370" y="162" type="curve"/>
      <point x="741" y="613" type="line"/>
      <point x="977" y="132" type="line"/>
      <point x="991" y="90"/>
      <point x="938" y="93"/>
      <point x="870" y="88" type="curve"/>
      <point x="843" y="85"/>
      <point x="834" y="72"/>
      <point x="829" y="51" type="curve" smooth="yes"/>
      <point x="826" y="36"/>
      <point x="834" y="0"/>
      <point x="856" y="0" type="curve" smooth="yes"/>
      <point x="1362" y="0" type="line" smooth="yes"/>
      <point x="1384" y="0"/>
      <point x="1400" y="36"/>
      <point x="1403" y="51" type="curve" smooth="yes"/>
      <point x="1409" y="81"/>
      <point x="1401" y="85"/>
      <point x="1375" y="88" type="curve" smooth="yes"/>
      <point x="1334" y="93"/>
      <point x="1239" y="86"/>
      <point x="1208" y="165" type="curve"/>
      <point x="887" y="758" type="line"/>
      <point x="1341" y="1254" type="line"/>
      <point x="1413" y="1330"/>
      <point x="1504" y="1326"/>
      <point x="1554" y="1331" type="curve" smooth="yes"/>
      <point x="1582" y="1334"/>
      <point x="1592" y="1338"/>
      <point x="1597" y="1368" type="curve" smooth="yes"/>
      <point x="1601" y="1383"/>
      <point x="1596" y="1419"/>
      <point x="1574" y="1419" type="curve" smooth="yes"/>
      <point x="1069" y="1419" type="line" smooth="yes"/>
      <point x="1046" y="1419"/>
      <point x="1028" y="1383"/>
      <point x="1024" y="1368" type="curve" smooth="yes"/>
      <point x="1020" y="1347"/>
      <point x="1024" y="1331"/>
      <point x="1050" y="1331" type="curve" smooth="yes"/>
      <point x="1173" y="1331"/>
      <point x="1251" y="1298"/>
      <point x="1201" y="1257" type="curve"/>
      <point x="844" y="839" type="line"/>
      <point x="622" y="1287" type="line"/>
      <point x="607" y="1329"/>
      <point x="660" y="1331"/>
      <point x="730" y="1331" type="curve" smooth="yes"/>
      <point x="756" y="1331"/>
      <point x="766" y="1347"/>
      <point x="770" y="1368" type="curve" smooth="yes"/>
      <point x="774" y="1383"/>
      <point x="770" y="1419"/>
      <point x="747" y="1419" type="curve" smooth="yes"/>
      <point x="235" y="1419" type="line" smooth="yes"/>
      <point x="213" y="1419"/>
      <point x="194" y="1383"/>
      <point x="190" y="1368" type="curve" smooth="yes"/>
      <point x="185" y="1338"/>
      <point x="191" y="1334"/>
      <point x="219" y="1331" type="curve" smooth="yes"/>
      <point x="267" y="1326"/>
      <point x="359" y="1333"/>
      <point x="393" y="1254" type="curve"/>
      <point x="693" y="684" type="line"/>
      <point x="226" y="165" type="line"/>
      <point x="162" y="88"/>
      <point x="65" y="93"/>
      <point x="21" y="88" type="curve" smooth="yes"/>
      <point x="-8" y="85"/>
      <point x="-16" y="81"/>
    </contour>
    <contour>
      <point x="798" y="1700" type="move" name="top"/>
    </contour>
    <contour>
      <point x="798" y="-170" type="move" name="btm"/>
    </contour>
  </outline>
</glyph>
<glyph name="Y" format="1">
  <advance width="1260"/>
  <unicode hex="0059"/>
  <outline>
    <contour>
      <point x="269" y="51" type="curve" smooth="yes" name="hr00"/>
      <point x="266" y="36"/>
      <point x="273" y="0"/>
      <point x="296" y="0" type="curve" smooth="yes"/>
      <point x="881" y="0" type="line" smooth="yes"/>
      <point x="903" y="0"/>
      <point x="919" y="36"/>
      <point x="922" y="51" type="curve" smooth="yes"/>
      <point x="927" y="81"/>
      <point x="909" y="85"/>
      <point x="882" y="88" type="curve"/>
      <point x="808" y="93"/>
      <point x="690" y="79"/>
      <point x="704" y="165" type="curve" smooth="yes"/>
      <point x="767" y="541" type="line"/>
      <point x="1277" y="1254" type="line" smooth="yes"/>
      <point x="1337" y="1335"/>
      <point x="1393" y="1336"/>
      <point x="1443" y="1341" type="curve" smooth="yes"/>
      <point x="1471" y="1344"/>
      <point x="1480" y="1348"/>
      <point x="1485" y="1378" type="curve" smooth="yes"/>
      <point x="1488" y="1393"/>
      <point x="1481" y="1419"/>
      <point x="1459" y="1419" type="curve" smooth="yes"/>
      <point x="1038" y="1419" type="line" smooth="yes"/>
      <point x="1015" y="1419"/>
      <point x="999" y="1393"/>
      <point x="996" y="1378" type="curve" smooth="yes"/>
      <point x="993" y="1357"/>
      <point x="1006" y="1331"/>
      <point x="1032" y="1331" type="curve" smooth="yes"/>
      <point x="1156" y="1331"/>
      <point x="1175" y="1302"/>
      <point x="1145" y="1258" type="curve" smooth="yes"/>
      <point x="724" y="639" type="line"/>
      <point x="459" y="1287" type="line" smooth="yes"/>
      <point x="445" y="1332"/>
      <point x="524" y="1331"/>
      <point x="609" y="1331" type="curve" smooth="yes"/>
      <point x="635" y="1331"/>
      <point x="653" y="1357"/>
      <point x="656" y="1378" type="curve" smooth="yes"/>
      <point x="659" y="1393"/>
      <point x="653" y="1419"/>
      <point x="630" y="1419" type="curve" smooth="yes"/>
      <point x="115" y="1419" type="line" smooth="yes"/>
      <point x="93" y="1419"/>
      <point x="76" y="1393"/>
      <point x="73" y="1378" type="curve" smooth="yes"/>
      <point x="68" y="1348"/>
      <point x="75" y="1344"/>
      <point x="103" y="1341" type="curve" smooth="yes"/>
      <point x="151" y="1336"/>
      <point x="208" y="1337"/>
      <point x="239" y="1254" type="curve" smooth="yes"/>
      <point x="558" y="534" type="line"/>
      <point x="494" y="152" type="line" smooth="yes"/>
      <point x="482" y="81"/>
      <point x="386" y="93"/>
      <point x="318" y="88" type="curve"/>
      <point x="292" y="85"/>
      <point x="272" y="72"/>
    </contour>
    <contour>
      <point x="865" y="1700" type="move" name="top"/>
    </contour>
    <contour>
      <point x="538" y="-170" type="move" name="btm"/>
    </contour>
  </outline>
</glyph>
<glyph name="Z" format="1">
  <advance width="1232"/>
  <unicode hex="005A"/>
  <outline>
    <contour>
      <point x="9" y="34" type="line" smooth="yes" name="hr00"/>
      <point x="9" y="15"/>
      <point x="27" y="0"/>
      <point x="43" y="0" type="curve" smooth="yes"/>
      <point x="1029" y="0" type="line"/>
      <point x="1047" y="1"/>
      <point x="1063" y="14"/>
      <point x="1081" y="41" type="curve"/>
      <point x="1162" y="429" type="line"/>
      <point x="1166" y="452"/>
      <point x="1121" y="463"/>
      <point x="1106" y="463" type="curve" smooth="yes"/>
      <point x="1085" y="463"/>
      <point x="1072" y="456"/>
      <point x="1064" y="430" type="curve" smooth="yes"/>
      <point x="1051" y="381"/>
      <point x="921" y="83"/>
      <point x="761" y="83" type="curve" smooth="yes"/>
      <point x="283" y="83" type="line"/>
      <point x="1233" y="1323" type="line" smooth="yes"/>
      <point x="1241" y="1333"/>
      <point x="1259" y="1352"/>
      <point x="1259" y="1374" type="curve" smooth="yes"/>
      <point x="1259" y="1388" type="line" smooth="yes"/>
      <point x="1259" y="1407"/>
      <point x="1246" y="1419"/>
      <point x="1225" y="1419" type="curve" smooth="yes"/>
      <point x="303" y="1419" type="line"/>
      <point x="283" y="1418"/>
      <point x="265" y="1405"/>
      <point x="248" y="1378" type="curve"/>
      <point x="174" y="1020" type="line"/>
      <point x="170" y="997"/>
      <point x="212" y="986"/>
      <point x="227" y="986" type="curve" smooth="yes"/>
      <point x="248" y="986"/>
      <point x="263" y="993"/>
      <point x="271" y="1019" type="curve" smooth="yes"/>
      <point x="283" y="1068"/>
      <point x="418" y="1331"/>
      <point x="516" y="1331" type="curve" smooth="yes"/>
      <point x="980" y="1331" type="line"/>
      <point x="61" y="123" type="line"/>
      <point x="18" y="69"/>
      <point x="9" y="53"/>
      <point x="9" y="40" type="curve" smooth="yes"/>
    </contour>
    <contour>
      <point x="858" y="1700" type="move" name="top"/>
    </contour>
    <contour>
      <point x="496" y="-170" type="move" name="btm"/>
    </contour>
  </outline>
</glyph>
<glyph name="bracketleft" format="1">
  <advance width="768"/>
  <unicode hex="005B"/>
  <outline>
    <contour>
      <point x="71" y="-327" type="line" name="hr00"/>
      <point x="514" y="-328" type="line"/>
      <point x="528" y="-231" type="line"/>
      <point x="279" y="-231" type="line"/>
      <point x="546" y="1439" type="line"/>
      <point x="795" y="1439" type="line"/>
      <point x="808" y="1536" type="line"/>
      <point x="364" y="1535" type="line"/>
    </contour>
  </outline>
</glyph>
<glyph name="backslash" format="1">
  <advance width="960"/>
  <unicode hex="005C"/>
  <outline>
    <contour>
      <point x="940" y="-340" type="line" name="hr00"/>
      <point x="805" y="-340" type="line"/>
      <point x="122" y="1547" type="line"/>
      <point x="259" y="1547" type="line"/>
    </contour>
  </outline>
</glyph>
<glyph name="bracketright" format="1">
  <advance width="768"/>
  <unicode hex="005D"/>
  <outline>
    <contour>
      <point x="656" y="1535" type="line" name="hr01"/>
      <point x="213" y="1536" type="line" name="hr02"/>
      <point x="199" y="1439" type="line"/>
      <point x="448" y="1439" type="line"/>
      <point x="183" y="-231" type="line"/>
      <point x="-66" y="-231" type="line"/>
      <point x="-79" y="-328" type="line"/>
      <point x="365" y="-327" type="line"/>
    </contour>
  </outline>
</glyph>
<glyph name="asciicircum" format="1">
  <advance width="1317"/>
  <unicode hex="005E"/>
  <outline>
    <contour>
      <point x="84" y="300" type="line" name="hr00"/>
      <point x="248" y="300" type="line"/>
      <point x="737" y="1270" type="line"/>
      <point x="1009" y="300" type="line"/>
      <point x="1155" y="300" type="line"/>
      <point x="817" y="1428" type="line"/>
      <point x="698" y="1428" type="line"/>
    </contour>
  </outline>
</glyph>
<glyph name="grave" format="1">
  <advance width="1024"/>
  <unicode hex="0060"/>
  <outline>
    <contour>
      <point x="634" y="1101" type="curve" name="hr00"/>
      <point x="698" y="1159" type="line"/>
      <point x="561" y="1348"/>
      <point x="487" y="1501"/>
      <point x="461" y="1531" type="curve" smooth="yes"/>
      <point x="429" y="1566"/>
      <point x="363" y="1588"/>
      <point x="304" y="1534" type="curve" smooth="yes"/>
      <point x="247" y="1481"/>
      <point x="261" y="1420"/>
      <point x="293" y="1386" type="curve" smooth="yes"/>
      <point x="320" y="1356"/>
      <point x="456" y="1284"/>
    </contour>
    <contour>
      <point x="629" y="1700" type="move" name="_top"/>
    </contour>
  </outline>
</glyph>
<glyph name="a" format="1">
  <advance width="1173"/>
  <unicode hex="0061"/>
  <outline>
    <contour>
      <point x="834" y="908" type="line" name="hr01"/>
      <point x="762" y="564"/>
      <point x="681" y="179"/>
      <point x="681" y="102" type="curve" smooth="yes"/>
      <point x="681" y="57"/>
      <point x="687" y="-13"/>
      <point x="803" y="-13" type="curve" smooth="yes" name="hr02"/>
      <point x="852" y="-13"/>
      <point x="947" y="8"/>
      <point x="1038" y="41" type="curve" smooth="yes"/>
      <point x="1056" y="47"/>
      <point x="1063" y="67"/>
      <point x="1063" y="83" type="curve" smooth="yes" name="hr03"/>
      <point x="1063" y="112"/>
      <point x="1050" y="113"/>
      <point x="1038" y="113" type="curve" smooth="yes"/>
      <point x="1018" y="113"/>
      <point x="966" y="96"/>
      <point x="938" y="96" type="curve" smooth="yes"/>
      <point x="882" y="96"/>
      <point x="875" y="128"/>
      <point x="881" y="168" type="curve"/>
      <point x="1027" y="958" type="line"/>
      <point x="1034" y="978"/>
      <point x="1016" y="1005"/>
      <point x="995" y="994" type="curve" smooth="yes"/>
    </contour>
    <contour>
      <point x="733" y="264" type="line"/>
      <point x="678" y="181"/>
      <point x="560" y="88"/>
      <point x="465" y="88" type="curve" smooth="yes" name="hr04"/>
      <point x="330" y="88"/>
      <point x="298" y="226"/>
      <point x="298" y="362" type="curve" smooth="yes"/>
      <point x="298" y="574"/>
      <point x="362" y="918"/>
      <point x="609" y="918" type="curve" smooth="yes"/>
      <point x="715" y="918"/>
      <point x="816" y="860"/>
      <point x="837" y="767" type="curve"/>
      <point x="950" y="882" type="line"/>
      <point x="887" y="958"/>
      <point x="796" y="1013"/>
      <point x="606" y="1013" type="curve" smooth="yes"/>
      <point x="304" y="1013"/>
      <point x="94" y="710"/>
      <point x="94" y="375" type="curve" smooth="yes"/>
      <point x="94" y="160"/>
      <point x="167" y="-30"/>
      <point x="409" y="-30" type="curve" smooth="yes"/>
      <point x="506" y="-30"/>
      <point x="640" y="24"/>
      <point x="728" y="168" type="curve"/>
    </contour>
    <contour>
      <point x="769" y="1700" type="move" name="top"/>
    </contour>
    <contour>
      <point x="572" y="-170" type="move" name="btm"/>
    </contour>
  </outline>
</glyph>
<glyph name="b" format="1">
  <advance width="1134"/>
  <unicode hex="0062"/>
  <outline>
    <contour>
      <point x="97" y="126" type="line" name="hr00"/>
      <point x="138" y="70"/>
      <point x="329" y="-30"/>
      <point x="519" y="-30" type="curve" smooth="yes"/>
      <point x="796" y="-30"/>
      <point x="980" y="223"/>
      <point x="1013" y="492" type="curve" smooth="yes"/>
      <point x="1045" y="750"/>
      <point x="990" y="1013"/>
      <point x="706" y="1013" type="curve" smooth="yes"/>
      <point x="606" y="1013"/>
      <point x="468" y="959"/>
      <point x="377" y="815" type="curve"/>
      <point x="436" y="1104" type="line"/>
      <point x="497" y="1506" type="line" smooth="yes"/>
      <point x="501" y="1534"/>
      <point x="485" y="1546"/>
      <point x="473" y="1546" type="curve" smooth="yes"/>
      <point x="416" y="1546"/>
      <point x="287" y="1547"/>
      <point x="153" y="1539" type="curve" smooth="yes"/>
      <point x="137" y="1538"/>
      <point x="124" y="1511"/>
      <point x="121" y="1495" type="curve" smooth="yes"/>
      <point x="119" y="1470"/>
      <point x="128" y="1462"/>
      <point x="139" y="1455" type="curve" smooth="yes"/>
      <point x="190" y="1426"/>
      <point x="296" y="1441"/>
      <point x="283" y="1354" type="curve" smooth="yes"/>
    </contour>
    <contour>
      <point x="372" y="719" type="line"/>
      <point x="429" y="802"/>
      <point x="551" y="895"/>
      <point x="650" y="895" type="curve" smooth="yes"/>
      <point x="824" y="895"/>
      <point x="832" y="732"/>
      <point x="807" y="492" type="curve" smooth="yes"/>
      <point x="775" y="252"/>
      <point x="689" y="65"/>
      <point x="496" y="65" type="curve" smooth="yes"/>
      <point x="390" y="65"/>
      <point x="310" y="129"/>
      <point x="290" y="173" type="curve"/>
    </contour>
    <contour>
      <point x="564" y="-170" type="move" name="btm"/>
    </contour>
    <contour>
      <point x="872" y="1700" type="move" name="top"/>
    </contour>
  </outline>
</glyph>
<glyph name="c" format="1">
  <advance width="929"/>
  <unicode hex="0063"/>
  <outline>
    <contour>
      <point x="611" y="1014" type="curve" name="hr00" smooth="yes"/>
      <point x="349" y="1014"/>
      <point x="85" y="740"/>
      <point x="85" y="381" type="curve" smooth="yes"/>
      <point x="85" y="133"/>
      <point x="215" y="-28"/>
      <point x="453" y="-28" type="curve" smooth="yes"/>
      <point x="619" y="-28"/>
      <point x="735" y="50"/>
      <point x="824" y="164" type="curve"/>
      <point x="829" y="172"/>
      <point x="843" y="181"/>
      <point x="830" y="192" type="curve" smooth="yes"/>
      <point x="793" y="225" type="line"/>
      <point x="784" y="231"/>
      <point x="778" y="223"/>
      <point x="771" y="215" type="curve"/>
      <point x="679" y="124"/>
      <point x="598" y="75"/>
      <point x="484" y="75" type="curve" smooth="yes"/>
      <point x="385" y="75"/>
      <point x="302" y="152"/>
      <point x="302" y="360" type="curve" smooth="yes"/>
      <point x="302" y="720"/>
      <point x="444" y="933"/>
      <point x="595" y="933" type="curve" smooth="yes"/>
      <point x="634" y="933"/>
      <point x="668" y="925"/>
      <point x="681" y="914" type="curve"/>
      <point x="735" y="705" type="line" smooth="yes"/>
      <point x="747" y="660"/>
      <point x="766" y="662"/>
      <point x="805" y="662" type="curve" smooth="yes"/>
      <point x="847" y="662"/>
      <point x="909" y="704"/>
      <point x="909" y="787" type="curve" smooth="yes"/>
      <point x="909" y="944"/>
      <point x="778" y="1014"/>
    </contour>
    <contour>
      <point x="396" y="-170" type="move" name="btm"/>
    </contour>
    <contour>
      <point x="643" y="1700" type="move" name="top"/>
    </contour>
  </outline>
</glyph>
<glyph name="d" format="1">
  <advance width="1178"/>
  <unicode hex="0064"/>
  <outline>
    <contour>
      <point x="862" y="979" type="line" name="hr01"/>
      <point x="836" y="847" type="line" smooth="yes"/>
      <point x="793" y="592"/>
      <point x="713" y="102"/>
      <point x="713" y="92" type="curve" smooth="yes"/>
      <point x="713" y="57"/>
      <point x="726" y="-13"/>
      <point x="842" y="-13" type="curve" name="hr02" smooth="yes"/>
      <point x="891" y="-13"/>
      <point x="990" y="8"/>
      <point x="1081" y="41" type="curve" smooth="yes"/>
      <point x="1099" y="47"/>
      <point x="1106" y="67"/>
      <point x="1106" y="83" type="curve" name="hr03" smooth="yes"/>
      <point x="1106" y="112"/>
      <point x="1093" y="113"/>
      <point x="1081" y="113" type="curve" smooth="yes"/>
      <point x="1061" y="113"/>
      <point x="1009" y="96"/>
      <point x="981" y="96" type="curve" smooth="yes"/>
      <point x="925" y="96"/>
      <point x="918" y="128"/>
      <point x="924" y="168" type="curve" smooth="yes"/>
      <point x="1130" y="1506" type="line" smooth="yes"/>
      <point x="1134" y="1532"/>
      <point x="1117" y="1546"/>
      <point x="1105" y="1546" type="curve" smooth="yes"/>
      <point x="1048" y="1546"/>
      <point x="895" y="1546"/>
      <point x="761" y="1538" type="curve" smooth="yes"/>
      <point x="745" y="1537"/>
      <point x="732" y="1510"/>
      <point x="730" y="1494" type="curve" smooth="yes"/>
      <point x="726" y="1469"/>
      <point x="735" y="1458"/>
      <point x="749" y="1454" type="curve" smooth="yes"/>
      <point x="801" y="1439"/>
      <point x="931" y="1439"/>
      <point x="915" y="1354" type="curve"/>
      <point x="877" y="1104" type="line"/>
    </contour>
    <contour>
      <point x="751" y="304" type="line"/>
      <point x="696" y="201"/>
      <point x="554" y="88"/>
      <point x="459" y="88" type="curve" name="hr04" smooth="yes"/>
      <point x="324" y="88"/>
      <point x="292" y="226"/>
      <point x="292" y="362" type="curve" smooth="yes"/>
      <point x="292" y="574"/>
      <point x="356" y="918"/>
      <point x="603" y="918" type="curve" smooth="yes"/>
      <point x="709" y="918"/>
      <point x="810" y="864"/>
      <point x="831" y="777" type="curve"/>
      <point x="944" y="882" type="line"/>
      <point x="881" y="958"/>
      <point x="790" y="1013"/>
      <point x="600" y="1013" type="curve" smooth="yes"/>
      <point x="298" y="1013"/>
      <point x="88" y="710"/>
      <point x="88" y="375" type="curve" smooth="yes"/>
      <point x="88" y="160"/>
      <point x="161" y="-30"/>
      <point x="403" y="-30" type="curve" smooth="yes"/>
      <point x="500" y="-30"/>
      <point x="638" y="24"/>
      <point x="726" y="168" type="curve"/>
    </contour>
    <contour>
      <point x="615" y="-170" type="move" name="btm"/>
    </contour>
    <contour>
      <point x="493" y="1700" type="move" name="top"/>
    </contour>
  </outline>
</glyph>
<glyph name="e" format="1">
  <advance width="966"/>
  <unicode hex="0065"/>
  <outline>
    <contour>
      <point x="904" y="804" type="curve" smooth="yes" name="hr00"/>
      <point x="903" y="898"/>
      <point x="837" y="1014"/>
      <point x="621" y="1014" type="curve" smooth="yes"/>
      <point x="349" y="1014"/>
      <point x="80" y="740"/>
      <point x="86" y="381" type="curve" smooth="yes"/>
      <point x="90" y="133"/>
      <point x="223" y="-29"/>
      <point x="461" y="-29" type="curve" smooth="yes"/>
      <point x="631" y="-29"/>
      <point x="750" y="50"/>
      <point x="839" y="164" type="curve"/>
      <point x="842" y="172"/>
      <point x="857" y="181"/>
      <point x="844" y="192" type="curve" smooth="yes"/>
      <point x="807" y="225" type="line"/>
      <point x="798" y="231"/>
      <point x="792" y="223"/>
      <point x="785" y="215" type="curve"/>
      <point x="691" y="124"/>
      <point x="608" y="75"/>
      <point x="490" y="75" type="curve" smooth="yes"/>
      <point x="391" y="75"/>
      <point x="307" y="152"/>
      <point x="303" y="360" type="curve" smooth="yes"/>
      <point x="303" y="376"/>
      <point x="303" y="392"/>
      <point x="303" y="407" type="curve"/>
      <point x="616" y="465"/>
      <point x="908" y="591"/>
    </contour>
    <contour>
      <point x="616" y="933" type="curve" smooth="yes"/>
      <point x="667" y="933"/>
      <point x="716" y="901"/>
      <point x="717" y="838" type="curve" smooth="yes"/>
      <point x="720" y="640"/>
      <point x="572" y="540"/>
      <point x="307" y="484" type="curve"/>
      <point x="334" y="768"/>
      <point x="469" y="933"/>
    </contour>
    <contour>
      <point x="680" y="1700" type="move" name="top"/>
    </contour>
    <contour>
      <point x="503" y="-170" type="move" name="btm"/>
    </contour>
  </outline>
</glyph>
<glyph name="f" format="1">
  <advance width="673"/>
  <unicode hex="0066"/>
  <outline>
    <contour>
      <point x="420" y="892" type="line" name="hr00"/>
      <point x="677" y="892" type="line"/>
      <point x="692" y="898"/>
      <point x="697" y="935"/>
      <point x="700" y="960" type="curve"/>
      <point x="704" y="976"/>
      <point x="697" y="993"/>
      <point x="681" y="994" type="curve"/>
      <point x="436" y="994" type="line"/>
    </contour>
    <contour>
      <point x="281" y="993" type="line"/>
      <point x="129" y="984" type="line"/>
      <point x="115" y="978"/>
      <point x="103" y="966"/>
      <point x="99" y="941" type="curve"/>
      <point x="99" y="925"/>
      <point x="101" y="893"/>
      <point x="117" y="892" type="curve"/>
      <point x="269" y="892" type="line"/>
    </contour>
    <contour>
      <point x="127" y="20" type="line"/>
      <point x="83" y="-272"/>
      <point x="16" y="-340"/>
      <point x="-58" y="-344" type="curve"/>
      <point x="-138" y="-208" type="line"/>
      <point x="-141" y="-206"/>
      <point x="-148" y="-206"/>
      <point x="-153" y="-206" type="curve" smooth="yes"/>
      <point x="-188" y="-205"/>
      <point x="-255" y="-238"/>
      <point x="-256" y="-317" type="curve" smooth="yes"/>
      <point x="-257" y="-385"/>
      <point x="-225" y="-442"/>
      <point x="-97" y="-442" type="curve" smooth="yes"/>
      <point x="143" y="-442"/>
      <point x="282" y="-198"/>
      <point x="319" y="56" type="curve"/>
      <point x="465" y="1107" type="line"/>
      <point x="502" y="1421"/>
      <point x="590" y="1475"/>
      <point x="650" y="1475" type="curve"/>
      <point x="748" y="1310" type="line"/>
      <point x="748" y="1308"/>
      <point x="748" y="1307"/>
      <point x="758" y="1307" type="curve" smooth="yes"/>
      <point x="793" y="1306"/>
      <point x="872" y="1360"/>
      <point x="872" y="1439" type="curve"/>
      <point x="874" y="1517"/>
      <point x="821" y="1573"/>
      <point x="729" y="1573" type="curve" smooth="yes"/>
      <point x="471" y="1573"/>
      <point x="306" y="1330"/>
      <point x="274" y="1075" type="curve"/>
    </contour>
    <contour>
      <point x="477" y="2040" type="move" name="top"/>
    </contour>
    <contour>
      <point x="346" y="-170" type="move" name="btm"/>
    </contour>
  </outline>
</glyph>
<glyph name="g" format="1">
  <advance width="1173"/>
  <unicode hex="0067"/>
  <outline>
    <contour>
      <point x="528" y="474" type="curve" smooth="yes" name="hr01"/>
      <point x="407" y="474"/>
      <point x="350" y="536"/>
      <point x="350" y="635" type="curve" smooth="yes"/>
      <point x="350" y="810"/>
      <point x="393" y="926"/>
      <point x="588" y="926" type="curve" smooth="yes"/>
      <point x="706" y="926"/>
      <point x="749" y="859"/>
      <point x="749" y="761" type="curve" smooth="yes"/>
      <point x="749" y="559"/>
      <point x="692" y="474"/>
    </contour>
    <contour>
      <point x="607" y="1014" type="curve" smooth="yes"/>
      <point x="328" y="1014"/>
      <point x="156" y="888"/>
      <point x="156" y="664" type="curve" smooth="yes"/>
      <point x="156" y="535"/>
      <point x="265" y="379"/>
      <point x="520" y="379" type="curve" smooth="yes"/>
      <point x="778" y="379"/>
      <point x="945" y="526"/>
      <point x="945" y="732" type="curve" smooth="yes"/>
      <point x="945" y="901"/>
      <point x="819" y="1014"/>
    </contour>
    <contour>
      <point x="1054" y="809" type="line" smooth="yes"/>
      <point x="1088" y="761"/>
      <point x="1199" y="776"/>
      <point x="1199" y="890" type="curve" smooth="yes"/>
      <point x="1199" y="969"/>
      <point x="1160" y="1014"/>
      <point x="1070" y="1014" type="curve" smooth="yes"/>
      <point x="999" y="1014"/>
      <point x="903" y="951"/>
      <point x="872" y="905" type="curve" smooth="yes"/>
      <point x="839" y="858"/>
      <point x="865" y="835"/>
      <point x="895" y="848" type="curve"/>
      <point x="920" y="876"/>
      <point x="996" y="894"/>
      <point x="1009" y="887" type="curve"/>
    </contour>
    <contour>
      <point x="210" y="88" type="line"/>
      <point x="80" y="50"/>
      <point x="22" y="-57"/>
      <point x="22" y="-162" type="curve" smooth="yes" name="hr02"/>
      <point x="22" y="-327"/>
      <point x="164" y="-451"/>
      <point x="452" y="-451" type="curve" smooth="yes"/>
      <point x="723" y="-451"/>
      <point x="993" y="-317"/>
      <point x="993" y="-46" type="curve" smooth="yes"/>
      <point x="993" y="67"/>
      <point x="881" y="149"/>
      <point x="669" y="170" type="curve" smooth="yes"/>
      <point x="425" y="194" type="line" smooth="yes"/>
      <point x="352" y="201"/>
      <point x="302" y="230"/>
      <point x="312" y="300" type="curve" smooth="yes" name="hr03"/>
      <point x="317" y="334"/>
      <point x="352" y="380"/>
      <point x="387" y="407" type="curve"/>
      <point x="393" y="445"/>
      <point x="339" y="443"/>
      <point x="316" y="440" type="curve"/>
      <point x="219" y="381"/>
      <point x="149" y="309"/>
      <point x="149" y="182" type="curve" smooth="yes"/>
      <point x="149" y="50"/>
      <point x="287" y="10"/>
      <point x="413" y="0" type="curve" smooth="yes"/>
      <point x="547" y="-11" type="line" smooth="yes"/>
      <point x="659" y="-20"/>
      <point x="861" y="-33"/>
      <point x="847" y="-139" type="curve" smooth="yes"/>
      <point x="824" y="-313"/>
      <point x="658" y="-355"/>
      <point x="486" y="-355" type="curve" smooth="yes"/>
      <point x="313" y="-355"/>
      <point x="200" y="-280"/>
      <point x="200" y="-148" type="curve" smooth="yes" name="hr04"/>
      <point x="200" y="-79"/>
      <point x="216" y="-20"/>
      <point x="257" y="43" type="curve"/>
    </contour>
    <contour>
      <point x="690" y="1700" type="move" name="top"/>
    </contour>
    <contour>
      <point x="618" y="-170" type="move" name="btm"/>
    </contour>
  </outline>
</glyph>
<glyph name="h" format="1">
  <advance width="1152"/>
  <unicode hex="0068"/>
  <outline>
    <contour>
      <point x="369" y="652" type="line" name="hr01"/>
      <point x="445" y="749"/>
      <point x="599" y="874"/>
      <point x="728" y="874" type="curve" smooth="yes"/>
      <point x="833" y="874"/>
      <point x="822" y="819"/>
      <point x="817" y="785" type="curve" smooth="yes"/>
      <point x="720" y="142" type="line" name="hr02"/>
      <point x="720" y="142"/>
      <point x="716" y="124"/>
      <point x="716" y="102" type="curve" smooth="yes"/>
      <point x="716" y="57"/>
      <point x="724" y="-13"/>
      <point x="840" y="-13" type="curve" smooth="yes"/>
      <point x="889" y="-13"/>
      <point x="982" y="8"/>
      <point x="1073" y="41" type="curve" smooth="yes"/>
      <point x="1091" y="47"/>
      <point x="1098" y="67"/>
      <point x="1098" y="83" type="curve" name="hr03" smooth="yes"/>
      <point x="1098" y="112"/>
      <point x="1085" y="113"/>
      <point x="1073" y="113" type="curve" smooth="yes"/>
      <point x="1053" y="113"/>
      <point x="1003" y="96"/>
      <point x="975" y="96" type="curve" smooth="yes"/>
      <point x="919" y="96"/>
      <point x="910" y="130"/>
      <point x="916" y="168" type="curve" smooth="yes"/>
      <point x="1010" y="766" type="line" smooth="yes"/>
      <point x="1031" y="894"/>
      <point x="997" y="1014"/>
      <point x="806" y="1014" type="curve" name="hr04" smooth="yes"/>
      <point x="590" y="1014"/>
      <point x="406" y="783"/>
      <point x="365" y="736" type="curve"/>
    </contour>
    <contour>
      <point x="386" y="742" type="line"/>
      <point x="502" y="1506" type="line"/>
      <point x="504" y="1538"/>
      <point x="489" y="1546"/>
      <point x="478" y="1546" type="curve" smooth="yes"/>
      <point x="427" y="1546"/>
      <point x="310" y="1546"/>
      <point x="188" y="1539" type="curve" smooth="yes"/>
      <point x="172" y="1538"/>
      <point x="160" y="1511"/>
      <point x="156" y="1495" type="curve"/>
      <point x="154" y="1470"/>
      <point x="163" y="1462"/>
      <point x="174" y="1455" type="curve" smooth="yes"/>
      <point x="212" y="1426"/>
      <point x="299" y="1443"/>
      <point x="288" y="1354" type="curve" smooth="yes"/>
      <point x="81" y="0" type="line"/>
      <point x="268" y="0" type="line"/>
    </contour>
    <contour>
      <point x="573" y="-170" type="move" name="btm"/>
    </contour>
    <contour>
      <point x="887" y="1700" type="move" name="top"/>
    </contour>
  </outline>
</glyph>
<glyph name="k" format="1">
  <advance width="1081"/>
  <unicode hex="006B"/>
  <outline>
    <contour>
      <point x="414" y="742" type="line" name="hr01"/>
      <point x="530" y="1506" type="line"/>
      <point x="532" y="1538"/>
      <point x="517" y="1546"/>
      <point x="506" y="1546" type="curve" smooth="yes"/>
      <point x="449" y="1546"/>
      <point x="320" y="1546"/>
      <point x="186" y="1539" type="curve" smooth="yes"/>
      <point x="170" y="1538"/>
      <point x="158" y="1511"/>
      <point x="154" y="1495" type="curve"/>
      <point x="151" y="1470"/>
      <point x="160" y="1462"/>
      <point x="172" y="1455" type="curve" smooth="yes"/>
      <point x="219" y="1426"/>
      <point x="330" y="1443"/>
      <point x="316" y="1354" type="curve" smooth="yes"/>
      <point x="109" y="0" type="line"/>
      <point x="296" y="0" type="line"/>
      <point x="355" y="405" type="line"/>
      <point x="440" y="475" type="line"/>
      <point x="535" y="373"/>
      <point x="623" y="166"/>
      <point x="699" y="33" type="curve" name="hr02" smooth="yes"/>
      <point x="713" y="6"/>
      <point x="749" y="-14"/>
      <point x="807" y="-17" type="curve" smooth="yes"/>
      <point x="857" y="-19"/>
      <point x="931" y="-7"/>
      <point x="1028" y="27" type="curve"/>
      <point x="1050" y="34"/>
      <point x="1055" y="63"/>
      <point x="1052" y="78" type="curve" smooth="yes"/>
      <point x="1048" y="107"/>
      <point x="1037" y="109"/>
      <point x="1015" y="106" type="curve" smooth="yes"/>
      <point x="997" y="103"/>
      <point x="973" y="98"/>
      <point x="951" y="97" type="curve" smooth="yes"/>
      <point x="914" y="96"/>
      <point x="882" y="137"/>
      <point x="859" y="170" type="curve" smooth="yes"/>
      <point x="760" y="309"/>
      <point x="668" y="502"/>
      <point x="577" y="570" type="curve"/>
      <point x="883" y="814" type="line" smooth="yes"/>
      <point x="930" y="855"/>
      <point x="1004" y="900"/>
      <point x="1063" y="899" type="curve" smooth="yes"/>
      <point x="1085" y="899"/>
      <point x="1099" y="918"/>
      <point x="1102" y="942" type="curve" smooth="yes"/>
      <point x="1105" y="957"/>
      <point x="1097" y="987"/>
      <point x="1075" y="987" type="curve" smooth="yes"/>
      <point x="702" y="990" type="line" smooth="yes"/>
      <point x="679" y="991"/>
      <point x="664" y="961"/>
      <point x="661" y="946" type="curve" smooth="yes"/>
      <point x="659" y="925"/>
      <point x="660" y="905"/>
      <point x="686" y="903" type="curve" smooth="yes"/>
      <point x="747" y="896"/>
      <point x="817" y="891"/>
      <point x="767" y="848" type="curve" smooth="yes"/>
      <point x="362" y="503" type="line"/>
    </contour>
    <contour>
      <point x="450" y="-170" type="move" name="btm"/>
    </contour>
    <contour>
      <point x="600" y="1700" type="move" name="top"/>
    </contour>
  </outline>
</glyph>
<glyph name="l" format="1">
  <advance width="584"/>
  <unicode hex="006C"/>
  <outline>
    <contour>
      <point x="122" y="142" type="line" name="hr01"/>
      <point x="122" y="142"/>
      <point x="120" y="124"/>
      <point x="120" y="102" type="curve" smooth="yes"/>
      <point x="120" y="57"/>
      <point x="126" y="-13"/>
      <point x="242" y="-13" type="curve" smooth="yes"/>
      <point x="291" y="-13"/>
      <point x="386" y="8"/>
      <point x="477" y="41" type="curve" smooth="yes"/>
      <point x="495" y="47"/>
      <point x="502" y="67"/>
      <point x="502" y="83" type="curve" name="hr02" smooth="yes"/>
      <point x="502" y="112"/>
      <point x="489" y="113"/>
      <point x="477" y="113" type="curve" smooth="yes"/>
      <point x="457" y="113"/>
      <point x="405" y="96"/>
      <point x="377" y="96" type="curve" smooth="yes"/>
      <point x="321" y="96"/>
      <point x="314" y="128"/>
      <point x="320" y="168" type="curve" smooth="yes"/>
      <point x="520" y="1508" type="line" smooth="yes"/>
      <point x="520" y="1512"/>
      <point x="521" y="1515"/>
      <point x="521" y="1518" type="curve" smooth="yes"/>
      <point x="521" y="1542"/>
      <point x="506" y="1548"/>
      <point x="496" y="1548" type="curve" smooth="yes"/>
      <point x="439" y="1547"/>
      <point x="309" y="1546"/>
      <point x="175" y="1538" type="curve" smooth="yes"/>
      <point x="154" y="1537"/>
      <point x="143" y="1497"/>
      <point x="143" y="1485" type="curve" smooth="yes"/>
      <point x="143" y="1414"/>
      <point x="324" y="1463"/>
      <point x="306" y="1354" type="curve" smooth="yes"/>
    </contour>
    <contour>
      <point x="181" y="-170" type="move" name="btm"/>
    </contour>
    <contour>
      <point x="406" y="1700" type="move" name="top"/>
    </contour>
  </outline>
</glyph>
<glyph name="m" format="1">
  <advance width="1801"/>
  <unicode hex="006D"/>
  <outline>
    <contour>
      <point x="1637" y="766" type="line" name="hr01"/>
      <point x="1666" y="974"/>
      <point x="1541" y="1014"/>
      <point x="1396" y="1014" type="curve" smooth="yes"/>
      <point x="1253" y="1014"/>
      <point x="1123" y="895"/>
      <point x="1052" y="824" type="curve"/>
      <point x="1051" y="981"/>
      <point x="937" y="1014"/>
      <point x="807" y="1014" type="curve" smooth="yes"/>
      <point x="633" y="1014"/>
      <point x="482" y="832"/>
      <point x="440" y="785" type="curve"/>
      <point x="466" y="957" type="line" name="hr02"/>
      <point x="470" y="989"/>
      <point x="453" y="997"/>
      <point x="442" y="997" type="curve" smooth="yes"/>
      <point x="386" y="996"/>
      <point x="270" y="995"/>
      <point x="140" y="987" type="curve" smooth="yes"/>
      <point x="124" y="986"/>
      <point x="112" y="959"/>
      <point x="110" y="943" type="curve" smooth="yes"/>
      <point x="107" y="918"/>
      <point x="115" y="909"/>
      <point x="128" y="903" type="curve"/>
      <point x="176" y="889"/>
      <point x="280" y="901"/>
      <point x="260" y="778" type="curve" smooth="yes"/>
      <point x="137" y="0" type="line"/>
      <point x="329" y="0" type="line"/>
      <point x="438" y="688" type="line"/>
      <point x="504" y="763"/>
      <point x="604" y="873"/>
      <point x="737" y="873" type="curve" smooth="yes" name="hr03"/>
      <point x="855" y="873"/>
      <point x="861" y="796"/>
      <point x="856" y="762" type="curve" smooth="yes"/>
      <point x="738" y="0" type="line"/>
      <point x="932" y="0" type="line"/>
      <point x="1042" y="722" type="line"/>
      <point x="1112" y="792"/>
      <point x="1208" y="873"/>
      <point x="1325" y="873" type="curve" smooth="yes"/>
      <point x="1443" y="873"/>
      <point x="1449" y="796"/>
      <point x="1444" y="762" type="curve" smooth="yes"/>
      <point x="1347" y="142" type="line" name="hr04"/>
      <point x="1347" y="142"/>
      <point x="1345" y="124"/>
      <point x="1345" y="102" type="curve" smooth="yes"/>
      <point x="1345" y="57"/>
      <point x="1351" y="-13"/>
      <point x="1467" y="-13" type="curve" smooth="yes"/>
      <point x="1516" y="-13"/>
      <point x="1611" y="8"/>
      <point x="1702" y="41" type="curve" smooth="yes"/>
      <point x="1720" y="47"/>
      <point x="1727" y="67"/>
      <point x="1727" y="83" type="curve" smooth="yes" name="hr05"/>
      <point x="1727" y="112"/>
      <point x="1714" y="113"/>
      <point x="1702" y="113" type="curve" smooth="yes"/>
      <point x="1682" y="113"/>
      <point x="1630" y="96"/>
      <point x="1602" y="96" type="curve" smooth="yes"/>
      <point x="1546" y="96"/>
      <point x="1539" y="130"/>
      <point x="1545" y="175" type="curve"/>
    </contour>
    <contour>
      <point x="1090" y="1700" type="move" name="top"/>
    </contour>
    <contour>
      <point x="910" y="-170" type="move" name="btm"/>
    </contour>
  </outline>
</glyph>
<glyph name="n" format="1">
  <advance width="1208"/>
  <unicode hex="006E"/>
  <outline>
    <contour>
      <point x="1045" y="766" type="line" name="hr01"/>
      <point x="1070" y="974"/>
      <point x="958" y="1014"/>
      <point x="841" y="1014" type="curve" smooth="yes" name="hr02"/>
      <point x="656" y="1014"/>
      <point x="495" y="842"/>
      <point x="442" y="785" type="curve"/>
      <point x="468" y="957" type="line" smooth="yes" name="hr03"/>
      <point x="472" y="989"/>
      <point x="455" y="997"/>
      <point x="444" y="997" type="curve" smooth="yes"/>
      <point x="388" y="996"/>
      <point x="270" y="995"/>
      <point x="140" y="987" type="curve" smooth="yes"/>
      <point x="124" y="986"/>
      <point x="112" y="959"/>
      <point x="110" y="943" type="curve" smooth="yes"/>
      <point x="108" y="918"/>
      <point x="114" y="909"/>
      <point x="128" y="903" type="curve"/>
      <point x="176" y="889"/>
      <point x="279" y="901"/>
      <point x="260" y="778" type="curve" smooth="yes"/>
      <point x="139" y="0" type="line"/>
      <point x="331" y="0" type="line"/>
      <point x="440" y="689" type="line"/>
      <point x="506" y="774"/>
      <point x="653" y="874"/>
      <point x="763" y="874" type="curve" smooth="yes" name="hr04"/>
      <point x="834" y="874"/>
      <point x="862" y="857"/>
      <point x="852" y="784" type="curve" smooth="yes"/>
      <point x="755" y="142" type="line" name="hr05"/>
      <point x="755" y="142"/>
      <point x="753" y="124"/>
      <point x="753" y="102" type="curve" smooth="yes"/>
      <point x="753" y="57"/>
      <point x="759" y="-13"/>
      <point x="875" y="-13" type="curve" smooth="yes"/>
      <point x="924" y="-13"/>
      <point x="1019" y="8"/>
      <point x="1110" y="41" type="curve" smooth="yes"/>
      <point x="1128" y="47"/>
      <point x="1135" y="67"/>
      <point x="1135" y="83" type="curve" smooth="yes" name="hr06"/>
      <point x="1135" y="112"/>
      <point x="1122" y="113"/>
      <point x="1110" y="113" type="curve" smooth="yes"/>
      <point x="1090" y="113"/>
      <point x="1038" y="96"/>
      <point x="1010" y="96" type="curve" smooth="yes"/>
      <point x="954" y="96"/>
      <point x="947" y="130"/>
      <point x="953" y="175" type="curve"/>
    </contour>
    <contour>
      <point x="772" y="1700" type="move" name="top"/>
    </contour>
    <contour>
      <point x="512" y="-170" type="move" name="btm"/>
    </contour>
  </outline>
</glyph>
<glyph name="o" format="1">
  <advance width="1100"/>
  <unicode hex="006F"/>
  <outline>
    <contour>
      <point x="93" y="411" type="curve" name="hr00" smooth="yes"/>
      <point x="98" y="153"/>
      <point x="238" y="-28"/>
      <point x="490" y="-28" type="curve" smooth="yes"/>
      <point x="817" y="-28"/>
      <point x="1013" y="255"/>
      <point x="1006" y="585" type="curve" smooth="yes"/>
      <point x="1001" y="837"/>
      <point x="865" y="1014"/>
      <point x="613" y="1014" type="curve" smooth="yes"/>
      <point x="280" y="1014"/>
      <point x="87" y="705"/>
    </contour>
    <contour>
      <point x="486" y="59" type="curve" smooth="yes"/>
      <point x="347" y="59"/>
      <point x="307" y="177"/>
      <point x="304" y="348" type="curve" smooth="yes"/>
      <point x="298" y="620"/>
      <point x="379" y="926"/>
      <point x="612" y="926" type="curve" smooth="yes"/>
      <point x="750" y="926"/>
      <point x="788" y="813"/>
      <point x="791" y="646" type="curve" smooth="yes"/>
      <point x="797" y="368"/>
      <point x="718" y="59"/>
    </contour>
    <contour>
      <point x="549" y="-170" type="move" name="btm"/>
    </contour>
    <contour>
      <point x="717" y="1700" type="move" name="top"/>
    </contour>
  </outline>
</glyph>
<glyph name="p" format="1">
  <advance width="1184"/>
  <unicode hex="0070"/>
  <outline>
    <contour>
      <point x="327" y="11" type="line" name="hr01"/>
      <point x="353" y="158" type="line"/>
      <point x="429" y="720" type="line"/>
      <point x="432" y="815" type="line"/>
      <point x="454" y="957" type="line" name="hr02" smooth="yes"/>
      <point x="459" y="989"/>
      <point x="441" y="997"/>
      <point x="430" y="997" type="curve" smooth="yes"/>
      <point x="374" y="996"/>
      <point x="258" y="995"/>
      <point x="128" y="987" type="curve" smooth="yes"/>
      <point x="112" y="986"/>
      <point x="100" y="959"/>
      <point x="98" y="943" type="curve" smooth="yes"/>
      <point x="96" y="918"/>
      <point x="102" y="908"/>
      <point x="116" y="903" type="curve" smooth="yes"/>
      <point x="163" y="886"/>
      <point x="265" y="902"/>
      <point x="248" y="778" type="curve" smooth="yes"/>
      <point x="96" y="-269" type="line" smooth="yes"/>
      <point x="84" y="-355"/>
      <point x="10" y="-361"/>
      <point x="-40" y="-366" type="curve" smooth="yes"/>
      <point x="-67" y="-369"/>
      <point x="-76" y="-373"/>
      <point x="-80" y="-403" type="curve" smooth="yes"/>
      <point x="-82" y="-418"/>
      <point x="-74" y="-444"/>
      <point x="-53" y="-444" type="curve" smooth="yes"/>
      <point x="437" y="-444" type="line" smooth="yes"/>
      <point x="460" y="-444"/>
      <point x="474" y="-418"/>
      <point x="477" y="-403" type="curve" smooth="yes"/>
      <point x="480" y="-382"/>
      <point x="475" y="-368"/>
      <point x="449" y="-366" type="curve" smooth="yes"/>
      <point x="371" y="-359"/>
      <point x="270" y="-346"/>
      <point x="276" y="-302" type="curve" smooth="yes"/>
      <point x="312" y="-108" type="line"/>
    </contour>
    <contour>
      <point x="412" y="679" type="line"/>
      <point x="467" y="782"/>
      <point x="609" y="895"/>
      <point x="704" y="895" type="curve" name="hr03" smooth="yes"/>
      <point x="839" y="895"/>
      <point x="871" y="757"/>
      <point x="871" y="621" type="curve" smooth="yes"/>
      <point x="871" y="409"/>
      <point x="807" y="65"/>
      <point x="560" y="65" type="curve" smooth="yes"/>
      <point x="454" y="65"/>
      <point x="353" y="119"/>
      <point x="332" y="206" type="curve"/>
      <point x="219" y="101" type="line"/>
      <point x="282" y="25"/>
      <point x="373" y="-30"/>
      <point x="563" y="-30" type="curve" smooth="yes"/>
      <point x="865" y="-30"/>
      <point x="1075" y="273"/>
      <point x="1075" y="608" type="curve" smooth="yes"/>
      <point x="1075" y="823"/>
      <point x="1002" y="1013"/>
      <point x="760" y="1013" type="curve" smooth="yes"/>
      <point x="663" y="1013"/>
      <point x="515" y="954"/>
      <point x="427" y="802" type="curve"/>
    </contour>
    <contour>
      <point x="499" y="-170" type="move" name="btm"/>
    </contour>
    <contour>
      <point x="783" y="1700" type="move" name="top"/>
    </contour>
  </outline>
</glyph>
<glyph name="q" format="1">
  <advance width="1137"/>
  <unicode hex="0071"/>
  <outline>
    <contour>
      <point x="762" y="346" type="line" name="hr00"/>
      <point x="745" y="154" type="line"/>
      <point x="715" y="-29" type="line"/>
      <point x="669" y="-302" type="line" smooth="yes"/>
      <point x="662" y="-346"/>
      <point x="607" y="-359"/>
      <point x="532" y="-366" type="curve" smooth="yes"/>
      <point x="506" y="-368"/>
      <point x="497" y="-382"/>
      <point x="494" y="-403" type="curve" smooth="yes"/>
      <point x="492" y="-418"/>
      <point x="499" y="-444"/>
      <point x="522" y="-444" type="curve" smooth="yes"/>
      <point x="937" y="-444" type="line" smooth="yes"/>
      <point x="960" y="-444"/>
      <point x="975" y="-418"/>
      <point x="977" y="-403" type="curve" smooth="yes"/>
      <point x="981" y="-373"/>
      <point x="974" y="-369"/>
      <point x="946" y="-366" type="curve" smooth="yes"/>
      <point x="895" y="-361"/>
      <point x="846" y="-355"/>
      <point x="857" y="-275" type="curve" smooth="yes"/>
      <point x="1052" y="994" type="line" smooth="yes"/>
      <point x="1058" y="1033"/>
      <point x="1005" y="1040"/>
      <point x="971" y="1007" type="curve" smooth="yes"/>
      <point x="954" y="991"/>
      <point x="871" y="924"/>
      <point x="849" y="906" type="curve"/>
    </contour>
    <contour>
      <point x="769" y="329" type="line"/>
      <point x="712" y="213"/>
      <point x="555" y="88"/>
      <point x="460" y="88" type="curve" smooth="yes"/>
      <point x="325" y="88"/>
      <point x="293" y="226"/>
      <point x="293" y="362" type="curve" smooth="yes"/>
      <point x="293" y="574"/>
      <point x="357" y="918"/>
      <point x="604" y="918" type="curve" smooth="yes"/>
      <point x="710" y="918"/>
      <point x="811" y="864"/>
      <point x="832" y="777" type="curve"/>
      <point x="945" y="882" type="line"/>
      <point x="882" y="958"/>
      <point x="791" y="1013"/>
      <point x="601" y="1013" type="curve" smooth="yes"/>
      <point x="299" y="1013"/>
      <point x="89" y="710"/>
      <point x="89" y="375" type="curve" smooth="yes"/>
      <point x="89" y="160"/>
      <point x="162" y="-30"/>
      <point x="404" y="-30" type="curve" smooth="yes"/>
      <point x="501" y="-30"/>
      <point x="666" y="32"/>
      <point x="757" y="213" type="curve"/>
    </contour>
    <contour>
      <point x="575" y="1700" type="move" name="top"/>
    </contour>
    <contour>
      <point x="575" y="-170" type="move" name="btm"/>
    </contour>
  </outline>
</glyph>
<glyph name="r" format="1">
  <advance width="945"/>
  <unicode hex="0072"/>
  <outline>
    <contour>
      <point x="463" y="957" type="line" name="hr01"/>
      <point x="468" y="989"/>
      <point x="450" y="997"/>
      <point x="439" y="997" type="curve" smooth="yes"/>
      <point x="383" y="996"/>
      <point x="267" y="995"/>
      <point x="137" y="987" type="curve" smooth="yes"/>
      <point x="121" y="986"/>
      <point x="109" y="959"/>
      <point x="107" y="943" type="curve" smooth="yes"/>
      <point x="104" y="918"/>
      <point x="112" y="909"/>
      <point x="125" y="903" type="curve"/>
      <point x="173" y="889"/>
      <point x="277" y="901"/>
      <point x="257" y="778" type="curve" smooth="yes"/>
      <point x="134" y="0" type="line"/>
      <point x="326" y="0" type="line"/>
      <point x="433" y="661" type="line"/>
      <point x="495" y="743"/>
      <point x="647" y="876"/>
      <point x="727" y="876" type="curve" name="hr02"/>
      <point x="790" y="685" type="line"/>
      <point x="794" y="682"/>
      <point x="809" y="671"/>
      <point x="819" y="671" type="curve" smooth="yes"/>
      <point x="913" y="670"/>
      <point x="945" y="725"/>
      <point x="945" y="819" type="curve" smooth="yes"/>
      <point x="945" y="918"/>
      <point x="881" y="1014"/>
      <point x="770" y="1014" type="curve" smooth="yes"/>
      <point x="617" y="1014"/>
      <point x="488" y="822"/>
      <point x="443" y="767" type="curve"/>
    </contour>
    <contour>
      <point x="638" y="1700" type="move" name="top"/>
    </contour>
    <contour>
      <point x="204" y="-170" type="move" name="btm"/>
    </contour>
  </outline>
</glyph>
<glyph name="s" format="1">
  <advance width="883"/>
  <unicode hex="0073"/>
  <outline>
    <contour>
      <point x="431" y="59" type="curve" smooth="yes" name="hr00"/>
      <point x="354" y="59"/>
      <point x="329" y="59"/>
      <point x="303" y="82" type="curve"/>
      <point x="238" y="154"/>
      <point x="211" y="204"/>
      <point x="188" y="252" type="curve"/>
      <point x="177" y="269"/>
      <point x="156" y="275"/>
      <point x="136" y="275" type="curve" smooth="yes"/>
      <point x="92" y="275"/>
      <point x="45" y="247"/>
      <point x="45" y="191" type="curve" smooth="yes"/>
      <point x="45" y="50"/>
      <point x="181" y="-28"/>
      <point x="396" y="-28" type="curve" smooth="yes"/>
      <point x="566" y="-28"/>
      <point x="761" y="63"/>
      <point x="761" y="271" type="curve" smooth="yes"/>
      <point x="761" y="523"/>
      <point x="341" y="619"/>
      <point x="333" y="795" type="curve" smooth="yes"/>
      <point x="328" y="897"/>
      <point x="414" y="935"/>
      <point x="493" y="934" type="curve" smooth="yes"/>
      <point x="534" y="934"/>
      <point x="558" y="916"/>
      <point x="566" y="911" type="curve"/>
      <point x="615" y="864"/>
      <point x="645" y="818"/>
      <point x="670" y="771" type="curve"/>
      <point x="683" y="755"/>
      <point x="692" y="743"/>
      <point x="720" y="743" type="curve" smooth="yes"/>
      <point x="757" y="743"/>
      <point x="809" y="781"/>
      <point x="805" y="842" type="curve" smooth="yes"/>
      <point x="799" y="939"/>
      <point x="705" y="1013"/>
      <point x="499" y="1013" type="curve" smooth="yes"/>
      <point x="381" y="1013"/>
      <point x="154" y="968"/>
      <point x="164" y="735" type="curve" smooth="yes"/>
      <point x="176" y="467"/>
      <point x="568" y="403"/>
      <point x="577" y="213" type="curve" smooth="yes"/>
      <point x="582" y="102"/>
      <point x="495" y="59"/>
    </contour>
    <contour>
      <point x="671" y="1700" type="move" name="top"/>
    </contour>
    <contour>
      <point x="365" y="-170" type="move" name="btm"/>
    </contour>
  </outline>
</glyph>
<glyph name="t" format="1">
  <advance width="711"/>
  <unicode hex="0074"/>
  <outline>
    <contour>
      <point x="157" y="223" type="line" name="hr00" smooth="yes"/>
      <point x="130" y="20"/>
      <point x="219" y="-28"/>
      <point x="356" y="-28" type="curve" smooth="yes"/>
      <point x="452" y="-28"/>
      <point x="560" y="26"/>
      <point x="628" y="93" type="curve" smooth="yes"/>
      <point x="651" y="116"/>
      <point x="621" y="160"/>
      <point x="603" y="151" type="curve" smooth="yes"/>
      <point x="559" y="128"/>
      <point x="514" y="91"/>
      <point x="435" y="91" type="curve" smooth="yes"/>
      <point x="384" y="91"/>
      <point x="335" y="110"/>
      <point x="358" y="280" type="curve" smooth="yes"/>
      <point x="445" y="892" type="line"/>
      <point x="686" y="892" type="line"/>
      <point x="701" y="898"/>
      <point x="716" y="935"/>
      <point x="719" y="960" type="curve" smooth="yes"/>
      <point x="722" y="976"/>
      <point x="716" y="993"/>
      <point x="700" y="994" type="curve"/>
      <point x="459" y="994" type="line"/>
      <point x="498" y="1267" type="line" smooth="yes"/>
      <point x="499" y="1275"/>
      <point x="502" y="1291"/>
      <point x="485" y="1291" type="curve" smooth="yes"/>
      <point x="462" y="1291"/>
      <point x="431" y="1295"/>
      <point x="421" y="1268" type="curve" smooth="yes"/>
      <point x="339" y="1056"/>
      <point x="276" y="994"/>
      <point x="162" y="984" type="curve"/>
      <point x="147" y="978"/>
      <point x="135" y="966"/>
      <point x="132" y="941" type="curve" smooth="yes"/>
      <point x="130" y="925"/>
      <point x="133" y="893"/>
      <point x="149" y="892" type="curve"/>
      <point x="254" y="892" type="line"/>
    </contour>
    <contour>
      <point x="270" y="-170" type="move" name="btm"/>
    </contour>
    <contour>
      <point x="510" y="1700" type="move" name="top"/>
    </contour>
  </outline>
</glyph>
<glyph name="u" format="1">
  <advance width="1178"/>
  <unicode hex="0075"/>
  <outline>
    <contour>
      <point x="728" y="142" type="curve"/>
      <point x="728" y="142"/>
      <point x="726" y="124"/>
      <point x="726" y="102" type="curve" smooth="yes"/>
      <point x="726" y="57"/>
      <point x="732" y="-13"/>
      <point x="848" y="-13" type="curve" smooth="yes"/>
      <point x="897" y="-13"/>
      <point x="992" y="8"/>
      <point x="1083" y="41" type="curve" smooth="yes"/>
      <point x="1101" y="47"/>
      <point x="1108" y="67"/>
      <point x="1108" y="83" type="curve" smooth="yes"/>
      <point x="1108" y="112"/>
      <point x="1095" y="113"/>
      <point x="1083" y="113" type="curve" smooth="yes"/>
      <point x="1063" y="113"/>
      <point x="1011" y="96"/>
      <point x="983" y="96" type="curve" smooth="yes"/>
      <point x="927" y="96"/>
      <point x="920" y="130"/>
      <point x="926" y="175" type="curve"/>
      <point x="1039" y="958" type="line" smooth="yes"/>
      <point x="1042" y="979"/>
      <point x="1035" y="994"/>
      <point x="1007" y="994" type="curve" smooth="yes"/>
      <point x="842" y="993" type="line"/>
      <point x="735" y="201" type="line"/>
      <point x="676" y="151"/>
      <point x="592" y="93"/>
      <point x="476" y="93" type="curve" smooth="yes"/>
      <point x="358" y="93"/>
      <point x="351" y="168"/>
      <point x="362" y="243" type="curve" smooth="yes"/>
      <point x="450" y="852" type="line"/>
      <point x="450" y="852"/>
      <point x="489" y="1008"/>
      <point x="318" y="1007" type="curve" smooth="yes"/>
      <point x="269" y="1007"/>
      <point x="203" y="990"/>
      <point x="114" y="957" type="curve"/>
      <point x="92" y="950"/>
      <point x="82" y="927"/>
      <point x="85" y="912" type="curve" smooth="yes"/>
      <point x="90" y="883"/>
      <point x="107" y="881"/>
      <point x="129" y="885" type="curve" smooth="yes"/>
      <point x="148" y="888"/>
      <point x="173" y="894"/>
      <point x="195" y="894" type="curve" smooth="yes"/>
      <point x="231" y="894"/>
      <point x="261" y="881"/>
      <point x="253" y="822" type="curve" smooth="yes"/>
      <point x="170" y="262" type="line" smooth="yes"/>
      <point x="135" y="14"/>
      <point x="271" y="-28"/>
      <point x="416" y="-28" type="curve" smooth="yes"/>
      <point x="551" y="-28"/>
      <point x="705" y="76"/>
      <point x="747" y="141" type="curve"/>
      <point x="747" y="141"/>
      <point x="728" y="142"/>
    </contour>
    <contour>
      <point x="508" y="-170" type="move" name="btm"/>
    </contour>
    <contour>
      <point x="711" y="1700" type="move" name="top"/>
    </contour>
  </outline>
</glyph>
<glyph name="v" format="1">
  <advance width="1102"/>
  <unicode hex="0076"/>
  <outline>
    <contour>
      <point x="206" y="840" type="curve" name="hr00"/>
      <point x="288" y="684"/>
      <point x="355" y="361"/>
      <point x="376" y="96" type="curve"/>
      <point x="380" y="37"/>
      <point x="375" y="12"/>
      <point x="375" y="12" type="curve"/>
      <point x="373" y="5"/>
      <point x="368" y="-30"/>
      <point x="430" y="-30" type="curve" smooth="yes"/>
      <point x="487" y="-30"/>
      <point x="505" y="-29"/>
      <point x="510" y="-24" type="curve" smooth="yes"/>
      <point x="852" y="333"/>
      <point x="1047" y="704"/>
      <point x="1047" y="863" type="curve" smooth="yes"/>
      <point x="1047" y="938"/>
      <point x="1001" y="1014"/>
      <point x="915" y="1014" type="curve" smooth="yes"/>
      <point x="861" y="1014"/>
      <point x="822" y="980"/>
      <point x="822" y="906" type="curve" smooth="yes"/>
      <point x="822" y="864"/>
      <point x="849" y="818"/>
      <point x="849" y="750" type="curve" smooth="yes"/>
      <point x="849" y="565"/>
      <point x="665" y="271"/>
      <point x="496" y="85" type="curve"/>
      <point x="503" y="110"/>
      <point x="536" y="173"/>
      <point x="535" y="197" type="curve" smooth="yes"/>
      <point x="522" y="527"/>
      <point x="464" y="760"/>
      <point x="406" y="905" type="curve"/>
      <point x="374" y="979"/>
      <point x="329" y="1015"/>
      <point x="261" y="1015" type="curve" smooth="yes"/>
      <point x="183" y="1015"/>
      <point x="90" y="956"/>
      <point x="25" y="851" type="curve" smooth="yes"/>
      <point x="12" y="830"/>
      <point x="20" y="803"/>
      <point x="30" y="792" type="curve"/>
      <point x="52" y="772"/>
      <point x="63" y="781"/>
      <point x="77" y="801" type="curve"/>
      <point x="98" y="828"/>
      <point x="134" y="866"/>
      <point x="166" y="867" type="curve" smooth="yes"/>
      <point x="181" y="867"/>
      <point x="194" y="860"/>
    </contour>
    <contour>
      <point x="434" y="-170" type="move" name="btm"/>
    </contour>
    <contour>
      <point x="680" y="1700" type="move" name="top"/>
    </contour>
  </outline>
</glyph>
<glyph name="w" format="1">
  <advance width="1684"/>
  <unicode hex="0077"/>
  <outline>
    <contour>
      <point x="840" y="862" type="curve" name="hr00" smooth="yes"/>
      <point x="941" y="709"/>
      <point x="950" y="362"/>
      <point x="963" y="96" type="curve"/>
      <point x="967" y="37"/>
      <point x="962" y="12"/>
      <point x="962" y="12" type="curve"/>
      <point x="960" y="5"/>
      <point x="955" y="-30"/>
      <point x="1017" y="-30" type="curve" smooth="yes"/>
      <point x="1074" y="-30"/>
      <point x="1102" y="-29"/>
      <point x="1107" y="-24" type="curve" smooth="yes"/>
      <point x="1449" y="333"/>
      <point x="1634" y="704"/>
      <point x="1634" y="863" type="curve" smooth="yes"/>
      <point x="1634" y="938"/>
      <point x="1588" y="1014"/>
      <point x="1502" y="1014" type="curve" smooth="yes"/>
      <point x="1448" y="1014"/>
      <point x="1409" y="980"/>
      <point x="1409" y="906" type="curve" smooth="yes"/>
      <point x="1409" y="864"/>
      <point x="1436" y="818"/>
      <point x="1436" y="750" type="curve" smooth="yes"/>
      <point x="1436" y="565"/>
      <point x="1252" y="271"/>
      <point x="1083" y="85" type="curve"/>
      <point x="1090" y="110"/>
      <point x="1122" y="173"/>
      <point x="1122" y="197" type="curve" smooth="yes"/>
      <point x="1118" y="526"/>
      <point x="1096" y="763"/>
      <point x="1032" y="905" type="curve" smooth="yes"/>
      <point x="994" y="989"/>
      <point x="949" y="1015"/>
      <point x="881" y="1015" type="curve" smooth="yes"/>
      <point x="811" y="1015"/>
      <point x="728" y="957"/>
      <point x="673" y="866" type="curve" smooth="yes"/>
      <point x="661" y="846"/>
      <point x="670" y="820"/>
      <point x="682" y="810" type="curve" smooth="yes"/>
      <point x="699" y="798"/>
      <point x="716" y="808"/>
      <point x="733" y="825" type="curve" smooth="yes"/>
      <point x="746" y="839"/>
      <point x="786" y="876"/>
      <point x="812" y="875" type="curve" smooth="yes"/>
      <point x="823" y="875"/>
      <point x="834" y="872"/>
    </contour>
    <contour>
      <point x="216" y="840" type="curve"/>
      <point x="298" y="684"/>
      <point x="365" y="361"/>
      <point x="386" y="96" type="curve"/>
      <point x="390" y="37"/>
      <point x="385" y="12"/>
      <point x="385" y="12" type="curve"/>
      <point x="383" y="5"/>
      <point x="378" y="-30"/>
      <point x="440" y="-30" type="curve" smooth="yes"/>
      <point x="497" y="-30"/>
      <point x="525" y="-29"/>
      <point x="530" y="-24" type="curve" smooth="yes"/>
      <point x="773" y="214"/>
      <point x="952" y="463"/>
      <point x="1035" y="674" type="curve"/>
      <point x="964" y="949" type="line"/>
      <point x="910" y="949"/>
      <point x="875" y="980"/>
      <point x="875" y="906" type="curve" smooth="yes"/>
      <point x="875" y="864"/>
      <point x="902" y="818"/>
      <point x="902" y="750" type="curve" smooth="yes"/>
      <point x="902" y="565"/>
      <point x="690" y="271"/>
      <point x="506" y="85" type="curve"/>
      <point x="513" y="110"/>
      <point x="545" y="173"/>
      <point x="545" y="197" type="curve" smooth="yes"/>
      <point x="541" y="526"/>
      <point x="478" y="758"/>
      <point x="416" y="905" type="curve"/>
      <point x="371" y="996"/>
      <point x="339" y="1015"/>
      <point x="271" y="1015" type="curve" smooth="yes"/>
      <point x="197" y="1015"/>
      <point x="100" y="959"/>
      <point x="35" y="851" type="curve" smooth="yes"/>
      <point x="23" y="830"/>
      <point x="30" y="803"/>
      <point x="40" y="792" type="curve"/>
      <point x="62" y="772"/>
      <point x="73" y="781"/>
      <point x="87" y="801" type="curve"/>
      <point x="108" y="828"/>
      <point x="144" y="867"/>
      <point x="177" y="867" type="curve" smooth="yes"/>
      <point x="191" y="867"/>
      <point x="205" y="859"/>
    </contour>
    <contour>
      <point x="752" y="-170" type="move" name="btm"/>
    </contour>
    <contour>
      <point x="1046" y="1700" type="move" name="top"/>
    </contour>
  </outline>
</glyph>
<glyph name="x" format="1">
  <advance width="1026"/>
  <unicode hex="0078"/>
  <outline>
    <contour>
      <point x="553" y="470" type="line" name="hr00"/>
      <point x="859" y="850" type="line"/>
      <point x="914" y="745" type="line" smooth="yes"/>
      <point x="923" y="728"/>
      <point x="937" y="720"/>
      <point x="952" y="720" type="curve" smooth="yes"/>
      <point x="984" y="720"/>
      <point x="1021" y="759"/>
      <point x="1021" y="837" type="curve" smooth="yes"/>
      <point x="1021" y="916"/>
      <point x="985" y="1004"/>
      <point x="899" y="1004" type="curve" smooth="yes"/>
      <point x="850" y="1004"/>
      <point x="793" y="972"/>
      <point x="739" y="891" type="curve"/>
      <point x="515" y="536" type="line"/>
    </contour>
    <contour>
      <point x="491" y="864" type="line"/>
      <point x="462" y="963"/>
      <point x="412" y="1004"/>
      <point x="342" y="1004" type="curve" smooth="yes"/>
      <point x="240" y="1004"/>
      <point x="146" y="934"/>
      <point x="89" y="823" type="curve" smooth="yes"/>
      <point x="79" y="803"/>
      <point x="69" y="781"/>
      <point x="81" y="770" type="curve" smooth="yes"/>
      <point x="103" y="748"/>
      <point x="121" y="750"/>
      <point x="134" y="769" type="curve" smooth="yes"/>
      <point x="146" y="785"/>
      <point x="162" y="800"/>
      <point x="176" y="815" type="curve" smooth="yes"/>
      <point x="219" y="860"/>
      <point x="278" y="879"/>
      <point x="298" y="829" type="curve" smooth="yes"/>
      <point x="452" y="442" type="line"/>
      <point x="547" y="112" type="line" smooth="yes"/>
      <point x="575" y="14"/>
      <point x="620" y="-28"/>
      <point x="690" y="-28" type="curve" smooth="yes"/>
      <point x="792" y="-28"/>
      <point x="882" y="41"/>
      <point x="940" y="166" type="curve" smooth="yes"/>
      <point x="949" y="187"/>
      <point x="942" y="206"/>
      <point x="930" y="216" type="curve" smooth="yes"/>
      <point x="918" y="227"/>
      <point x="898" y="230"/>
      <point x="886" y="211" type="curve" smooth="yes"/>
      <point x="875" y="193"/>
      <point x="866" y="183"/>
      <point x="852" y="166" type="curve" smooth="yes"/>
      <point x="807" y="113"/>
      <point x="754" y="103"/>
      <point x="738" y="142" type="curve" smooth="yes"/>
      <point x="583" y="525" type="line"/>
    </contour>
    <contour>
      <point x="461" y="507" type="line"/>
      <point x="149" y="129" type="line"/>
      <point x="97" y="229" type="line" smooth="yes"/>
      <point x="89" y="244"/>
      <point x="77" y="251"/>
      <point x="64" y="251" type="curve" smooth="yes"/>
      <point x="30" y="250"/>
      <point x="-12" y="203"/>
      <point x="-12" y="119" type="curve" smooth="yes"/>
      <point x="-12" y="40"/>
      <point x="52" y="-25"/>
      <point x="112" y="-25" type="curve" smooth="yes"/>
      <point x="161" y="-25"/>
      <point x="217" y="2"/>
      <point x="270" y="84" type="curve" smooth="yes"/>
      <point x="499" y="441" type="line"/>
    </contour>
    <contour>
      <point x="520" y="1700" type="move" name="top"/>
    </contour>
    <contour>
      <point x="520" y="-170" type="move" name="btm"/>
    </contour>
  </outline>
</glyph>
<glyph name="y" format="1">
  <advance width="1146"/>
  <unicode hex="0079"/>
  <outline>
    <contour>
      <point x="351" y="-236" type="curve" name="hr00" smooth="yes"/>
      <point x="284" y="-295"/>
      <point x="158" y="-278"/>
      <point x="126" y="-278" type="curve" smooth="yes"/>
      <point x="50" y="-278"/>
      <point x="-24" y="-303"/>
      <point x="-24" y="-373" type="curve" smooth="yes"/>
      <point x="-24" y="-403"/>
      <point x="1" y="-449"/>
      <point x="102" y="-449" type="curve" smooth="yes"/>
      <point x="324" y="-449"/>
      <point x="486" y="-251"/>
      <point x="591" y="-105" type="curve" smooth="yes"/>
      <point x="890" y="281"/>
      <point x="1096" y="627"/>
      <point x="1096" y="863" type="curve" smooth="yes"/>
      <point x="1096" y="940"/>
      <point x="1065" y="1014"/>
      <point x="976" y="1014" type="curve" smooth="yes"/>
      <point x="925" y="1014"/>
      <point x="880" y="985"/>
      <point x="880" y="904" type="curve" smooth="yes"/>
      <point x="880" y="845"/>
      <point x="892" y="814"/>
      <point x="892" y="750" type="curve" smooth="yes"/>
      <point x="892" y="545"/>
      <point x="741" y="241"/>
      <point x="598" y="55" type="curve"/>
      <point x="598" y="70"/>
      <point x="598" y="91"/>
      <point x="597" y="115" type="curve" smooth="yes"/>
      <point x="591" y="365"/>
      <point x="531" y="730"/>
      <point x="454" y="905" type="curve" smooth="yes"/>
      <point x="415" y="994"/>
      <point x="370" y="1015"/>
      <point x="305" y="1015" type="curve" smooth="yes"/>
      <point x="241" y="1015"/>
      <point x="137" y="962"/>
      <point x="73" y="851" type="curve" smooth="yes"/>
      <point x="59" y="826"/>
      <point x="67" y="803"/>
      <point x="78" y="792" type="curve" smooth="yes"/>
      <point x="99" y="771"/>
      <point x="111" y="781"/>
      <point x="125" y="801" type="curve" smooth="yes"/>
      <point x="143" y="825"/>
      <point x="184" y="868"/>
      <point x="218" y="867" type="curve" smooth="yes"/>
      <point x="232" y="867"/>
      <point x="244" y="859"/>
      <point x="254" y="840" type="curve" smooth="yes"/>
      <point x="303" y="748"/>
      <point x="418" y="389"/>
      <point x="427" y="96" type="curve"/>
      <point x="427" y="68"/>
      <point x="427" y="33"/>
      <point x="427" y="33" type="curve"/>
      <point x="425" y="-11"/>
      <point x="473" y="-9"/>
      <point x="563" y="-9" type="curve"/>
      <point x="569" y="12" type="line"/>
      <point x="484" y="-98"/>
      <point x="460" y="-140"/>
    </contour>
    <contour>
      <point x="523" y="-170" type="move" name="btm"/>
    </contour>
    <contour>
      <point x="727" y="1700" type="move" name="top"/>
    </contour>
  </outline>
</glyph>
<glyph name="z" format="1">
  <advance width="909"/>
  <unicode hex="007A"/>
  <outline>
    <contour>
      <point x="44" y="34" type="curve" name="hr00" smooth="yes"/>
      <point x="41" y="15"/>
      <point x="56" y="0"/>
      <point x="75" y="0" type="curve" smooth="yes"/>
      <point x="746" y="0" type="line"/>
      <point x="766" y="1"/>
      <point x="795" y="15"/>
      <point x="798" y="41" type="curve"/>
      <point x="857" y="293" type="line"/>
      <point x="860" y="316"/>
      <point x="817" y="327"/>
      <point x="802" y="327" type="curve" smooth="yes"/>
      <point x="781" y="327"/>
      <point x="767" y="320"/>
      <point x="760" y="294" type="curve" smooth="yes"/>
      <point x="748" y="245"/>
      <point x="650" y="83"/>
      <point x="549" y="83" type="curve" smooth="yes"/>
      <point x="283" y="83" type="line"/>
      <point x="395" y="219" type="line"/>
      <point x="843" y="881" type="line" smooth="yes"/>
      <point x="876" y="926"/>
      <point x="874" y="946"/>
      <point x="874" y="960" type="curve" smooth="yes"/>
      <point x="874" y="979"/>
      <point x="860" y="994"/>
      <point x="824" y="994" type="curve" smooth="yes"/>
      <point x="210" y="994" type="line"/>
      <point x="190" y="993"/>
      <point x="161" y="977"/>
      <point x="157" y="953" type="curve" smooth="yes"/>
      <point x="112" y="726" type="line" smooth="yes"/>
      <point x="108" y="703"/>
      <point x="143" y="692"/>
      <point x="158" y="692" type="curve" smooth="yes"/>
      <point x="179" y="692"/>
      <point x="203" y="699"/>
      <point x="209" y="725" type="curve" smooth="yes"/>
      <point x="221" y="774"/>
      <point x="298" y="911"/>
      <point x="386" y="911" type="curve" smooth="yes"/>
      <point x="655" y="911" type="line"/>
      <point x="560" y="796" type="line"/>
      <point x="100" y="123" type="line" smooth="yes"/>
      <point x="60" y="66"/>
      <point x="48" y="63"/>
    </contour>
    <contour>
      <point x="455" y="-170" type="move" name="btm"/>
    </contour>
    <contour>
      <point x="601" y="1700" type="move" name="top"/>
    </contour>
  </outline>
</glyph>
<glyph name="braceleft" format="1">
  <advance width="881"/>
  <unicode hex="007B"/>
  <outline>
    <contour>
      <point x="257" y="-29" type="line" smooth="yes" name="hr00"/>
      <point x="223" y="-251"/>
      <point x="418" y="-328"/>
      <point x="558" y="-328" type="curve" smooth="yes"/>
      <point x="671" y="-328" type="line"/>
      <point x="685" y="-241" type="line"/>
      <point x="572" y="-241" type="line" smooth="yes"/>
      <point x="464" y="-241"/>
      <point x="440" y="-148"/>
      <point x="452" y="-72" type="curve" smooth="yes"/>
      <point x="516" y="335" type="line" smooth="yes"/>
      <point x="541" y="498"/>
      <point x="413" y="575"/>
      <point x="246" y="603" type="curve"/>
      <point x="422" y="630"/>
      <point x="574" y="710"/>
      <point x="600" y="873" type="curve" smooth="yes"/>
      <point x="663" y="1280" type="line" smooth="yes"/>
      <point x="676" y="1356"/>
      <point x="728" y="1449"/>
      <point x="836" y="1449" type="curve" smooth="yes"/>
      <point x="949" y="1449" type="line"/>
      <point x="963" y="1536" type="line"/>
      <point x="850" y="1536" type="line" smooth="yes"/>
      <point x="710" y="1536"/>
      <point x="491" y="1459"/>
      <point x="456" y="1237" type="curve" smooth="yes"/>
      <point x="396" y="850" type="line" smooth="yes"/>
      <point x="379" y="741"/>
      <point x="271" y="659"/>
      <point x="146" y="659" type="curve" smooth="yes"/>
      <point x="116" y="659" type="line"/>
      <point x="100" y="549" type="line"/>
      <point x="130" y="549" type="line" smooth="yes"/>
      <point x="255" y="549"/>
      <point x="335" y="467"/>
      <point x="319" y="358" type="curve" smooth="yes"/>
    </contour>
  </outline>
</glyph>
<glyph name="bar" format="1">
  <advance width="768"/>
  <unicode hex="007C"/>
  <outline>
    <contour>
      <point x="483" y="1535" type="line" name="hr00"/>
      <point x="483" y="-367" type="line"/>
      <point x="338" y="-367" type="line"/>
      <point x="338" y="1535" type="line"/>
    </contour>
  </outline>
</glyph>
<glyph name="braceright" format="1">
  <advance width="881"/>
  <unicode hex="007D"/>
  <outline>
    <contour>
      <point x="605" y="1237" type="line" name="hr00"/>
      <point x="640" y="1459"/>
      <point x="445" y="1536"/>
      <point x="305" y="1536" type="curve" smooth="yes"/>
      <point x="192" y="1536" type="line"/>
      <point x="178" y="1449" type="line"/>
      <point x="291" y="1449" type="line" smooth="yes"/>
      <point x="399" y="1449"/>
      <point x="422" y="1356"/>
      <point x="411" y="1280" type="curve"/>
      <point x="347" y="873" type="line"/>
      <point x="322" y="710"/>
      <point x="450" y="633"/>
      <point x="617" y="605" type="curve"/>
      <point x="441" y="578"/>
      <point x="288" y="498"/>
      <point x="263" y="335" type="curve" smooth="yes"/>
      <point x="199" y="-72" type="line" smooth="yes"/>
      <point x="187" y="-148"/>
      <point x="135" y="-241"/>
      <point x="27" y="-241" type="curve" smooth="yes"/>
      <point x="-85" y="-241" type="line"/>
      <point x="-99" y="-328" type="line"/>
      <point x="14" y="-328" type="line" smooth="yes"/>
      <point x="153" y="-328"/>
      <point x="371" y="-251"/>
      <point x="407" y="-29" type="curve"/>
      <point x="467" y="358" type="line" smooth="yes"/>
      <point x="484" y="467"/>
      <point x="591" y="549"/>
      <point x="716" y="549" type="curve" smooth="yes"/>
      <point x="746" y="549" type="line"/>
      <point x="763" y="659" type="line"/>
      <point x="733" y="659" type="line" smooth="yes"/>
      <point x="608" y="659"/>
      <point x="527" y="741"/>
      <point x="544" y="850" type="curve"/>
    </contour>
  </outline>
</glyph>
<glyph name="asciitilde" format="1">
  <advance width="1317"/>
  <unicode hex="007E"/>
  <outline>
    <contour>
      <point x="1007" y="510" type="curve" name="hr01" smooth="yes"/>
      <point x="1047" y="550"/>
      <point x="1067" y="593"/>
      <point x="1096" y="642" type="curve" smooth="yes"/>
      <point x="1104" y="655"/>
      <point x="1104" y="671"/>
      <point x="1095" y="684" type="curve" smooth="yes"/>
      <point x="1080" y="704"/>
      <point x="1067" y="705"/>
      <point x="1052" y="702" type="curve"/>
      <point x="1000" y="681"/>
      <point x="944" y="498"/>
      <point x="720" y="609" type="curve" smooth="yes"/>
      <point x="629" y="648"/>
      <point x="561" y="705"/>
      <point x="452" y="705" type="curve" name="hr02" smooth="yes"/>
      <point x="386" y="705"/>
      <point x="322" y="679"/>
      <point x="281" y="630" type="curve" smooth="yes"/>
      <point x="241" y="590"/>
      <point x="211" y="537"/>
      <point x="182" y="488" type="curve" smooth="yes"/>
      <point x="174" y="475"/>
      <point x="174" y="459"/>
      <point x="183" y="446" type="curve" smooth="yes"/>
      <point x="198" y="426"/>
      <point x="211" y="425"/>
      <point x="226" y="428" type="curve"/>
      <point x="278" y="449"/>
      <point x="334" y="632"/>
      <point x="558" y="521" type="curve" smooth="yes"/>
      <point x="652" y="482"/>
      <point x="722" y="425"/>
      <point x="836" y="425" type="curve" name="hr03" smooth="yes"/>
      <point x="898" y="425"/>
      <point x="968" y="461"/>
    </contour>
  </outline>
</glyph>
<glyph name="cent" format="1">
  <advance width="1137"/>
  <unicode hex="00A2"/>
  <outline>
    <contour>
      <point x="752" y="1225" type="line" name="hr01"/>
      <point x="646" y="1225" type="line"/>
      <point x="619" y="1006" type="line" name="hr02"/>
      <point x="589" y="1000"/>
      <point x="651" y="921"/>
      <point x="726" y="1013" type="curve"/>
    </contour>
    <contour>
      <point x="422" y="-228" type="line"/>
      <point x="528" y="-228" type="line"/>
      <point x="554" y="-27" type="line"/>
      <point x="585" y="-25"/>
      <point x="519" y="34"/>
      <point x="448" y="-25" type="curve"/>
    </contour>
    <component base="c" xOffset="68"/>
  </outline>
</glyph>
<glyph name="sterling" format="1">
  <advance width="1274"/>
  <unicode hex="00A3"/>
  <outline>
    <contour>
      <point x="-23" y="82" type="curve" name="hr01" smooth="yes"/>
      <point x="-21" y="23"/>
      <point x="43" y="0"/>
      <point x="76" y="0" type="curve" smooth="yes"/>
      <point x="163" y="0"/>
      <point x="255" y="102"/>
      <point x="271" y="128" type="curve"/>
      <point x="353" y="141"/>
      <point x="492" y="-16"/>
      <point x="840" y="-16" type="curve" name="hr02" smooth="yes"/>
      <point x="1026" y="-16"/>
      <point x="1221" y="54"/>
      <point x="1214" y="262" type="curve" smooth="yes"/>
      <point x="1211" y="338"/>
      <point x="1163" y="408"/>
      <point x="1082" y="408" type="curve" smooth="yes"/>
      <point x="1018" y="408"/>
      <point x="988" y="378"/>
      <point x="984" y="350" type="curve"/>
      <point x="1029" y="199" type="line"/>
      <point x="1001" y="134"/>
      <point x="918" y="88"/>
      <point x="797" y="88" type="curve" smooth="yes"/>
      <point x="579" y="88"/>
      <point x="479" y="157"/>
      <point x="345" y="196" type="curve"/>
      <point x="395" y="256"/>
      <point x="481" y="406"/>
      <point x="512" y="603" type="curve" smooth="yes"/>
      <point x="562" y="893" type="line" smooth="yes"/>
      <point x="624" y="1251"/>
      <point x="702" y="1366"/>
      <point x="859" y="1366" type="curve" smooth="yes"/>
      <point x="884" y="1366"/>
      <point x="941" y="1359"/>
      <point x="965" y="1334" type="curve"/>
      <point x="1043" y="1195" type="line"/>
      <point x="1053" y="1182"/>
      <point x="1081" y="1175"/>
      <point x="1096" y="1175" type="curve" smooth="yes"/>
      <point x="1150" y="1175"/>
      <point x="1180" y="1222"/>
      <point x="1178" y="1282" type="curve" smooth="yes"/>
      <point x="1175" y="1356"/>
      <point x="1095" y="1448"/>
      <point x="903" y="1448" type="curve" smooth="yes"/>
      <point x="577" y="1448"/>
      <point x="416" y="1239"/>
      <point x="356" y="871" type="curve" smooth="yes"/>
      <point x="291" y="472"/>
      <point x="266" y="271"/>
      <point x="237" y="223" type="curve"/>
      <point x="132" y="227"/>
      <point x="-27" y="188"/>
    </contour>
    <contour>
      <point x="170" y="815" type="line" name="hr04"/>
      <point x="155" y="809"/>
      <point x="141" y="772"/>
      <point x="139" y="747" type="curve"/>
      <point x="135" y="731"/>
      <point x="142" y="714"/>
      <point x="158" y="713" type="curve"/>
      <point x="861" y="713" type="line"/>
      <point x="876" y="719"/>
      <point x="890" y="756"/>
      <point x="892" y="781" type="curve"/>
      <point x="896" y="797"/>
      <point x="889" y="814"/>
      <point x="873" y="815" type="curve"/>
      <point x="169" y="815" type="line"/>
    </contour>
  </outline>
</glyph>
<glyph name="currency" format="1">
  <advance width="1170"/>
  <unicode hex="00A4"/>
  <outline>
    <contour>
      <point x="262" y="555" type="curve" smooth="yes" name="hr00"/>
      <point x="262" y="365"/>
      <point x="389" y="211"/>
      <point x="591" y="211" type="curve" smooth="yes"/>
      <point x="793" y="211"/>
      <point x="922" y="365"/>
      <point x="922" y="555" type="curve" smooth="yes"/>
      <point x="922" y="745"/>
      <point x="797" y="899"/>
      <point x="595" y="899" type="curve" smooth="yes"/>
      <point x="393" y="899"/>
      <point x="262" y="745"/>
    </contour>
    <contour>
      <point x="779" y="555" type="curve" smooth="yes"/>
      <point x="779" y="400"/>
      <point x="711" y="324"/>
      <point x="593" y="324" type="curve" smooth="yes"/>
      <point x="474" y="324"/>
      <point x="404" y="400"/>
      <point x="404" y="555" type="curve" smooth="yes"/>
      <point x="404" y="710"/>
      <point x="471" y="786"/>
      <point x="590" y="786" type="curve" smooth="yes"/>
      <point x="708" y="786"/>
      <point x="779" y="710"/>
    </contour>
    <contour>
      <point x="742" y="313" type="line"/>
      <point x="953" y="99" type="line"/>
      <point x="1045" y="184" type="line"/>
      <point x="820" y="412" type="line"/>
    </contour>
    <contour>
      <point x="443" y="796" type="line"/>
      <point x="231" y="1011" type="line"/>
      <point x="139" y="925" type="line"/>
      <point x="362" y="699" type="line"/>
    </contour>
    <contour>
      <point x="354" y="403" type="line"/>
      <point x="139" y="184" type="line"/>
      <point x="231" y="99" type="line"/>
      <point x="445" y="316" type="line"/>
    </contour>
    <contour>
      <point x="821" y="698" type="line"/>
      <point x="1045" y="925" type="line"/>
      <point x="953" y="1011" type="line"/>
      <point x="741" y="796" type="line"/>
    </contour>
  </outline>
</glyph>
<glyph name="yen" format="1">
  <advance width="1259"/>
  <unicode hex="00A5"/>
  <outline>
    <contour>
      <point x="242" y="31" type="curve" smooth="yes" name="hr00"/>
      <point x="239" y="16"/>
      <point x="249" y="0"/>
      <point x="272" y="0" type="curve" smooth="yes"/>
      <point x="797" y="0" type="line" smooth="yes"/>
      <point x="819" y="0"/>
      <point x="832" y="16"/>
      <point x="835" y="31" type="curve" smooth="yes"/>
      <point x="840" y="61"/>
      <point x="833" y="65"/>
      <point x="805" y="68" type="curve"/>
      <point x="739" y="73"/>
      <point x="616" y="79"/>
      <point x="631" y="165" type="curve" smooth="yes"/>
      <point x="714" y="716" type="line"/>
      <point x="1208" y="1254" type="line" smooth="yes"/>
      <point x="1272" y="1332"/>
      <point x="1330" y="1346"/>
      <point x="1379" y="1351" type="curve" smooth="yes"/>
      <point x="1408" y="1354"/>
      <point x="1417" y="1358"/>
      <point x="1422" y="1388" type="curve" smooth="yes"/>
      <point x="1425" y="1403"/>
      <point x="1416" y="1419"/>
      <point x="1394" y="1419" type="curve" smooth="yes"/>
      <point x="999" y="1419" type="line" smooth="yes"/>
      <point x="976" y="1419"/>
      <point x="962" y="1403"/>
      <point x="959" y="1388" type="curve" smooth="yes"/>
      <point x="956" y="1367"/>
      <point x="960" y="1354"/>
      <point x="985" y="1351" type="curve"/>
      <point x="1076" y="1346"/>
      <point x="1128" y="1319"/>
      <point x="1095" y="1277" type="curve" smooth="yes"/>
      <point x="664" y="806" type="line"/>
      <point x="436" y="1287" type="line" smooth="yes"/>
      <point x="419" y="1331"/>
      <point x="514" y="1346"/>
      <point x="605" y="1351" type="curve"/>
      <point x="632" y="1354"/>
      <point x="642" y="1367"/>
      <point x="645" y="1388" type="curve" smooth="yes"/>
      <point x="648" y="1403"/>
      <point x="640" y="1419"/>
      <point x="617" y="1419" type="curve" smooth="yes"/>
      <point x="105" y="1419" type="line" smooth="yes"/>
      <point x="83" y="1419"/>
      <point x="68" y="1403"/>
      <point x="65" y="1388" type="curve" smooth="yes"/>
      <point x="60" y="1358"/>
      <point x="67" y="1354"/>
      <point x="94" y="1351" type="curve" smooth="yes"/>
      <point x="143" y="1346"/>
      <point x="205" y="1336"/>
      <point x="239" y="1254" type="curve" smooth="yes"/>
      <point x="531" y="706" type="line"/>
      <point x="451" y="152" type="line" smooth="yes"/>
      <point x="439" y="81"/>
      <point x="349" y="73"/>
      <point x="281" y="68" type="curve"/>
      <point x="256" y="65"/>
      <point x="246" y="52"/>
    </contour>
    <contour>
      <point x="170" y="737" type="line"/>
      <point x="155" y="731"/>
      <point x="141" y="694"/>
      <point x="139" y="669" type="curve"/>
      <point x="135" y="653"/>
      <point x="142" y="636"/>
      <point x="158" y="635" type="curve"/>
      <point x="1066" y="635" type="line"/>
      <point x="1081" y="641"/>
      <point x="1095" y="678"/>
      <point x="1097" y="703" type="curve"/>
      <point x="1101" y="719"/>
      <point x="1094" y="736"/>
      <point x="1078" y="737" type="curve"/>
      <point x="169" y="737" type="line"/>
    </contour>
    <contour>
      <point x="134" y="404" type="line"/>
      <point x="120" y="398"/>
      <point x="106" y="361"/>
      <point x="104" y="336" type="curve"/>
      <point x="100" y="320"/>
      <point x="107" y="303"/>
      <point x="123" y="302" type="curve"/>
      <point x="1031" y="302" type="line"/>
      <point x="1046" y="308"/>
      <point x="1059" y="345"/>
      <point x="1062" y="370" type="curve"/>
      <point x="1066" y="386"/>
      <point x="1058" y="403"/>
      <point x="1042" y="404" type="curve"/>
      <point x="133" y="404" type="line"/>
    </contour>
  </outline>
</glyph>
<glyph name="brokenbar" format="1">
  <advance width="768"/>
  <unicode hex="00A6"/>
  <outline>
    <contour>
      <point x="483" y="1535" type="line" name="hr00"/>
      <point x="483" y="765" type="line"/>
      <point x="338" y="765" type="line"/>
      <point x="338" y="1535" type="line"/>
    </contour>
    <contour>
      <point x="483" y="401" type="line"/>
      <point x="483" y="-369" type="line"/>
      <point x="338" y="-369" type="line"/>
      <point x="338" y="401" type="line"/>
    </contour>
  </outline>
</glyph>
<glyph name="section" format="1">
  <advance width="1024"/>
  <unicode hex="00A7"/>
  <outline>
    <contour>
      <point x="140" y="-199" type="curve" smooth="yes" name="hr00"/>
      <point x="140" y="-268"/>
      <point x="214" y="-360"/>
      <point x="342" y="-360" type="curve" smooth="yes"/>
      <point x="551" y="-360"/>
      <point x="695" y="-228"/>
      <point x="697" y="-29" type="curve" smooth="yes"/>
      <point x="698" y="45"/>
      <point x="677" y="113"/>
      <point x="639" y="179" type="curve"/>
      <point x="748" y="282"/>
      <point x="846" y="392"/>
      <point x="846" y="539" type="curve" smooth="yes"/>
      <point x="846" y="793"/>
      <point x="481" y="987"/>
      <point x="481" y="1160" type="curve" smooth="yes"/>
      <point x="481" y="1273"/>
      <point x="557" y="1351"/>
      <point x="660" y="1356" type="curve"/>
      <point x="741" y="1180" type="line"/>
      <point x="762" y="1165"/>
      <point x="880" y="1188"/>
      <point x="880" y="1278" type="curve" smooth="yes"/>
      <point x="880" y="1360"/>
      <point x="817" y="1449"/>
      <point x="689" y="1449" type="curve" smooth="yes"/>
      <point x="486" y="1449"/>
      <point x="332" y="1303"/>
      <point x="332" y="1108" type="curve" smooth="yes"/>
      <point x="332" y="1033"/>
      <point x="351" y="965"/>
      <point x="390" y="899" type="curve"/>
      <point x="281" y="796"/>
      <point x="184" y="686"/>
      <point x="184" y="540" type="curve" smooth="yes"/>
      <point x="184" y="286"/>
      <point x="549" y="92"/>
      <point x="549" y="-81" type="curve" smooth="yes"/>
      <point x="549" y="-195"/>
      <point x="470" y="-266"/>
      <point x="358" y="-271" type="curve"/>
      <point x="278" y="-101" type="line"/>
      <point x="257" y="-86"/>
      <point x="140" y="-105"/>
    </contour>
    <contour>
      <point x="436" y="457" type="curve" smooth="yes"/>
      <point x="407" y="500"/>
      <point x="383" y="545"/>
      <point x="383" y="613" type="curve" smooth="yes"/>
      <point x="383" y="688"/>
      <point x="415" y="753"/>
      <point x="448" y="812" type="curve"/>
      <point x="495" y="748"/>
      <point x="550" y="687"/>
      <point x="594" y="622" type="curve" smooth="yes"/>
      <point x="623" y="579"/>
      <point x="647" y="533"/>
      <point x="647" y="464" type="curve" smooth="yes"/>
      <point x="647" y="390"/>
      <point x="613" y="325"/>
      <point x="581" y="265" type="curve"/>
      <point x="533" y="329"/>
      <point x="479" y="392"/>
    </contour>
  </outline>
</glyph>
<glyph name="dieresis" format="1">
  <advance width="1024"/>
  <unicode hex="00A8"/>
  <outline>
    <contour>
      <point x="847" y="1250" type="curve" smooth="yes" name="hr00"/>
      <point x="920" y="1250"/>
      <point x="966" y="1306"/>
      <point x="977" y="1384" type="curve" smooth="yes"/>
      <point x="988" y="1462"/>
      <point x="958" y="1518"/>
      <point x="885" y="1518" type="curve" smooth="yes"/>
      <point x="811" y="1518"/>
      <point x="766" y="1462"/>
      <point x="755" y="1384" type="curve" smooth="yes"/>
      <point x="744" y="1306"/>
      <point x="773" y="1250"/>
    </contour>
    <contour>
      <point x="422" y="1250" type="curve" smooth="yes"/>
      <point x="495" y="1250"/>
      <point x="541" y="1306"/>
      <point x="552" y="1384" type="curve" smooth="yes"/>
      <point x="563" y="1462"/>
      <point x="533" y="1518"/>
      <point x="460" y="1518" type="curve" smooth="yes"/>
      <point x="386" y="1518"/>
      <point x="341" y="1462"/>
      <point x="330" y="1384" type="curve" smooth="yes"/>
      <point x="319" y="1306"/>
      <point x="348" y="1250"/>
    </contour>
    <contour>
      <point x="713" y="1700" type="move" name="_top"/>
    </contour>
  </outline>
</glyph>
<glyph name="copyright" format="1">
  <advance width="1929"/>
  <unicode hex="00A9"/>
  <outline>
    <contour>
      <point x="997" y="1030" type="curve" name="hr00" smooth="yes"/>
      <point x="1043" y="1030"/>
      <point x="1082" y="1001"/>
      <point x="1082" y="1001" type="curve"/>
      <point x="1102" y="978"/>
      <point x="1105" y="939"/>
      <point x="1121" y="904" type="curve" smooth="yes"/>
      <point x="1137" y="869"/>
      <point x="1154" y="830"/>
      <point x="1210" y="830" type="curve" smooth="yes"/>
      <point x="1254" y="830"/>
      <point x="1293" y="894"/>
      <point x="1221" y="1003" type="curve" smooth="yes"/>
      <point x="1166" y="1087"/>
      <point x="1056" y="1104"/>
      <point x="995" y="1104" type="curve" smooth="yes"/>
      <point x="782" y="1104"/>
      <point x="617" y="985"/>
      <point x="617" y="718" type="curve" smooth="yes"/>
      <point x="617" y="450"/>
      <point x="743" y="322"/>
      <point x="988" y="322" type="curve" smooth="yes"/>
      <point x="1132" y="322"/>
      <point x="1233" y="393"/>
      <point x="1269" y="550" type="curve" smooth="yes"/>
      <point x="1271" y="557"/>
      <point x="1270" y="569"/>
      <point x="1256" y="569" type="curve" smooth="yes"/>
      <point x="1199" y="568" type="line" smooth="yes"/>
      <point x="1189" y="568"/>
      <point x="1189" y="558"/>
      <point x="1187" y="551" type="curve" smooth="yes"/>
      <point x="1160" y="427"/>
      <point x="1072" y="394"/>
      <point x="985" y="394" type="curve" smooth="yes"/>
      <point x="894" y="394"/>
      <point x="764" y="452"/>
      <point x="764" y="710" type="curve" smooth="yes"/>
      <point x="764" y="970"/>
      <point x="867" y="1030"/>
    </contour>
    <contour>
      <point x="243" y="710" type="curve" smooth="yes"/>
      <point x="243" y="315"/>
      <point x="560" y="-5"/>
      <point x="956" y="-5" type="curve" smooth="yes"/>
      <point x="1351" y="-5"/>
      <point x="1669" y="315"/>
      <point x="1669" y="710" type="curve" smooth="yes"/>
      <point x="1669" y="1106"/>
      <point x="1351" y="1426"/>
      <point x="956" y="1426" type="curve" smooth="yes"/>
      <point x="560" y="1426"/>
      <point x="243" y="1106"/>
    </contour>
    <contour>
      <point x="337" y="710" type="curve" smooth="yes"/>
      <point x="337" y="1054"/>
      <point x="610" y="1344"/>
      <point x="957" y="1344" type="curve" smooth="yes"/>
      <point x="1304" y="1344"/>
      <point x="1577" y="1058"/>
      <point x="1577" y="710" type="curve" smooth="yes"/>
      <point x="1577" y="367"/>
      <point x="1300" y="75"/>
      <point x="957" y="75" type="curve" smooth="yes"/>
      <point x="613" y="75"/>
      <point x="337" y="367"/>
    </contour>
  </outline>
</glyph>
<glyph name="ordfeminine" format="1">
  <advance width="1024"/>
  <unicode hex="00AA"/>
  <outline>
    <contour>
      <point x="703" y="1470" type="curve" name="hr01" smooth="yes"/>
      <point x="351" y="1470"/>
      <point x="141" y="1168"/>
      <point x="129" y="876" type="curve" smooth="yes"/>
      <point x="122" y="710"/>
      <point x="208" y="614"/>
      <point x="364" y="614" type="curve" smooth="yes"/>
      <point x="511" y="614"/>
      <point x="635" y="743"/>
      <point x="689" y="833" type="curve"/>
      <point x="688" y="822"/>
      <point x="673" y="731"/>
      <point x="673" y="724" type="curve" smooth="yes"/>
      <point x="673" y="672"/>
      <point x="698" y="616"/>
      <point x="773" y="616" type="curve" name="hr02" smooth="yes"/>
      <point x="862" y="616"/>
      <point x="965" y="668"/>
      <point x="978" y="679" type="curve" smooth="yes"/>
      <point x="982" y="682"/>
      <point x="984" y="690"/>
      <point x="984" y="697" type="curve" smooth="yes"/>
      <point x="984" y="717"/>
      <point x="977" y="739"/>
      <point x="963" y="739" type="curve" smooth="yes"/>
      <point x="962" y="739"/>
      <point x="959" y="739"/>
      <point x="958" y="738" type="curve" smooth="yes"/>
      <point x="936" y="732"/>
      <point x="881" y="719"/>
      <point x="865" y="719" type="curve" smooth="yes"/>
      <point x="851" y="719"/>
      <point x="841" y="731"/>
      <point x="841" y="763" type="curve" smooth="yes"/>
      <point x="841" y="771"/>
      <point x="842" y="783"/>
      <point x="845" y="797" type="curve" smooth="yes"/>
      <point x="975" y="1426" type="line"/>
      <point x="975" y="1426"/>
      <point x="976" y="1431"/>
      <point x="976" y="1433" type="curve" smooth="yes"/>
      <point x="976" y="1447"/>
      <point x="967" y="1463"/>
      <point x="948" y="1456" type="curve"/>
      <point x="870" y="1409" type="line"/>
      <point x="832" y="1447"/>
      <point x="770" y="1470"/>
    </contour>
    <contour>
      <point x="300" y="887" type="curve" smooth="yes"/>
      <point x="300" y="1139"/>
      <point x="457" y="1376"/>
      <point x="686" y="1376" type="curve" smooth="yes"/>
      <point x="723" y="1376"/>
      <point x="766" y="1358"/>
      <point x="785" y="1313" type="curve"/>
      <point x="711" y="993" type="line"/>
      <point x="650" y="889"/>
      <point x="544" y="733"/>
      <point x="402" y="733" type="curve" smooth="yes"/>
      <point x="343" y="733"/>
      <point x="300" y="778"/>
    </contour>
  </outline>
</glyph>
<glyph name="logicalnot" format="1">
  <advance width="1317"/>
  <unicode hex="00AC"/>
  <outline>
    <contour>
      <point x="143" y="496" type="line" name="hr00"/>
      <point x="1080" y="496" type="line"/>
      <point x="1080" y="622" type="line"/>
      <point x="143" y="622" type="line"/>
    </contour>
    <contour>
      <point x="1081" y="125" type="line"/>
      <point x="1081" y="622" type="line"/>
      <point x="935" y="622" type="line"/>
      <point x="935" y="125" type="line"/>
    </contour>
  </outline>
</glyph>
